<?xml version="1.0" encoding="utf-8"?>
<!-- Generator: Adobe Illustrator 22.1.0, SVG Export Plug-In . SVG Version: 6.00 Build 0)  -->
<svg version="1.1" id="Capa_1" xmlns="http://www.w3.org/2000/svg" xmlns:xlink="http://www.w3.org/1999/xlink" x="0px" y="0px"
	 viewBox="0 0 210 155" style="enable-background:new 0 0 210 155;" xml:space="preserve">
<style type="text/css">
	.st0{fill:#2998FF;}
</style>
<title>negocios</title>
<path d="M108.5,49.2c0.6-0.3,1.4-0.3,2,0.1c1.7,1.2,1.5,6,0,7.5c-0.5,0.5-1.2,0.7-1.9,0.5C108.5,54.6,108.5,51.9,108.5,49.2
	 M105.7,47.9c0,3.2,0.1,6.7,0,9.7c1.9,0.5,3.9,0.6,5.8,0.1c1.6-0.5,2.8-1.9,3.1-3.5c0.8-3.1-0.7-5.9-3.3-6.2
	c-0.9-0.1-1.9,0.1-2.7,0.5c0-1.5,0-3.2,0-4.5l0,0c-0.7,0.2-1.4,0.3-2.2,0.4c-0.7,0.1-1.4,0.2-2.1,0.4v0.3c0.3,0,0.5,0.1,0.8,0.2
	C105.8,45.6,105.7,46.9,105.7,47.9"/>
<path d="M84,57.2c-0.9-0.1-1.5-0.2-1.8-0.9c-0.5-1.1-0.3-3.5-0.4-5c1,0.1,1.9-0.1,2.5,0.4c0.4,0.4,0.6,0.9,0.7,1.5
	c0.2,0,0.4,0,0.6,0v-4.6H85c-0.2,0.8-0.4,1.5-1,1.8c-0.7,0.2-1.4,0.2-2.1,0.2c0-1.9,0-3.7,0.1-5.5c1.5,0,2.9-0.1,3.8,0.4
	c0.8,0.7,1.4,1.6,1.7,2.6c0.2,0,0.4-0.1,0.7-0.2c0-1.3,0-2.5-0.1-3.8H76.7c0,0,0,0,0,0.1v0.5c0.4,0,0.9,0.1,1.2,0.3
	c0.7,0.5,0.7,1.8,0.8,3c0.1,1.9,0,4.1,0,6c0.1,0.9-0.1,1.8-0.4,2.6c-0.3,0.5-1,0.5-1.6,0.6v0.5H84V57.2z"/>
<path d="M102.6,57.2c-0.6-0.1-1.2,0-1.5-0.5c-0.2-0.4-0.2-0.9-0.2-1.4c-0.1-1.6-0.1-3.1,0-4.7c0.6-0.8,2.3-0.5,3,0
	c0.3-0.9,0.7-1.8,1-2.6c-0.4-0.2-0.8-0.3-1.2-0.3c-1.3,0.2-2.3,1-2.8,2.2c0-0.8,0.1-1.4,0-2.2c-1.4,0.3-2.9,0.5-4.3,0.8V49
	c0.3,0.1,0.8,0.1,1,0.3c0.3,0.5,0.4,1,0.4,1.6c0,1.2,0,2.7,0,3.9c0,0.6,0,1.2-0.2,1.8c-0.2,0.5-0.7,0.6-1.2,0.7v0.5h6L102.6,57.2z"
	/>
<path d="M93.3,55.2c-0.1,0.7-0.4,1.4-0.9,1.9c-0.3,0.2-0.7,0.3-1.1,0.2c-0.6-0.2-1-0.9-1.3-1.5c-0.4-1.7-0.5-3.4-0.2-5.1l0,0
	c0.2-1,0.5-2.1,1.6-2.2s1.5,0.9,1.8,1.8C93.6,51.9,93.6,53.6,93.3,55.2 M95.3,56.3c0.9-1.1,1.3-2.4,1.2-3.8c-0.2-3-2-5-5.3-4.7l0,0
	c-0.7,0-1.4,0.2-2,0.5c-1.7,0.8-2.7,2.4-2.6,5c-0.1,2,1.2,3.8,3.1,4.4C91.7,58.4,93.9,57.9,95.3,56.3"/>
<path d="M120.2,48.5c0.7-0.1,1,0.7,1.2,1.3l0,0c0.1,0.6,0.2,1.2,0.2,1.9c-1,0-2,0.1-3,0C118.7,50.4,119,48.6,120.2,48.5 M118.5,57.6
	c1.8,0.7,3.9,0.4,5.4-0.8c0.2-0.2,0.4-0.4,0.5-0.7c-0.1,0-0.1-0.2-0.2-0.3s-0.4,0.2-0.5,0.3c-0.6,0.3-1.2,0.5-1.9,0.4
	c-2.3-0.1-3.3-1.7-3.3-4.1h6c0-2.8-1.3-4.9-4.4-4.7c-1.5,0-2.9,0.8-3.7,2.1c-0.9,1.4-1.1,3.1-0.6,4.7
	C116.2,56,117.2,57.1,118.5,57.6"/>
<path d="M128.8,57.1c-2,0.2-2.6-1.4-3.2-2.6c-0.1,0-0.3,0.1-0.4,0.1c0,0.9,0,2,0.1,2.9c1.5,0.6,3.2,0.7,4.8,0.4
	c1.5-0.2,2.6-1.4,2.7-2.9c0.1-2-1.3-2.6-2.7-3.2c-0.8-0.3-1.7-0.7-2-1.3c-0.3-0.7-0.1-1.5,0.6-1.9c0.2-0.1,0.3-0.1,0.5-0.1
	c1.6-0.1,2.2,1.4,2.6,2.4l0.4-0.1c0-0.8,0-1.7-0.1-2.5l0,0c-1.1-0.4-2.2-0.6-3.4-0.5c-1.9,0.1-3.4,1.3-3.5,3s1.1,2.4,2.1,2.8
	c1.1,0.4,2.2,0.6,2.5,1.5c0.3,0.8-0.1,1.6-0.9,1.9C129,57.1,128.9,57.1,128.8,57.1"/>
<path class="st0" d="M68.6,77h-1l-6.3-8.1V77h-1.2V66.9h1l6.2,8.1v-8.1h1.2L68.6,77z"/>
<path class="st0" d="M80.1,77H73V66.9h7V68h-5.9v3.4h5.7v1.1h-5.7v3.4h5.9V77z"/>
<path class="st0" d="M88.7,66.8c0.8,0,1.5,0.1,2.2,0.4c0.7,0.3,1.2,0.7,1.7,1.2l-0.8,0.8c-0.4-0.4-0.8-0.8-1.3-1
	c-0.5-0.3-1.1-0.4-1.7-0.4c-0.5,0-1.1,0.1-1.6,0.3c-0.5,0.2-0.9,0.5-1.3,0.8c-0.4,0.4-0.7,0.8-0.9,1.3c-0.4,1.1-0.4,2.3,0,3.3
	c0.2,0.5,0.5,0.9,0.8,1.3c0.4,0.4,0.8,0.6,1.2,0.8c0.5,0.2,1,0.3,1.5,0.3c0.5,0,1-0.1,1.4-0.2c0.4-0.1,0.8-0.4,1.1-0.7
	c0.3-0.3,0.6-0.6,0.7-1c0.2-0.4,0.3-0.9,0.3-1.4h-3.1v-1.1h4.4c0,0.1,0,0.1,0,0.2v0.2c0,0.7-0.1,1.4-0.3,2c-0.2,0.6-0.6,1.2-1,1.7
	c-0.4,0.5-1,0.9-1.5,1.1c-0.6,0.3-1.3,0.4-2,0.4c-0.7,0-1.3-0.1-1.9-0.3c-0.6-0.2-1.2-0.6-1.7-1c-0.5-0.5-0.9-1-1.2-1.6
	c-0.3-0.7-0.4-1.4-0.4-2.1c0-0.5,0.1-1,0.2-1.4c0.1-0.4,0.3-0.9,0.5-1.2c0.2-0.4,0.5-0.7,0.8-1c0.3-0.3,0.6-0.6,1-0.8
	c0.4-0.2,0.8-0.4,1.2-0.5C87.7,66.9,88.2,66.8,88.7,66.8z"/>
<path class="st0" d="M101.9,66.8c0.7,0,1.4,0.1,2.1,0.4c0.6,0.2,1.2,0.6,1.7,1.1c0.5,0.5,0.8,1,1.1,1.6c0.5,1.3,0.5,2.8,0,4.2
	c-0.2,0.6-0.6,1.2-1.1,1.6c-0.5,0.5-1,0.8-1.7,1.1c-1.3,0.5-2.8,0.5-4.2,0c-0.6-0.2-1.2-0.6-1.7-1.1c-0.5-0.5-0.8-1-1.1-1.7
	c-0.5-1.3-0.5-2.8,0-4.2c0.2-0.6,0.6-1.2,1.1-1.6c0.5-0.5,1-0.8,1.7-1.1C100.5,66.9,101.2,66.7,101.9,66.8z M101.9,67.9
	c-0.5,0-1.1,0.1-1.6,0.3c-1,0.4-1.7,1.1-2.1,2.1c-0.4,1.1-0.4,2.3,0,3.3c0.2,0.5,0.5,0.9,0.8,1.3c0.4,0.4,0.8,0.6,1.3,0.8
	c1,0.4,2.1,0.4,3.2,0c0.5-0.2,0.9-0.5,1.3-0.8c0.4-0.4,0.7-0.8,0.8-1.3c0.4-1.1,0.4-2.3,0-3.3c-0.4-1-1.1-1.7-2.1-2.1
	C103,68,102.5,67.9,101.9,67.9z"/>
<path class="st0" d="M115.5,66.8c0.4,0,0.9,0,1.3,0.2c0.4,0.1,0.8,0.2,1.2,0.4c0.4,0.2,0.7,0.4,1,0.7c0.3,0.3,0.5,0.5,0.7,0.9
	l-1,0.7c-0.2-0.2-0.4-0.5-0.6-0.7c-0.2-0.2-0.5-0.4-0.7-0.5c-0.3-0.1-0.6-0.2-0.9-0.3c-0.3-0.1-0.7-0.1-1-0.1
	c-0.5,0-1.1,0.1-1.6,0.3c-0.5,0.2-0.9,0.5-1.3,0.8c-0.4,0.4-0.7,0.8-0.8,1.3c-0.4,1.1-0.4,2.2,0,3.3c0.2,0.5,0.5,0.9,0.8,1.3
	c0.4,0.4,0.8,0.6,1.3,0.8c0.5,0.2,1,0.3,1.6,0.3c0.6,0,1.3-0.1,1.8-0.4c0.5-0.3,1-0.7,1.3-1.2l0.9,0.7c-0.2,0.3-0.5,0.6-0.8,0.8
	c-0.3,0.3-0.6,0.5-1,0.6c-0.4,0.2-0.7,0.3-1.1,0.4c-0.4,0.1-0.8,0.1-1.2,0.1c-0.7,0-1.4-0.1-2.1-0.4c-0.6-0.2-1.2-0.6-1.7-1.1
	c-0.4-0.5-0.8-1.1-1-1.7c-0.5-1.3-0.5-2.8,0-4.2c0.3-0.6,0.6-1.2,1.1-1.6c0.5-0.5,1-0.8,1.7-1.1C114.1,66.9,114.8,66.7,115.5,66.8z"
	/>
<path class="st0" d="M124.5,77h-1.2V66.9h1.2V77z"/>
<path class="st0" d="M133.5,66.8c0.7,0,1.4,0.1,2.1,0.4c1.2,0.5,2.2,1.5,2.7,2.7c0.5,1.3,0.5,2.8,0,4.2c-0.2,0.6-0.6,1.2-1.1,1.6
	c-0.5,0.5-1,0.8-1.6,1.1c-1.3,0.5-2.8,0.5-4.1,0c-0.6-0.2-1.2-0.6-1.6-1.1c-0.5-0.5-0.8-1-1.1-1.7c-0.5-1.3-0.5-2.8,0-4.2
	c0.3-0.6,0.6-1.2,1.1-1.6c0.5-0.5,1-0.8,1.6-1.1C132.1,66.9,132.8,66.7,133.5,66.8z M133.5,67.9c-0.5,0-1.1,0.1-1.6,0.3
	c-0.5,0.2-0.9,0.5-1.3,0.8c-0.4,0.4-0.7,0.8-0.9,1.3c-0.4,1.1-0.4,2.2,0,3.3c0.2,0.5,0.5,0.9,0.9,1.3c0.4,0.4,0.8,0.6,1.3,0.8
	c0.5,0.2,1,0.3,1.6,0.3c0.5,0,1.1-0.1,1.6-0.3c0.5-0.2,0.9-0.5,1.3-0.8c0.4-0.4,0.7-0.8,0.9-1.3c0.4-1.1,0.4-2.2,0-3.3
	c-0.2-0.5-0.5-0.9-0.9-1.3c-0.4-0.4-0.8-0.6-1.3-0.8C134.6,68,134,67.9,133.5,67.9z"/>
<path class="st0" d="M149,68.8c-0.4-0.3-0.9-0.5-1.4-0.7c-0.5-0.2-1.1-0.3-1.7-0.3c-0.3,0-0.7,0-1,0.1c-0.3,0.1-0.6,0.2-0.8,0.4
	c-0.2,0.1-0.4,0.3-0.5,0.6c-0.1,0.2-0.2,0.5-0.2,0.8c0,0.4,0.2,0.9,0.6,1.1c0.5,0.3,1.1,0.5,1.8,0.5l1,0.1c0.4,0.1,0.8,0.1,1.2,0.3
	c0.4,0.1,0.7,0.3,1,0.5c0.3,0.2,0.5,0.5,0.7,0.8c0.2,0.3,0.3,0.7,0.3,1.1c0,0.5-0.1,0.9-0.3,1.3c-0.2,0.4-0.5,0.7-0.9,0.9
	c-0.4,0.3-0.8,0.5-1.3,0.6c-0.5,0.1-1,0.2-1.5,0.2c-0.4,0-0.7,0-1.1-0.1c-0.4-0.1-0.7-0.1-1.1-0.3c-0.3-0.1-0.7-0.2-1-0.4
	c-0.3-0.1-0.6-0.3-0.8-0.5l0.6-0.9c0.2,0.2,0.4,0.3,0.6,0.4c0.3,0.1,0.5,0.3,0.8,0.4c0.3,0.1,0.6,0.2,0.9,0.2c0.3,0.1,0.7,0.1,1,0.1
	c0.4,0,0.7,0,1.1-0.1c0.3-0.1,0.6-0.2,0.9-0.3c0.2-0.1,0.4-0.3,0.6-0.6c0.1-0.2,0.2-0.5,0.2-0.8c0-0.5-0.2-0.9-0.6-1.1
	c-0.6-0.3-1.2-0.5-1.8-0.5l-1-0.1c-0.4,0-0.8-0.1-1.2-0.3c-0.3-0.1-0.7-0.3-0.9-0.5c-0.3-0.2-0.5-0.5-0.6-0.8
	c-0.2-0.3-0.2-0.7-0.2-1.1c0-0.4,0.1-0.9,0.3-1.3c0.2-0.4,0.5-0.7,0.8-0.9c0.3-0.2,0.7-0.4,1.1-0.6c0.5-0.1,1-0.2,1.5-0.2
	c0.4,0,0.7,0,1.1,0.1c0.3,0.1,0.7,0.1,1,0.2c0.3,0.1,0.6,0.2,0.8,0.3c0.3,0.1,0.5,0.3,0.7,0.4L149,68.8z"/>
<path d="M93.7,87.7h-2.7V90h-0.6v-5h3.5v0.6h-2.9v1.6h2.7L93.7,87.7z"/>
<path d="M100.1,84.8c0.2,0,0.5,0,0.7,0.1c0.2,0.1,0.4,0.1,0.6,0.2c0.2,0.1,0.4,0.2,0.5,0.4c0.2,0.2,0.3,0.3,0.4,0.5
	c0.1,0.2,0.2,0.4,0.2,0.6c0.1,0.5,0.1,1,0,1.4c-0.1,0.2-0.1,0.4-0.2,0.6c-0.2,0.4-0.5,0.7-0.9,0.9c-0.2,0.1-0.4,0.2-0.6,0.2
	c-0.2,0.1-0.5,0.1-0.7,0.1c-0.3,0-0.7-0.1-1-0.2c-0.3-0.1-0.6-0.3-0.8-0.5c-0.2-0.2-0.4-0.5-0.5-0.8c-0.3-0.7-0.3-1.4,0-2.1
	c0.1-0.3,0.3-0.6,0.5-0.8c0.2-0.2,0.5-0.4,0.8-0.5C99.4,84.9,99.8,84.8,100.1,84.8z M100.1,85.4c-0.3,0-0.5,0-0.8,0.2
	c-0.2,0.1-0.4,0.2-0.6,0.4c-0.2,0.2-0.3,0.4-0.4,0.6c-0.1,0.3-0.2,0.5-0.2,0.8c0,0.3,0,0.6,0.2,0.8c0.1,0.2,0.2,0.4,0.4,0.6
	c0.2,0.2,0.4,0.3,0.6,0.4c0.5,0.2,1,0.2,1.5,0c0.2-0.1,0.4-0.2,0.6-0.4c0.2-0.2,0.3-0.4,0.4-0.6c0.1-0.3,0.2-0.5,0.2-0.8
	c0-0.3,0-0.6-0.2-0.8c-0.1-0.2-0.2-0.5-0.4-0.6c-0.2-0.2-0.4-0.3-0.6-0.4C100.6,85.5,100.4,85.4,100.1,85.4z"/>
<path d="M108.8,84.9c0.5,0,0.9,0.1,1.3,0.4c0.3,0.3,0.5,0.7,0.4,1.1c0,0.2,0,0.4-0.1,0.6c-0.1,0.2-0.2,0.3-0.3,0.5
	c-0.2,0.1-0.4,0.2-0.6,0.3c-0.2,0.1-0.5,0.1-0.7,0.1l0,0l1.7,2.2h-0.8l-1.7-2.2h-0.6V90h-0.6v-5L108.8,84.9z M107.4,85.5v1.7h1.4
	c0.3,0,0.6-0.1,0.8-0.2c0.2-0.2,0.3-0.4,0.3-0.6c0-0.2-0.1-0.5-0.3-0.6c-0.2-0.2-0.5-0.2-0.8-0.2H107.4z"/>
<path d="M116.8,84.8c0.2,0,0.5,0,0.7,0.1c0.2,0.1,0.4,0.1,0.6,0.2c0.2,0.1,0.4,0.2,0.5,0.4c0.2,0.2,0.3,0.3,0.4,0.5
	c0.1,0.2,0.2,0.4,0.2,0.6c0.1,0.5,0.1,1,0,1.4c-0.2,0.6-0.6,1.2-1.2,1.5c-0.2,0.1-0.4,0.2-0.6,0.2c-0.2,0.1-0.5,0.1-0.7,0.1
	c-0.3,0-0.7-0.1-1-0.2c-0.3-0.1-0.6-0.3-0.8-0.5c-0.2-0.2-0.4-0.5-0.5-0.8c-0.3-0.7-0.3-1.4,0-2.1c0.1-0.3,0.3-0.6,0.5-0.8
	c0.2-0.2,0.5-0.4,0.8-0.5C116.2,84.9,116.5,84.8,116.8,84.8z M116.8,85.4c-0.3,0-0.5,0-0.8,0.2c-0.2,0.1-0.4,0.2-0.6,0.4
	c-0.2,0.2-0.3,0.4-0.4,0.6c-0.1,0.3-0.1,0.5-0.1,0.8c0,0.3,0,0.6,0.1,0.8c0.1,0.2,0.2,0.4,0.4,0.6c0.2,0.2,0.4,0.3,0.6,0.4
	c0.2,0.1,0.5,0.2,0.8,0.2c0.3,0,0.5,0,0.8-0.2c0.2-0.1,0.4-0.2,0.6-0.4c0.2-0.2,0.3-0.4,0.4-0.6c0.1-0.3,0.2-0.5,0.2-0.8
	c0-0.3,0-0.6-0.2-0.8c-0.1-0.2-0.2-0.5-0.4-0.6c-0.2-0.2-0.4-0.3-0.6-0.4C117.4,85.5,117.1,85.4,116.8,85.4z"/>
<rect x="102.2" y="98.8" class="st0" width="5.1" height="5.1"/>
<path d="M80.8,129.3c-0.5-0.3-1.2-0.5-1.8-0.5c-0.7,0-1.2,0.3-1.2,0.8s0.5,0.6,1.3,0.7l0.3,0.1c1.1,0.2,2,0.7,2,1.8
	c0,1.4-1.2,2.1-2.6,2.1c-0.9,0-1.9-0.3-2.7-0.8l0.7-1c0.6,0.4,1.3,0.7,2,0.7c0.7,0,1.2-0.3,1.2-0.8s-0.4-0.6-1.3-0.7l-0.4-0.1
	c-1.1-0.2-1.9-0.7-1.9-1.8c0-1.3,1.2-2,2.5-2c0.8,0,1.7,0.2,2.4,0.7L80.8,129.3z"/>
<path d="M89,128.9h-2v5.1h-1.2v-5.1h-2v-1.2H89V128.9z"/>
<path d="M92.2,133.2c0,0.5-0.4,0.9-0.9,0.9s-0.9-0.4-0.9-0.9s0.4-0.9,0.9-0.9c0,0,0,0,0,0C91.8,132.4,92.2,132.8,92.2,133.2z"/>
<path d="M101.8,127.7c1.5,0,2.3,0.7,2.3,1.9c0,1-0.9,1.9-1.9,1.9c0,0,0,0,0,0l1.9,2.5h-1.5l-1.8-2.5h-0.4v2.5h-1.2v-6.3H101.8z
	 M100.4,128.9v1.5h1.4c0.7,0,1-0.2,1-0.8s-0.4-0.8-1-0.8H100.4z"/>
<path d="M111.7,134H107v-6.3h4.7v1.1h-3.4v1.4h3.3v1.1h-3.3v1.4h3.5L111.7,134z"/>
<path d="M120.2,128.6l-0.9,0.9c-0.4-0.4-0.9-0.7-1.5-0.7c-1.1,0-2.1,0.9-2.1,2.1s0.9,2.1,2.1,2.1l0,0c0.9,0.1,1.7-0.5,1.8-1.4H118
	v-1h2.9c0,0.1,0,0.2,0,0.4c0.1,1.7-1.1,3.1-2.7,3.2c-0.1,0-0.2,0-0.3,0c-1.8,0-3.2-1.6-3.2-3.4c0-1.8,1.6-3.2,3.4-3.2
	C118.8,127.6,119.6,128,120.2,128.6L120.2,128.6z"/>
<path d="M125,134h-1.2v-6.3h1.2V134z"/>
<path d="M132.5,129.3c-0.5-0.3-1.2-0.5-1.8-0.5c-0.7,0-1.2,0.3-1.2,0.8s0.5,0.6,1.3,0.7l0.4,0.1c1.1,0.2,2,0.7,2,1.8
	c0,1.4-1.2,2.1-2.6,2.1c-0.9,0-1.9-0.3-2.7-0.8l0.7-1c0.6,0.4,1.3,0.7,2,0.7c0.7,0,1.2-0.3,1.2-0.8s-0.5-0.6-1.3-0.7l-0.4-0.1
	c-1.1-0.2-1.9-0.7-1.9-1.8c0-1.3,1.2-2,2.5-2c0.9,0,1.7,0.2,2.4,0.7L132.5,129.3z"/>
<path d="M72.9,23c-0.5-0.3-1.2-0.5-1.8-0.5c-0.5,0-0.8,0.1-0.8,0.4s0.7,0.4,1.3,0.5h0.2c1.3,0.2,2,0.9,2,1.8c0,1.6-1.3,2.2-2.7,2.2
	c-1,0-2-0.2-2.9-0.8l0.8-1.4c0.6,0.4,1.3,0.6,2.1,0.6c0.5,0,0.8-0.1,0.8-0.4s-0.4-0.4-1.2-0.5h-0.2c-1.4-0.2-2-0.9-2-2s1-2,2.6-2
	c0.9,0,1.9,0.2,2.7,0.7L72.9,23z"/>
<path d="M81.1,27.3h-4.9V21h4.9v1.5h-3.2v0.8h3v1.5h-3v0.9h3.2V27.3z"/>
<path d="M85.5,25.3v2h-1.7V21h2.8c1.6,0,2.4,0.9,2.4,2.2s-0.8,2.1-2.4,2.1L85.5,25.3z M85.5,22.5v1.3h1.1c0.4,0,0.7-0.2,0.7-0.6
	c0-0.4-0.3-0.7-0.6-0.7c0,0-0.1,0-0.1,0L85.5,22.5z"/>
<path d="M96.4,22.6h-1.8v4.7h-1.7v-4.7h-1.8V21h5.3V22.6z"/>
<path d="M100.4,27.3h-1.7V21h1.7V27.3z"/>
<path d="M108.1,27.3h-4.9V21h4.9v1.5h-3.2v0.8h3v1.5h-3v0.9h3.2V27.3z"/>
<path d="M117.9,27.3h-1.7v-3.9l-1,3.4h-1.8l-1-3.4v3.9h-1.7V21h2.3l1.3,3.8l1.3-3.8h2.4V27.3z"/>
<path d="M123.4,21c1.7,0,2.4,0.7,2.4,1.8c0,0.6-0.3,1.1-0.8,1.3c0.6,0.2,1,0.7,1,1.4c0,1.1-0.7,1.8-2.4,1.8h-3V21H123.4z
	 M122.3,22.4v1h1.1c0.5,0,0.7-0.2,0.7-0.5s-0.2-0.5-0.7-0.5L122.3,22.4z M122.3,24.8v1.1h1.2c0.5,0,0.7-0.2,0.7-0.5
	s-0.2-0.5-0.7-0.5L122.3,24.8z"/>
<path d="M133.7,23.1c0,1-0.7,1.8-1.6,1.9l1.7,2.3h-2l-1.5-2.2h-0.1v2.2h-1.7V21h2.8C132.9,21,133.7,21.8,133.7,23.1z M130.2,22.5
	v1.1h1.1c0.4,0,0.7-0.2,0.7-0.5s-0.3-0.6-0.7-0.6L130.2,22.5z"/>
<path d="M141.2,27.3h-4.9V21h4.9v1.5H138v0.8h3v1.5h-3v0.9h3.2L141.2,27.3z"/>
<g>
	<path class="st0" d="M80.8,120h-4.6v-6.6h0.8v5.8h3.8V120z"/>
	<path class="st0" d="M89.1,117.4c0,1.8-1.2,2.7-2.7,2.7c-1.5,0-2.7-0.9-2.7-2.7v-4h0.8v3.9c0,1.3,0.8,1.9,1.9,1.9
		c1.1,0,1.9-0.6,1.9-1.9v-3.9h0.8V117.4z"/>
	<path class="st0" d="M98.3,120h-0.7l-4-5.2l0,5.1h-0.8v-6.6h0.7l4,5.2v-5.1h0.8V120z"/>
	<path class="st0" d="M106.7,120H102v-6.6h4.6v0.8h-3.8v2.1h3.7v0.8h-3.7v2.1h3.8V120z"/>
	<path class="st0" d="M114.5,114.8c-0.5-0.4-1.2-0.6-1.9-0.6c-1,0-1.6,0.4-1.6,1.1c0,0.6,0.5,0.9,1.5,1l0.6,0.1
		c1.1,0.1,2.1,0.6,2.1,1.7c0,1.3-1.2,2-2.6,2c-0.9,0-2-0.3-2.6-0.9l0.5-0.7c0.5,0.4,1.3,0.7,2.1,0.7c1,0,1.7-0.4,1.7-1.1
		c0-0.6-0.5-0.9-1.6-1l-0.6-0.1c-1.1-0.1-1.9-0.6-1.9-1.8c0-1.3,1.1-2,2.5-2c1,0,1.7,0.3,2.4,0.7L114.5,114.8z"/>
	<path class="st0" d="M124.8,120H124v-5.5l-1.9,0.8v-0.8l2.7-1.1V120z"/>
	<path class="st0" d="M132.5,114.1l-2.9,5.9h-0.9l2.9-5.8H128v-0.8h4.5V114.1z"/>
</g>
</svg>
