<?xml version="1.0" encoding="utf-8"?>
<!-- Generator: Adobe Illustrator 22.0.1, SVG Export Plug-In . SVG Version: 6.00 Build 0)  -->
<svg version="1.1" id="Capa_1" xmlns="http://www.w3.org/2000/svg" xmlns:xlink="http://www.w3.org/1999/xlink" x="0px" y="0px"
	 viewBox="0 0 210 155" style="enable-background:new 0 0 210 155;" xml:space="preserve">
<style type="text/css">
	.st0{fill:#CD171A;}
	.st1{fill:none;}
</style>
<title>franquicias</title>
<path d="M108.5,50c0.6-0.3,1.4-0.3,2,0.1c1.7,1.2,1.5,6,0,7.5c-0.5,0.5-1.2,0.7-1.9,0.5C108.5,55.4,108.5,52.7,108.5,50 M105.7,48.8
	c0,3.2,0.1,6.7,0,9.7c1.9,0.5,3.9,0.6,5.8,0.1c1.6-0.5,2.8-1.9,3.1-3.5c0.8-3.1-0.7-5.9-3.3-6.2c-0.9-0.1-1.9,0.1-2.7,0.5
	c0-1.5,0-3.2,0-4.5l0,0c-0.7,0.2-1.4,0.3-2.2,0.4c-0.7,0.1-1.4,0.2-2.1,0.4V46c0.3,0,0.5,0.1,0.8,0.2
	C105.8,46.5,105.7,47.8,105.7,48.8"/>
<path d="M83.9,58.1c-0.9-0.1-1.5-0.2-1.8-0.9c-0.5-1.1-0.3-3.5-0.3-5c1,0.1,1.9-0.1,2.5,0.4c0.4,0.4,0.6,0.9,0.7,1.5
	c0.2,0,0.5,0,0.6,0v-4.6h-0.6c-0.2,0.8-0.4,1.5-1,1.8c-0.7,0.2-1.4,0.2-2.1,0.2c0-1.9,0-3.7,0.1-5.5c1.5,0,3-0.1,3.8,0.4
	c0.8,0.7,1.4,1.6,1.6,2.6c0.2,0,0.4-0.1,0.7-0.2c0-1.3,0-2.5-0.1-3.8H76.7c0,0,0,0,0,0.1v0.5c0.4,0,0.8,0.1,1.2,0.3
	c0.7,0.5,0.7,1.8,0.8,3c0.1,1.9,0,4.1,0,6c0.1,0.9-0.1,1.8-0.4,2.6c-0.3,0.5-1,0.5-1.6,0.6v0.5H84L83.9,58.1z"/>
<path d="M102.6,58.1c-0.6-0.1-1.2,0-1.5-0.5c-0.2-0.4-0.3-0.9-0.2-1.4c-0.1-1.6-0.1-3.1,0-4.7c0.6-0.8,2.3-0.5,3,0
	c0.3-0.9,0.7-1.8,1-2.6c-0.4-0.2-0.8-0.3-1.2-0.3c-1.3,0.2-2.4,1-2.8,2.2c0-0.8,0.1-1.4,0-2.2c-1.4,0.3-2.9,0.5-4.3,0.8v0.4
	c0.3,0.1,0.8,0.1,1,0.3c0.3,0.5,0.4,1,0.4,1.6c0,1.2,0,2.7,0,3.9c0,0.6,0,1.2-0.2,1.8c-0.2,0.5-0.7,0.6-1.2,0.7v0.5h6L102.6,58.1z"
	/>
<path d="M93.3,56.1c-0.1,0.7-0.4,1.4-0.9,1.9c-0.3,0.2-0.7,0.3-1.1,0.2c-0.6-0.2-1-0.9-1.3-1.5c-0.4-1.7-0.5-3.4-0.2-5.1l0,0
	c0.2-1,0.5-2.1,1.6-2.2s1.5,0.9,1.8,1.8C93.5,52.8,93.6,54.5,93.3,56.1 M95.3,57.2c0.9-1.1,1.3-2.4,1.2-3.8c-0.2-3-2-5-5.3-4.7l0,0
	c-0.7,0-1.4,0.2-2,0.5c-1.6,0.8-2.7,2.4-2.6,5c-0.1,2,1.2,3.8,3.1,4.4C91.7,59.3,93.9,58.8,95.3,57.2"/>
<path d="M120.2,49.3c0.7-0.1,1,0.7,1.2,1.3l0,0c0.1,0.6,0.2,1.2,0.2,1.9c-1,0-2,0.1-3,0C118.7,51.3,119,49.4,120.2,49.3 M118.5,58.5
	c1.8,0.7,3.9,0.4,5.4-0.8c0.2-0.2,0.4-0.4,0.5-0.7c-0.1,0-0.1-0.2-0.2-0.3s-0.4,0.2-0.5,0.3c-0.6,0.3-1.2,0.5-1.9,0.4
	c-2.3-0.1-3.3-1.7-3.3-4.1h6c0-2.8-1.3-4.9-4.4-4.7c-1.5,0-2.9,0.8-3.7,2.1c-0.8,1.4-1.1,3.1-0.6,4.7
	C116.2,56.8,117.2,57.9,118.5,58.5"/>
<path d="M128.7,57.9c-2,0.2-2.6-1.4-3.2-2.6c-0.1,0-0.3,0.1-0.4,0.1c0,0.9,0,2,0.1,2.9c1.5,0.6,3.2,0.7,4.8,0.4
	c1.5-0.2,2.6-1.4,2.7-2.9c0.1-2-1.3-2.6-2.7-3.2c-0.8-0.3-1.7-0.7-2-1.3c-0.1-0.2-0.1-0.3-0.2-0.5c-0.1-0.8,0.5-1.4,1.3-1.5
	c1.6-0.1,2.2,1.4,2.6,2.4l0.4-0.1c0-0.8,0-1.7-0.1-2.5l0,0c-1.1-0.4-2.2-0.6-3.4-0.5c-1.9,0.1-3.4,1.3-3.4,3s1,2.4,2.1,2.8
	s2.2,0.6,2.5,1.5c0.3,0.8-0.1,1.6-0.9,1.9C129,57.9,128.8,58,128.7,57.9"/>
<path class="st0" d="M54.4,73.3h-5.5v4.5h-1.2V67.7h7v1.1h-5.8v3.4h5.5V73.3z"/>
<path class="st0" d="M62.4,67.7c0.5,0,1,0.1,1.5,0.2c0.4,0.1,0.8,0.3,1.1,0.6c0.3,0.2,0.5,0.5,0.7,0.9c0.2,0.4,0.2,0.8,0.2,1.2
	c0,0.4-0.1,0.8-0.2,1.2c-0.2,0.4-0.4,0.7-0.7,0.9c-0.3,0.3-0.7,0.5-1.1,0.6c-0.5,0.1-1,0.2-1.5,0.2h-0.2l3.6,4.4h-1.4l-3.5-4.4h-1.3
	v4.4h-1.2V67.7H62.4z M59.6,68.8v3.6h2.8c0.6,0,1.2-0.1,1.7-0.4c0.4-0.3,0.6-0.8,0.6-1.3c0-0.5-0.2-1-0.6-1.3
	c-0.5-0.3-1.1-0.5-1.7-0.4L59.6,68.8z"/>
<path class="st0" d="M78.1,77.8h-1.2L75.7,75h-5l-1.1,2.8h-1.2l4.1-10.1H74L78.1,77.8z M71.2,73.9h4.1l-2-5L71.2,73.9z"/>
<path class="st0" d="M89.7,77.8h-1.1l-6.2-8.1v8.1h-1.2V67.7h1l6.2,8.1v-8.1h1.2L89.7,77.8z"/>
<path class="st0" d="M98.6,67.6c0.7,0,1.4,0.1,2.1,0.4c0.6,0.2,1.2,0.6,1.7,1.1c0.5,0.5,0.8,1,1.1,1.6c0.3,0.7,0.4,1.4,0.4,2.1
	c0,0.6-0.1,1.2-0.3,1.8c-0.2,0.5-0.5,1.1-0.8,1.5l1.3,1.7h-1.4l-0.8-0.9c-0.5,0.3-1,0.6-1.5,0.8c-0.6,0.2-1.2,0.3-1.8,0.3
	c-0.7,0-1.4-0.1-2.1-0.4c-0.6-0.2-1.2-0.6-1.6-1.1c-0.5-0.5-0.8-1-1.1-1.6c-0.5-1.3-0.5-2.8,0-4.2c0.2-0.6,0.6-1.2,1.1-1.6
	c0.5-0.5,1-0.8,1.6-1.1C97.2,67.7,97.9,67.6,98.6,67.6z M98.6,68.7c-0.5,0-1.1,0.1-1.6,0.3c-0.9,0.4-1.7,1.2-2,2.1
	c-0.4,1.1-0.4,2.3,0,3.3c0.2,0.5,0.5,0.9,0.8,1.3c0.4,0.4,0.8,0.6,1.3,0.8c0.5,0.2,1,0.3,1.6,0.3c0.5,0,1-0.1,1.4-0.2
	c0.4-0.1,0.8-0.4,1.2-0.7l-2.3-3h1.4l1.7,2.2c0.2-0.3,0.4-0.7,0.5-1.1c0.1-0.4,0.2-0.8,0.2-1.3c0-0.6-0.1-1.1-0.3-1.7
	c-0.4-1-1.2-1.8-2.2-2.1C99.7,68.8,99.2,68.7,98.6,68.7z"/>
<path class="st0" d="M115.8,73.9c0,0.6-0.1,1.2-0.3,1.8c-0.4,1-1.2,1.7-2.2,2c-1.1,0.3-2.2,0.3-3.2,0c-0.5-0.2-0.9-0.4-1.3-0.8
	c-0.4-0.4-0.7-0.8-0.9-1.3c-0.2-0.6-0.3-1.2-0.3-1.8v-6.1h1.2v6c0,0.5,0.1,0.9,0.2,1.4c0.1,0.4,0.3,0.7,0.6,1
	c0.3,0.3,0.6,0.4,0.9,0.6c0.4,0.1,0.8,0.2,1.2,0.2c0.4,0,0.8-0.1,1.2-0.2c0.7-0.2,1.3-0.8,1.6-1.5c0.2-0.4,0.2-0.9,0.2-1.4v-6h1.2
	L115.8,73.9z"/>
<path class="st0" d="M121.1,77.8h-1.2V67.7h1.2V77.8z"/>
<path class="st0" d="M130.1,67.6c0.4,0,0.9,0,1.3,0.2c0.4,0.1,0.8,0.2,1.1,0.4c0.4,0.2,0.7,0.4,1,0.7c0.3,0.3,0.5,0.5,0.7,0.9
	l-1,0.7c-0.2-0.2-0.4-0.5-0.6-0.7c-0.2-0.2-0.5-0.4-0.7-0.5c-0.3-0.1-0.6-0.3-0.9-0.3c-0.3-0.1-0.7-0.1-1-0.1
	c-0.5,0-1.1,0.1-1.6,0.3c-1,0.4-1.7,1.1-2.1,2.1c-0.4,1.1-0.4,2.3,0,3.3c0.2,0.5,0.5,0.9,0.8,1.3c0.4,0.4,0.8,0.6,1.3,0.8
	c0.5,0.2,1,0.3,1.6,0.3c0.6,0,1.3-0.1,1.8-0.4c0.5-0.3,1-0.7,1.3-1.2l0.9,0.7c-0.2,0.3-0.5,0.6-0.8,0.8c-0.3,0.3-0.6,0.5-0.9,0.7
	c-0.4,0.2-0.7,0.3-1.1,0.4c-0.4,0.1-0.8,0.1-1.2,0.1c-0.7,0-1.4-0.1-2.1-0.4c-0.6-0.2-1.2-0.6-1.7-1.1c-0.5-0.5-0.8-1-1.1-1.6
	c-0.5-1.3-0.5-2.8,0-4.2c0.2-0.6,0.6-1.2,1.1-1.6c0.5-0.5,1.1-0.8,1.7-1.1C128.7,67.7,129.4,67.6,130.1,67.6z"/>
<path class="st0" d="M139.1,77.8h-1.2V67.7h1.2V77.8z"/>
<path class="st0" d="M151.9,77.8h-1.2l-1.1-2.8h-5l-1.1,2.8h-1.2l4.1-10.1h1.4L151.9,77.8z M145,73.9h4.1l-2.1-5L145,73.9z"/>
<path class="st0" d="M161.6,69.7c-0.4-0.3-0.9-0.5-1.4-0.7c-0.5-0.2-1.1-0.3-1.7-0.3c-0.3,0-0.7,0-1,0.1c-0.3,0.1-0.6,0.2-0.8,0.4
	c-0.2,0.1-0.4,0.3-0.5,0.6c-0.1,0.2-0.2,0.5-0.2,0.8c0,0.4,0.2,0.9,0.6,1.1c0.5,0.3,1.1,0.5,1.8,0.5l1,0.1c0.4,0.1,0.8,0.1,1.2,0.3
	c0.4,0.1,0.7,0.3,1,0.5c0.3,0.2,0.5,0.5,0.7,0.8c0.2,0.3,0.3,0.7,0.3,1.1c0,0.5-0.1,0.9-0.3,1.3c-0.2,0.4-0.5,0.7-0.9,1
	c-0.4,0.3-0.8,0.5-1.3,0.6c-0.5,0.1-1,0.2-1.5,0.2c-0.4,0-0.7,0-1.1-0.1c-0.4-0.1-0.7-0.1-1.1-0.3c-0.3-0.1-0.7-0.2-1-0.4
	c-0.3-0.1-0.6-0.3-0.8-0.5l0.6-0.9c0.2,0.2,0.4,0.3,0.6,0.4c0.3,0.1,0.5,0.3,0.8,0.4c0.3,0.1,0.6,0.2,0.9,0.2c0.3,0.1,0.7,0.1,1,0.1
	c0.4,0,0.7,0,1.1-0.1c0.3-0.1,0.6-0.2,0.9-0.3c0.2-0.1,0.4-0.3,0.6-0.6c0.1-0.2,0.2-0.5,0.2-0.8c0-0.5-0.2-0.9-0.6-1.1
	c-0.6-0.3-1.2-0.5-1.8-0.5l-1-0.1c-0.4,0-0.8-0.1-1.2-0.3c-0.3-0.1-0.7-0.3-0.9-0.5c-0.3-0.2-0.5-0.5-0.6-0.8
	c-0.2-0.3-0.2-0.7-0.2-1.1c0-0.4,0.1-0.9,0.3-1.3c0.2-0.4,0.5-0.7,0.8-0.9c0.4-0.3,0.8-0.5,1.2-0.6c0.5-0.1,1-0.2,1.5-0.2
	c0.4,0,0.7,0,1.1,0.1c0.3,0.1,0.7,0.1,1,0.2c0.3,0.1,0.6,0.2,0.8,0.3c0.3,0.1,0.5,0.3,0.7,0.4L161.6,69.7z"/>
<path d="M93.6,88.6h-2.7v2.2h-0.6v-5h3.5v0.6h-2.9V88h2.7V88.6z"/>
<path d="M100.1,85.7c0.2,0,0.5,0,0.7,0.1c0.2,0.1,0.4,0.1,0.6,0.2c0.4,0.2,0.7,0.5,0.9,0.9c0.1,0.2,0.2,0.4,0.2,0.6
	c0.1,0.2,0.1,0.5,0.1,0.7c0,0.2,0,0.5-0.1,0.7c-0.1,0.2-0.1,0.4-0.2,0.6c-0.1,0.2-0.2,0.4-0.4,0.5c-0.2,0.2-0.3,0.3-0.5,0.4
	c-0.2,0.1-0.4,0.2-0.6,0.2c-0.2,0.1-0.5,0.1-0.7,0.1c-0.3,0-0.7-0.1-1-0.2c-0.3-0.1-0.6-0.3-0.8-0.5c-0.2-0.2-0.4-0.5-0.5-0.8
	c-0.1-0.3-0.2-0.7-0.2-1c0-0.3,0.1-0.7,0.2-1c0.1-0.3,0.3-0.6,0.5-0.8c0.2-0.2,0.5-0.4,0.8-0.5C99.4,85.8,99.8,85.7,100.1,85.7z
	 M100.1,86.3c-0.3,0-0.5,0-0.8,0.2c-0.2,0.1-0.4,0.2-0.6,0.4c-0.2,0.2-0.3,0.4-0.4,0.6c-0.1,0.3-0.2,0.5-0.2,0.8
	c0,0.3,0,0.6,0.2,0.8c0.1,0.2,0.2,0.5,0.4,0.6c0.2,0.2,0.4,0.3,0.6,0.4c0.2,0.1,0.5,0.1,0.8,0.1c0.3,0,0.5,0,0.8-0.1
	c0.2-0.1,0.4-0.2,0.6-0.4c0.2-0.2,0.3-0.4,0.4-0.6c0.1-0.3,0.2-0.5,0.2-0.8c0-0.3,0-0.6-0.2-0.8c-0.1-0.2-0.2-0.4-0.4-0.6
	c-0.2-0.2-0.4-0.3-0.6-0.4C100.6,86.4,100.4,86.3,100.1,86.3z"/>
<path d="M108.7,85.8c0.5,0,0.9,0.1,1.3,0.4c0.3,0.3,0.5,0.7,0.5,1.1c0,0.2,0,0.4-0.1,0.6c-0.1,0.2-0.2,0.3-0.3,0.4
	c-0.2,0.1-0.4,0.2-0.6,0.3c-0.2,0.1-0.5,0.1-0.7,0.1l0,0l1.8,2.2h-0.8l-1.7-2.2h-0.6v2.2h-0.6v-5L108.7,85.8z M107.4,86.4v1.7h1.4
	c0.3,0,0.6-0.1,0.8-0.2c0.2-0.2,0.3-0.4,0.3-0.6c0-0.2-0.1-0.5-0.3-0.6c-0.3-0.1-0.5-0.2-0.8-0.2L107.4,86.4z"/>
<path d="M116.8,85.7c0.2,0,0.5,0,0.7,0.1c0.2,0.1,0.4,0.1,0.6,0.2c0.2,0.1,0.4,0.2,0.5,0.4c0.3,0.3,0.5,0.7,0.7,1.2
	c0.1,0.2,0.1,0.5,0.1,0.7c0,0.2,0,0.5-0.1,0.7c-0.1,0.2-0.1,0.4-0.3,0.6c-0.1,0.2-0.2,0.4-0.4,0.5c-0.2,0.2-0.3,0.3-0.5,0.4
	c-0.2,0.1-0.4,0.2-0.6,0.2c-0.6,0.2-1.2,0.1-1.8-0.1c-0.3-0.1-0.6-0.3-0.8-0.5c-0.2-0.2-0.4-0.5-0.5-0.8c-0.1-0.3-0.2-0.7-0.2-1
	c0-0.3,0.1-0.7,0.2-1c0.1-0.3,0.3-0.6,0.5-0.8c0.2-0.2,0.5-0.4,0.8-0.5C116.1,85.8,116.5,85.7,116.8,85.7z M116.8,86.3
	c-0.3,0-0.5,0-0.8,0.2c-0.2,0.1-0.4,0.2-0.6,0.4c-0.2,0.2-0.3,0.4-0.4,0.6c-0.1,0.3-0.1,0.5-0.1,0.8c0,0.3,0,0.6,0.1,0.8
	c0.1,0.2,0.2,0.5,0.4,0.6c0.2,0.2,0.4,0.3,0.6,0.4c0.2,0.1,0.5,0.1,0.8,0.1c0.3,0,0.5,0,0.8-0.1c0.2-0.1,0.4-0.2,0.6-0.4
	c0.2-0.2,0.3-0.4,0.4-0.6c0.1-0.3,0.2-0.5,0.2-0.8c0-0.3,0-0.6-0.2-0.8c-0.2-0.5-0.5-0.8-1-1C117.4,86.4,117.1,86.3,116.8,86.3z"/>
<rect x="102.2" y="99.7" class="st0" width="5.1" height="5.1"/>
<path d="M83.3,24.2h-3v2.3h-1.7v-6.3h4.9v1.5h-3.2v1h3L83.3,24.2z"/>
<path d="M91,26.5h-4.9v-6.3H91v1.5h-3.2v0.8h3V24h-3v0.9H91V26.5z"/>
<path d="M96.4,20.1c1.7,0,2.4,0.7,2.4,1.8c0,0.6-0.3,1.1-0.9,1.3c0.6,0.2,1,0.7,1,1.4c0,1.1-0.7,1.8-2.4,1.8h-3v-6.3H96.4z
	 M95.3,21.5v1.1h1.1c0.5,0,0.7-0.2,0.7-0.5s-0.2-0.5-0.7-0.5H95.3z M95.3,24v1.1h1.2c0.5,0,0.7-0.2,0.7-0.5S97,24,96.5,24L95.3,24z"
	/>
<path d="M106.7,22.2c0,1-0.7,1.8-1.6,1.9l1.7,2.3h-2l-1.5-2.2h-0.1v2.2h-1.7v-6.3h2.8C105.8,20.1,106.7,21,106.7,22.2z M103.1,21.7
	v1.1h1.1c0.4,0,0.7-0.2,0.7-0.6s-0.3-0.6-0.7-0.6L103.1,21.7z"/>
<path d="M114.2,26.5h-4.9v-6.3h4.9v1.5H111v0.8h3V24h-3v0.9h3.2L114.2,26.5z"/>
<path d="M122,22.2c0,1-0.7,1.8-1.6,1.9l1.7,2.3h-2l-1.5-2.2h-0.1v2.2h-1.7v-6.3h2.8C121.2,20.1,122,21,122,22.2z M118.5,21.7v1.1
	h1.1c0.4,0,0.7-0.2,0.7-0.6s-0.3-0.6-0.7-0.6L118.5,21.7z"/>
<path d="M131,23.3c0,1.8-1.5,3.3-3.3,3.4c-1.8,0-3.3-1.5-3.4-3.3c0-1.8,1.5-3.3,3.3-3.4c0,0,0,0,0,0c1.8-0.1,3.2,1.3,3.3,3
	C131,23.1,131,23.2,131,23.3z M126.1,23.3c0,0.9,0.8,1.5,1.6,1.5c0.9,0,1.5-0.8,1.5-1.6c0-0.8-0.7-1.5-1.5-1.5
	c-0.8,0-1.5,0.6-1.6,1.5C126.1,23.2,126.1,23.2,126.1,23.3L126.1,23.3z"/>
<rect y="0" class="st1" width="210" height="155"/>
<g>
	<path class="st0" d="M81.9,121.6h-1.3v-4.8L79,121h-1.3l-1.6-4.1v4.7h-1.3v-6.3h1.8l1.6,4.3l1.6-4.3h1.8V121.6z"/>
	<path class="st0" d="M90.9,121.6h-1.3l-0.5-1.5h-2.7l-0.5,1.5h-1.3l2.5-6.3h1.5L90.9,121.6z M86.7,119h1.8l-0.9-2.4L86.7,119z"/>
	<path class="st0" d="M96.2,115.3c1.5,0,2.3,0.7,2.3,1.9c0,1-0.7,1.7-1.9,1.9l1.9,2.5H97l-1.8-2.5h-0.4v2.5h-1.3v-6.3H96.2z
		 M94.8,116.4v1.5h1.4c0.7,0,1-0.3,1-0.8c0-0.5-0.4-0.8-1-0.8H94.8z"/>
	<path class="st0" d="M106,116.5h-2v5.1h-1.3v-5.1h-2v-1.2h5.2V116.5z"/>
	<path class="st0" d="M113.3,121.6h-4.7v-6.3h4.7v1.2h-3.4v1.4h3.3v1.2h-3.3v1.4h3.5V121.6z"/>
	<path class="st0" d="M120.7,116.9c-0.5-0.3-1.1-0.5-1.8-0.5c-0.7,0-1.2,0.3-1.2,0.8c0,0.5,0.5,0.6,1.3,0.7l0.4,0.1
		c1.1,0.2,2,0.7,2,1.8c0,1.4-1.2,2.1-2.6,2.1c-1,0-2-0.3-2.7-0.8l0.7-1c0.5,0.4,1.2,0.7,2,0.7c0.7,0,1.2-0.3,1.2-0.8
		c0-0.4-0.5-0.6-1.3-0.7l-0.4-0.1c-1.1-0.2-1.9-0.7-1.9-1.8c0-1.3,1.2-2,2.5-2c0.9,0,1.6,0.2,2.4,0.7L120.7,116.9z"/>
	<path class="st0" d="M127.9,116.3c0.3-0.4,1-1.1,2.2-1.1c1.3,0,2.1,0.8,2.1,2c0,0.8-0.4,1.3-0.9,1.8l-1.3,1.4h2.4v1.1h-4.2v-1
		l2.2-2.3c0.3-0.3,0.5-0.7,0.5-1.1c0-0.5-0.4-0.9-1-0.9c-0.6,0-1,0.3-1.3,0.7L127.9,116.3z"/>
	<path class="st0" d="M139.2,116.2l-2.6,5.4h-1.4l2.6-5.2h-3v-1.1h4.4V116.2z"/>
</g>
<g>
	<path d="M79.3,135.5h-4.6v-6.3H76v5.1h3.3V135.5z"/>
	<path d="M83.2,135.5H82v-6.3h1.3V135.5z"/>
	<path d="M89.8,135.5h-1.5l-2.4-6.3h1.3l1.8,5l1.8-5h1.3L89.8,135.5z"/>
	<path d="M99.4,135.5h-4.7v-6.3h4.7v1.2H96v1.4h3.3v1.2H96v1.4h3.5V135.5z"/>
	<path d="M112.4,135.5H111l-0.5-1.5h-2.7l-0.5,1.5h-1.3l2.5-6.3h1.5L112.4,135.5z M108.2,132.9h1.8l-0.9-2.4L108.2,132.9z"/>
	<path d="M121.3,132.4c0,0.8-0.2,1.4-0.6,2l0.9,1.2h-1.5l-0.3-0.4c-0.5,0.3-1.1,0.5-1.8,0.5c-1.9,0-3.3-1.4-3.3-3.3s1.4-3.3,3.3-3.3
		C119.9,129.1,121.3,130.5,121.3,132.4z M116,132.4c0,1.2,0.8,2.1,2,2.1c0.4,0,0.8-0.1,1.1-0.3l-1.1-1.5h1.5l0.4,0.6
		c0.1-0.3,0.1-0.5,0.1-0.8c0-1.2-0.8-2.1-2-2.1C116.8,130.3,116,131.1,116,132.4z"/>
	<path d="M129.6,133c0,1.7-1.1,2.6-2.7,2.6s-2.7-0.9-2.7-2.6v-3.8h1.3v3.7c0,1,0.6,1.5,1.5,1.5c0.9,0,1.5-0.5,1.5-1.5v-3.7h1.3V133z
		"/>
	<path d="M138.6,135.5h-1.3l-0.5-1.5H134l-0.5,1.5h-1.3l2.5-6.3h1.5L138.6,135.5z M134.4,132.9h1.8l-0.9-2.4L134.4,132.9z"/>
</g>
</svg>
