<svg xmlns="http://www.w3.org/2000/svg" viewBox="0 0 210 155"><defs><style>.cls-1{fill:#d9042b;}.cls-2{fill:none;}</style></defs><title>salud</title><g id="Capa_2" data-name="Capa 2"><g id="Capa_1-2" data-name="Capa 1"><path d="M108.8,49.17a2.07,2.07,0,0,1,2,.09c1.71,1.17,1.54,6,0,7.49a2,2,0,0,1-1.93.47c-.1-2.63-.09-5.35-.07-8M106,47.9c0,3.2.07,6.67,0,9.66a11.78,11.78,0,0,0,5.8.11,4.68,4.68,0,0,0,3.1-3.5c.76-3.06-.66-5.93-3.29-6.22a4.92,4.92,0,0,0-2.73.53c0-1.46,0-3.21,0-4.55h0c-.69.15-1.45.26-2.19.4a16,16,0,0,0-2.06.42v.33a4.2,4.2,0,0,1,.8.19c.65.36.61,1.62.61,2.63"/><path d="M84.24,57.22c-.9-.11-1.52-.2-1.81-.87-.51-1.14-.3-3.54-.36-5,1,.09,1.93-.08,2.47.43a2.61,2.61,0,0,1,.66,1.5h.58V48.7h-.56c-.19.78-.37,1.46-1,1.76a8,8,0,0,1-2.14.17c0-1.88,0-3.72.14-5.48,1.5,0,2.94-.14,3.85.42a4.67,4.67,0,0,1,1.67,2.61,5.46,5.46,0,0,0,.66-.19c0-1.27,0-2.55-.07-3.81H77s0,0,0,.07v.52A3.13,3.13,0,0,1,78.2,45c.69.45.71,1.79.77,3,.09,1.92,0,4.14,0,6a5.63,5.63,0,0,1-.45,2.63c-.32.46-1,.49-1.55.61v.52h7.29Z"/><path d="M102.88,57.22c-.62-.07-1.2,0-1.48-.47a3.66,3.66,0,0,1-.23-1.36,43,43,0,0,1,0-4.68c.6-.76,2.32-.54,3,0,.34-.87.68-1.76,1-2.63a2.27,2.27,0,0,0-1.22-.31A3.5,3.5,0,0,0,101.15,50c0-.75.06-1.44,0-2.21-1.44.28-2.89.55-4.32.85V49c.33.06.81.07,1,.28a2.77,2.77,0,0,1,.38,1.6c0,1.17,0,2.65,0,3.85a5.92,5.92,0,0,1-.16,1.81c-.19.49-.68.63-1.25.66v.52h6Z"/><path d="M93.63,55.25a3,3,0,0,1-.89,1.85,1.37,1.37,0,0,1-1.11.22c-.64-.15-1-.86-1.27-1.55a12.15,12.15,0,0,1-.23-5.13h0c.16-.95.5-2.1,1.55-2.19s1.52.87,1.78,1.79a12.61,12.61,0,0,1,.17,5m2,1.1a5.24,5.24,0,0,0,1.15-3.8c-.18-3-2-5-5.29-4.72h0a5,5,0,0,0-2,.54c-1.65.82-2.66,2.44-2.56,5A4.47,4.47,0,0,0,90,57.74a5.38,5.38,0,0,0,5.61-1.39"/><path d="M120.47,48.48c.72-.06,1,.67,1.21,1.34h0a8.48,8.48,0,0,1,.16,1.88c-1,0-2,.06-3,0,.14-1.31.44-3.15,1.67-3.27m-1.7,9.16a5.55,5.55,0,0,0,5.38-.82,1.61,1.61,0,0,0,.51-.66c-.11,0-.14-.24-.21-.26s-.41.23-.47.26a3.54,3.54,0,0,1-1.86.43c-2.32-.06-3.3-1.68-3.31-4.11h6c0-2.84-1.31-4.87-4.42-4.66a4.5,4.5,0,0,0-3.68,2.12,5.9,5.9,0,0,0-.64,4.67,4.73,4.73,0,0,0,2.71,3"/><path d="M129,57.08c-2,.22-2.56-1.43-3.15-2.63l-.42.11c0,.94,0,2,.07,2.87a9.36,9.36,0,0,0,4.84.4,3.15,3.15,0,0,0,2.7-2.87c.13-2-1.34-2.62-2.7-3.16-.75-.3-1.69-.67-2-1.3a1.29,1.29,0,0,1-.14-.51,1.37,1.37,0,0,1,1.27-1.48c1.63-.1,2.16,1.37,2.63,2.44a3.31,3.31,0,0,0,.42-.12c0-.84,0-1.71-.07-2.54h0a8.58,8.58,0,0,0-3.38-.49c-1.93.13-3.36,1.26-3.46,3a2.81,2.81,0,0,0,2.14,2.85c1,.4,2.17.64,2.49,1.48a1.49,1.49,0,0,1-1.24,2"/><path class="cls-1" d="M84.77,68.81a6.25,6.25,0,0,0-1.37-.68,5.18,5.18,0,0,0-1.67-.26,3.85,3.85,0,0,0-1,.13,2.51,2.51,0,0,0-.83.36,1.63,1.63,0,0,0-.54.57,1.51,1.51,0,0,0-.19.76,1.26,1.26,0,0,0,.57,1.1,3.84,3.84,0,0,0,1.75.54l1,.11a7.5,7.5,0,0,1,1.2.26,3.45,3.45,0,0,1,1,.49,2.34,2.34,0,0,1,.69.78,2.32,2.32,0,0,1,.26,1.12,2.69,2.69,0,0,1-.32,1.32,2.86,2.86,0,0,1-.86.94,3.89,3.89,0,0,1-1.27.58,6,6,0,0,1-1.54.19,6.8,6.8,0,0,1-1.1-.09,7.27,7.27,0,0,1-1.07-.26,7.2,7.2,0,0,1-1-.41,4.54,4.54,0,0,1-.81-.53l.63-.92a4.05,4.05,0,0,0,.63.42,5.36,5.36,0,0,0,.8.36,8.23,8.23,0,0,0,.92.25,5.31,5.31,0,0,0,1,.09,4.82,4.82,0,0,0,1.1-.12,3,3,0,0,0,.89-.35,1.7,1.7,0,0,0,.59-.57,1.5,1.5,0,0,0,.22-.8,1.24,1.24,0,0,0-.63-1.12,4.53,4.53,0,0,0-1.82-.53l-1-.11a5.94,5.94,0,0,1-1.19-.26,2.94,2.94,0,0,1-.94-.52,2.18,2.18,0,0,1-.62-.79,2.51,2.51,0,0,1-.22-1.1,2.76,2.76,0,0,1,.29-1.27,3,3,0,0,1,.82-.94A4.11,4.11,0,0,1,80.25,67a5.53,5.53,0,0,1,1.49-.19,6.09,6.09,0,0,1,1.08.08,6.74,6.74,0,0,1,1,.23,5.26,5.26,0,0,1,.84.34,6.61,6.61,0,0,1,.74.45Z"/><path class="cls-1" d="M97.73,77H96.49l-1.15-2.81h-5L89.21,77H88l4.14-10.08h1.44ZM90.8,73.08h4.1l-2.05-5Z"/><path class="cls-1" d="M107.86,77h-7V66.91H102v9h5.84Z"/><path class="cls-1" d="M119,73a4.43,4.43,0,0,1-.33,1.79,3.47,3.47,0,0,1-.89,1.28,3.6,3.6,0,0,1-1.32.76,5,5,0,0,1-1.62.25,5.09,5.09,0,0,1-1.62-.25,3.64,3.64,0,0,1-1.31-.76,3.59,3.59,0,0,1-.89-1.28,4.44,4.44,0,0,1-.32-1.79V66.91h1.15v6a3.54,3.54,0,0,0,.23,1.37,2.7,2.7,0,0,0,.62,1,2.38,2.38,0,0,0,1,.55,3.76,3.76,0,0,0,1.19.18,3.82,3.82,0,0,0,1.2-.18,2.45,2.45,0,0,0,1-.55,2.7,2.7,0,0,0,.62-1,3.74,3.74,0,0,0,.23-1.37v-6H119Z"/><path class="cls-1" d="M127,66.91a6.78,6.78,0,0,1,2.23.35,5,5,0,0,1,1.7,1A4.51,4.51,0,0,1,132,69.86,5.91,5.91,0,0,1,132,74a4.51,4.51,0,0,1-1.07,1.59,5,5,0,0,1-1.7,1A6.52,6.52,0,0,1,127,77H123.2V66.91ZM124.36,68v7.89H127a5.23,5.23,0,0,0,1.8-.28,3.55,3.55,0,0,0,1.31-.81,3.34,3.34,0,0,0,.79-1.24,5.15,5.15,0,0,0,0-3.23,3.38,3.38,0,0,0-.79-1.25,3.66,3.66,0,0,0-1.31-.8A5.23,5.23,0,0,0,127,68Z"/><path d="M94,87.73H91.21V90h-.64v-5h3.52v.6H91.21v1.6H94Z"/><path d="M100.4,84.85a2.78,2.78,0,0,1,1.35.34,2.53,2.53,0,0,1,.52.39,2.41,2.41,0,0,1,.65,1.15,2.89,2.89,0,0,1,0,1.43,2.41,2.41,0,0,1-1.17,1.54,2.78,2.78,0,0,1-1.35.34,2.76,2.76,0,0,1-1.05-.19,2.54,2.54,0,0,1-.82-.54,2.42,2.42,0,0,1-.55-.82,3,3,0,0,1,0-2.09,2.42,2.42,0,0,1,.55-.82,2.54,2.54,0,0,1,.82-.54A2.76,2.76,0,0,1,100.4,84.85Zm0,.61a2.11,2.11,0,0,0-.77.14A1.86,1.86,0,0,0,99,86a1.72,1.72,0,0,0-.41.63,2.09,2.09,0,0,0-.15.81,2.16,2.16,0,0,0,.15.81,1.77,1.77,0,0,0,.41.62,1.86,1.86,0,0,0,.62.41,2.11,2.11,0,0,0,.77.14,2.15,2.15,0,0,0,.77-.14,1.86,1.86,0,0,0,.62-.41,1.92,1.92,0,0,0,.41-.62,2.16,2.16,0,0,0,.15-.81,2.09,2.09,0,0,0-.15-.81,1.84,1.84,0,0,0-1-1A2.15,2.15,0,0,0,100.4,85.46Z"/><path d="M109,84.93a2.06,2.06,0,0,1,1.31.36,1.3,1.3,0,0,1,.45,1.06,1.46,1.46,0,0,1-.12.6,1.19,1.19,0,0,1-.35.45,1.65,1.65,0,0,1-.56.29,2.39,2.39,0,0,1-.73.1h0L110.78,90H110l-1.73-2.18h-.59V90H107v-5Zm-1.37.59v1.7H109a1.36,1.36,0,0,0,.84-.22.77.77,0,0,0,.28-.65.7.7,0,0,0-.28-.62,1.41,1.41,0,0,0-.84-.21Z"/><path d="M117.12,84.85a2.84,2.84,0,0,1,.72.09,2.43,2.43,0,0,1,1.8,1.79,2.89,2.89,0,0,1,0,1.43,2.46,2.46,0,0,1-1.8,1.79,2.84,2.84,0,0,1-.72.09,2.68,2.68,0,0,1-1-.19,2.48,2.48,0,0,1-.83-.54,2.54,2.54,0,0,1-.54-.82,2.83,2.83,0,0,1,0-2.09,2.54,2.54,0,0,1,.54-.82,2.48,2.48,0,0,1,.83-.54A2.68,2.68,0,0,1,117.12,84.85Zm0,.61a2.15,2.15,0,0,0-.77.14,1.84,1.84,0,0,0-1,1,2.09,2.09,0,0,0-.15.81,2.16,2.16,0,0,0,.15.81,1.92,1.92,0,0,0,.41.62,1.86,1.86,0,0,0,.62.41,2.15,2.15,0,0,0,.77.14,2.11,2.11,0,0,0,.77-.14,1.86,1.86,0,0,0,1-1,2.16,2.16,0,0,0,.15-.81,2.09,2.09,0,0,0-.15-.81,1.72,1.72,0,0,0-.41-.63,1.77,1.77,0,0,0-.62-.41A2.11,2.11,0,0,0,117.12,85.46Z"/><rect class="cls-1" x="102.46" y="98.81" width="5.1" height="5.1"/><path class="cls-1" d="M81.75,120.07h-4.4v-6.3h.79v5.55h3.61Z"/><path class="cls-1" d="M89.65,117.6a2.62,2.62,0,0,1-5.23,0v-3.83h.79v3.77a1.82,1.82,0,1,0,3.64,0v-3.77h.8Z"/><path class="cls-1" d="M98.46,120.08h-.71l-3.81-5v4.94h-.8v-6.3h.72l3.81,5v-5h.79Z"/><path class="cls-1" d="M106.52,120.07h-4.47v-6.3h4.43v.74h-3.64v2h3.52v.74h-3.52v2.06h3.68Z"/><path class="cls-1" d="M114,115a3.34,3.34,0,0,0-1.87-.58c-.92,0-1.58.42-1.58,1.1s.49.86,1.43,1l.56.07c1.06.13,2,.56,2,1.67,0,1.26-1.14,1.91-2.51,1.91a4.08,4.08,0,0,1-2.48-.82l.43-.63a3.36,3.36,0,0,0,2,.7c.94,0,1.68-.38,1.68-1.09s-.52-.87-1.51-1l-.58-.07c-1-.13-1.87-.61-1.87-1.68s1.08-1.9,2.41-1.9a3.87,3.87,0,0,1,2.27.69Z"/><path class="cls-1" d="M121.46,114.73a2.24,2.24,0,0,1,2-1,1.88,1.88,0,0,1,2,2,2.56,2.56,0,0,1-.85,1.78l-1.81,1.92h2.86v.72h-4v-.6L124,117a1.92,1.92,0,0,0,.63-1.34,1.17,1.17,0,0,0-1.25-1.24,1.6,1.6,0,0,0-1.38.77Z"/><path class="cls-1" d="M132.89,115.43a1.53,1.53,0,0,1-1.06,1.46,1.58,1.58,0,0,1,1.21,1.5c0,1.12-1.06,1.77-2.35,1.77s-2.35-.65-2.35-1.77a1.57,1.57,0,0,1,1.21-1.5,1.52,1.52,0,0,1-1.06-1.46c0-1.1,1-1.75,2.2-1.75S132.89,114.33,132.89,115.43Zm-3.75,2.91c0,.73.7,1.12,1.55,1.12s1.54-.39,1.54-1.12-.7-1.11-1.54-1.11S129.14,117.62,129.14,118.34Zm.15-2.88c0,.73.63,1.11,1.4,1.11s1.4-.38,1.4-1.11-.63-1.07-1.4-1.07S129.29,114.77,129.29,115.46Z"/><path d="M81.08,129.29a3.46,3.46,0,0,0-1.79-.53c-.71,0-1.21.28-1.21.75s.55.61,1.3.73l.36.06c1.12.18,2,.67,2,1.76,0,1.4-1.23,2.06-2.58,2.06a4.36,4.36,0,0,1-2.66-.83l.65-1a3.31,3.31,0,0,0,2,.68c.7,0,1.24-.27,1.24-.76s-.46-.6-1.34-.74l-.4-.06c-1.11-.18-1.92-.67-1.92-1.81,0-1.31,1.17-2,2.51-2a4.39,4.39,0,0,1,2.41.68Z"/><path d="M89.24,128.88H87.29V134H86v-5.13h-2V127.7h5.16Z"/><path d="M92.5,133.24a.88.88,0,1,1-.87-.87A.9.9,0,0,1,92.5,133.24Z"/><path d="M102.07,127.7c1.5,0,2.31.71,2.31,1.92a1.87,1.87,0,0,1-1.93,1.86l1.94,2.53h-1.53L101,131.5h-.37V134H99.4V127.7Zm-1.41,1.16v1.54h1.39c.68,0,1-.25,1-.78s-.38-.76-1-.76Z"/><path d="M112,134h-4.71V127.7H112v1.16h-3.42v1.39h3.26v1.15h-3.26v1.45H112Z"/><path d="M120.48,128.55l-.91.89a2,2,0,0,0-3.51,1.41,2,2,0,0,0,2,2.1,1.62,1.62,0,0,0,1.79-1.39h-1.6v-1.05h2.9c0,.12,0,.24,0,.35a3.06,3.06,0,0,1-3.08,3.26,3.27,3.27,0,1,1,2.42-5.57Z"/><path d="M125.32,134h-1.26V127.7h1.26Z"/><path d="M132.82,129.29a3.46,3.46,0,0,0-1.79-.53c-.71,0-1.21.28-1.21.75s.55.61,1.3.73l.36.06c1.13.18,2,.67,2,1.76,0,1.4-1.23,2.06-2.58,2.06a4.36,4.36,0,0,1-2.66-.83l.66-1a3.26,3.26,0,0,0,2,.68c.7,0,1.24-.27,1.24-.76s-.46-.6-1.34-.74l-.4-.06c-1.11-.18-1.92-.67-1.92-1.81,0-1.31,1.17-2,2.51-2a4.36,4.36,0,0,1,2.41.68Z"/><path d="M96.57,27.3H94.86V23.36l-1,3.36H92l-1-3.36V27.3H89.31V21h2.37l1.26,3.79L94.2,21h2.37Z"/><path d="M105.63,27.3h-1.81l-.42-1.2h-2.35l-.42,1.2H98.84l2.39-6.3h2Zm-4-2.73h1.29l-.64-1.86Z"/><path d="M110.61,24.92V27.3h-1.72V24.94L106.52,21h2l1.27,2.38L111,21h1.91Z"/><path d="M121,24.15a3.34,3.34,0,1,1-3.34-3.27A3.2,3.2,0,0,1,121,24.15Zm-4.89,0a1.56,1.56,0,1,0,1.55-1.63A1.52,1.52,0,0,0,116.06,24.15Z"/><rect class="cls-2" width="210" height="155"/></g></g></svg>