<svg xmlns="http://www.w3.org/2000/svg" viewBox="0 0 44.2 127.23"><defs><style>.cls-1{fill:#3c3c3b;}.cls-2{fill:#ffd34f;}.cls-3{fill:none;stroke:#3c3c3b;stroke-linecap:round;stroke-linejoin:round;}</style></defs><title>icono-gray</title><g id="Capa_2" data-name="Capa 2"><g id="Capa_1-2" data-name="Capa 1"><path class="cls-1" d="M27,40.52c-2.81-.34-4.72-.62-5.63-2.7-1.57-3.54-.92-11-1.1-15.54,3,.27,6-.25,7.67,1.32,1.18,1.12,1.66,2.62,2,4.67.61,0,1.41,0,1.83,0V14H30.06c-.6,2.42-1.13,4.55-3.21,5.48-1.7.76-4.43.3-6.65.51,0-5.81.1-11.56.44-17,4.66,0,9.15-.44,12,1.32s4,4.74,5.2,8.1a14.38,14.38,0,0,0,2-.58c-.07-3.94-.1-7.93-.22-11.83H4.43c-.07,0-.07.12-.07.22V1.83a9.3,9.3,0,0,1,3.87.8C10.4,4,10.46,8.2,10.64,11.83c.28,6,.08,12.86-.07,18.61-.09,3.13-.22,6.47-1.39,8.18-1,1.44-3,1.52-4.82,1.9v1.61H27Z"/><polygon class="cls-2" points="17.33 100.86 17.33 100.86 0.5 84.03 0.5 93.58 12.55 105.63 0.5 117.69 0.5 127.23 0.5 127.23 17.33 110.41 17.33 110.41 22.1 105.63 22.1 105.63 22.1 105.63 17.33 100.86"/><polygon class="cls-1" points="0.5 93.58 0.5 117.69 12.55 105.63 0.5 93.58"/><polygon class="cls-1" points="22.1 96.08 10.05 84.03 0.5 84.03 0.5 84.03 17.33 100.86 17.33 100.86 22.1 105.63 26.87 100.86 26.87 100.86 36.95 90.78 36.95 127.23 43.7 127.23 43.7 84.03 43.7 84.03 34.15 84.03 22.1 96.08"/><line class="cls-3" x1="0.5" y1="65.37" x2="43.7" y2="65.37"/></g></g></svg>