<?xml version="1.0" encoding="utf-8"?>
<!-- Generator: Adobe Illustrator 26.2.1, SVG Export Plug-In . SVG Version: 6.00 Build 0)  -->
<svg version="1.1" id="Capa_1" xmlns="http://www.w3.org/2000/svg" xmlns:xlink="http://www.w3.org/1999/xlink" x="0px" y="0px"
	 viewBox="0 0 1080 440.5" style="enable-background:new 0 0 1080 440.5;" xml:space="preserve">
<style type="text/css">
	.st0{fill:#FFFFFF;}
</style>
<g>
	<path class="st0" d="M513.2,241.7c-20.2-13.3-42-7.5-46.5-0.2c-1.5,24-1.2,60.7,0.5,79.2c1.1,12.2,4.7,17.6,14,18.8l12,0.8v8.3
		h-92.6v-8.3l6.5-0.8c9.3-1.2,12.9-6.6,14-18.8c1.8-20.1,2.1-61.9,0-85.3c-1.1-12.2-4.7-17.6-14-18.8l-6.5-0.8v-5.9l66.5-12.7
		l-0.8,34.1c15.5-35.1,46.2-39.7,63.1-29.9L513.2,241.7z M953.4,242.9l-7.6,2c-8.2-25.9-20.5-36.9-38.6-36.9
		c-12,0-20.8,8.9-20.8,21.8c0,12.8,9.8,19.6,38,30.3c26,9.9,36.4,21.3,36.4,42.1c0,31-24.2,50-63.9,50c-19.1,0-40.3-4.2-52.7-9.1
		l-1.4-42.8l7.6-2c11,30,25.2,40.9,44,40.9c16,0,24.9-11.2,24.9-23.1c0-11.6-6.7-18.5-32.2-27.5c-23.7-8.3-40.8-18.5-40.8-44.5
		c0-25.2,22.7-46.8,60.3-46.8c17.5,0,34,3,45.1,8L953.4,242.9z M740.4,257.4l46.8-1c0.2-20.3-3-49.4-19.9-49.4
		C750.3,207,740.8,234.5,740.4,257.4 M693.9,276c-0.1-40.6,26-78.6,77.5-78.6c41.8,0,61.8,30.5,62,70.3h-93.3
		c-1,36.1,17.7,62.7,53.3,62.7c15.7,0,24.2-3.8,33.7-10.9l4.4,5.2c-10.3,14.1-32,27.5-60.7,27.5C725.7,352.1,694,320.8,693.9,276
		 M321.9,206.7c-22.1,0-28.3,29.3-28.3,67.9c0,37.6,9.8,67.9,30.2,67.9c22.1,0,28.3-29.3,28.3-67.9
		C352.1,237.1,342.4,206.7,321.9,206.7 M324.5,197.2c49.9,0,74.7,33.2,74.7,77c0,42.7-28,77.8-77.9,77.8s-74.8-33.2-74.8-77
		C246.6,232.3,274.6,197.2,324.5,197.2 M268.4,200.5l-10.4,2.8c-9.1-29.8-23.6-46.6-50.6-46.6h-34.6c-1.6,19-2.2,50.6-2,83.5
		l23.3-0.8c15.5-0.5,22-11.8,25.7-28.6h8.7v69.7h-8.7c-3.7-16.7-10.3-28-25.7-28.6l-23.2-0.8c0.2,25,0.9,46.3,2,59
		c1.6,18.6,6.7,26.7,20.1,28.6l11.9,1.2v8.3H91.9v-8.3l9.3-1.2c13.4-1.9,18.5-10.1,20.1-28.6c2.6-30.6,3-94.2,0-129.7
		c-1.6-18.6-6.7-26.7-20.1-28.6l-9.3-1.2v-8.3h175.6L268.4,200.5z M597.8,341.7c-3.8,0-8.7-0.6-11.4-1.1c-1-14.1-1.7-72.1-1.6-122.9
		c6.1-2,10.3-2.5,15.6-2.5c21.9,0,34.3,24.8,34.3,56.2C634.8,311.4,619.6,341.7,597.8,341.7 M621.1,198.9c-13.8,0-24.8,3.7-36.2,9.2
		c0.1-31.9,0.5-59.7,1.3-70.2l-66.8,12.7v5.9l6.5,0.8c9.3,1.2,12.9,6.6,14,18.8c2.1,23.4,1.8,148.9,0,168.9c18,4,37.4,7,56.9,7
		c53,0,84.8-32.1,84.8-83C681.7,228.2,655.8,198.9,621.1,198.9"/>
	<path class="st0" d="M946.5,164c2.4-2.4,3.7-5.4,3.7-8.9c0-3.5-1.2-6.5-3.7-8.9c-2.4-2.4-5.4-3.6-8.9-3.6c-3.5,0-6.5,1.2-8.9,3.6
		c-2.4,2.4-3.7,5.4-3.7,8.9c0,3.5,1.2,6.5,3.7,8.9c2.5,2.4,5.4,3.6,8.9,3.6C941,167.7,944,166.5,946.5,164 M930.9,161.9
		c-1.8-1.9-2.7-4.1-2.7-6.8c0-2.7,0.9-4.9,2.7-6.8c1.8-1.9,4-2.8,6.7-2.8c2.7,0,4.9,0.9,6.7,2.8c1.8,1.9,2.7,4.1,2.7,6.8
		c0,2.7-0.9,4.9-2.7,6.8c-1.8,1.9-4,2.8-6.7,2.8C934.9,164.7,932.7,163.7,930.9,161.9 M917.9,166.1c1.9-1.1,3.4-2.5,4.5-4.3
		l-2.7-1.6c-0.9,1.4-2,2.5-3.4,3.3c-1.4,0.8-3,1.2-4.7,1.2c-2.7,0-4.9-0.9-6.7-2.8c-1.8-1.9-2.7-4.1-2.7-6.8c0-2.7,0.9-4.9,2.7-6.8
		c1.8-1.9,4-2.8,6.7-2.8c1.7,0,3.3,0.4,4.7,1.2c1.4,0.8,2.5,1.9,3.4,3.3l2.7-1.6c-1.1-1.8-2.6-3.3-4.5-4.3c-1.9-1.1-4-1.6-6.3-1.6
		c-3.5,0-6.5,1.2-8.9,3.6s-3.7,5.4-3.7,8.9s1.2,6.5,3.7,8.9c2.4,2.4,5.4,3.6,8.9,3.6C914,167.7,916,167.2,917.9,166.1 M894.3,142.9
		h-3.2v24.4h3.2V142.9z M876.4,157.5l7.5,9.7h3.9l-9.4-12.3l9-12h-3.8l-7.2,9.5l-7.2-9.5h-3.8l9,12l-9.4,12.3h3.9L876.4,157.5z
		 M857.6,140.9l3.9-5.4h-3.7l-2.7,5.4H857.6z M863.2,167.3v-3h-11v-7.9h9v-3h-9v-7.4h11v-3H849v24.4H863.2z M818.6,167.3h3.2v-18.9
		l8.8,11.8l8.8-11.8v18.9h3.2v-24.4h-2.9l-9.1,12.1l-9-12.1h-2.9V167.3z"/>
</g>
<g>
	<path class="st0" d="M96,77.5V94h21v2.5H96v17h-2.9V75h26.3v2.5H96z"/>
	<path class="st0" d="M140.1,111.2c-3.1-1.7-5.6-4.1-7.3-7c-1.8-3-2.7-6.3-2.7-10s0.9-7,2.7-10s4.2-5.3,7.3-7s6.6-2.6,10.5-2.6
		s7.4,0.8,10.5,2.5c3.1,1.7,5.6,4,7.3,7s2.7,6.3,2.7,10c0,3.7-0.9,7-2.7,10s-4.2,5.3-7.3,7c-3.1,1.7-6.6,2.5-10.5,2.5
		C146.6,113.8,143.2,112.9,140.1,111.2z M159.5,109c2.7-1.5,4.8-3.5,6.3-6.1s2.3-5.5,2.3-8.7c0-3.2-0.8-6.1-2.3-8.7
		s-3.6-4.6-6.3-6.1s-5.6-2.2-8.9-2.2c-3.3,0-6.3,0.7-9,2.2c-2.7,1.5-4.8,3.5-6.3,6.1c-1.5,2.6-2.3,5.5-2.3,8.7
		c0,3.2,0.8,6.1,2.3,8.7s3.6,4.6,6.3,6.1c2.7,1.5,5.7,2.2,9,2.2C153.8,111.2,156.8,110.5,159.5,109z"/>
	<path class="st0" d="M213.5,113.5l-9.4-12.9c-1.4,0.2-2.7,0.3-3.8,0.3H189v12.6h-2.9V75h14.1c4.9,0,8.8,1.2,11.6,3.4
		c2.8,2.3,4.2,5.5,4.2,9.6c0,3.1-0.8,5.6-2.4,7.7s-3.9,3.5-6.8,4.4l9.9,13.5C216.8,113.5,213.5,113.5,213.5,113.5z M200.2,98.4
		c4.2,0,7.4-0.9,9.6-2.7c2.2-1.8,3.3-4.4,3.3-7.7s-1.1-5.9-3.3-7.7c-2.2-1.8-5.4-2.7-9.6-2.7H189v20.9L200.2,98.4L200.2,98.4z"/>
	<path class="st0" d="M238.1,111.2c-3.1-1.7-5.6-4.1-7.3-7c-1.8-3-2.7-6.3-2.7-10s0.9-7,2.7-10s4.2-5.3,7.3-7s6.6-2.6,10.5-2.6
		s7.4,0.8,10.5,2.5c3.1,1.7,5.6,4,7.3,7s2.7,6.3,2.7,10c0,3.7-0.9,7-2.7,10s-4.2,5.3-7.3,7c-3.1,1.7-6.6,2.5-10.5,2.5
		C244.7,113.8,241.2,112.9,238.1,111.2z M257.5,109c2.7-1.5,4.8-3.5,6.3-6.1c1.5-2.6,2.3-5.5,2.3-8.7c0-3.2-0.8-6.1-2.3-8.7
		s-3.6-4.6-6.3-6.1c-2.7-1.5-5.6-2.2-8.9-2.2c-3.3,0-6.3,0.7-9,2.2c-2.7,1.5-4.8,3.5-6.3,6.1c-1.5,2.6-2.3,5.5-2.3,8.7
		c0,3.2,0.8,6.1,2.3,8.7s3.6,4.6,6.3,6.1c2.7,1.5,5.7,2.2,9,2.2S254.8,110.5,257.5,109z"/>
</g>
</svg>
