<svg xmlns="http://www.w3.org/2000/svg" viewBox="0 0 210 155"><defs><style>.cls-1{fill:#70669c;}.cls-2{fill:#9692c8;}.cls-3{fill:#8a75aa;}.cls-4{fill:none;}</style></defs><title>mujerespoderosas</title><g id="Capa_2" data-name="Capa 2"><g id="Capa_1-2" data-name="Capa 1"><path d="M108.52,49.16a2.1,2.1,0,0,1,2,.1c1.71,1.16,1.54,6,0,7.49a2,2,0,0,1-1.93.47c-.1-2.63-.09-5.35-.07-8.06m-2.84-1.26c0,3.2.07,6.67,0,9.65a11.78,11.78,0,0,0,5.8.12,4.68,4.68,0,0,0,3.1-3.5c.76-3.06-.66-5.93-3.29-6.22a4.92,4.92,0,0,0-2.73.53c0-1.46,0-3.21,0-4.56h0c-.69.15-1.45.27-2.19.41a16,16,0,0,0-2.06.42v.33a4.2,4.2,0,0,1,.8.19c.65.36.61,1.62.61,2.63"/><path d="M84,57.22c-.9-.11-1.52-.2-1.81-.87-.51-1.14-.3-3.54-.36-5,1,.09,1.93-.08,2.47.42a2.67,2.67,0,0,1,.66,1.51h.58V48.7h-.56c-.19.77-.37,1.46-1,1.76a8,8,0,0,1-2.14.16c0-1.87,0-3.71.14-5.47,1.5,0,2.94-.15,3.85.42a4.6,4.6,0,0,1,1.67,2.61,5.46,5.46,0,0,0,.66-.19c0-1.27,0-2.55-.07-3.81H76.69s0,0,0,.07v.52a3.13,3.13,0,0,1,1.25.26c.69.45.71,1.79.77,3,.09,1.92,0,4.14,0,6a5.65,5.65,0,0,1-.45,2.63c-.32.46-1,.49-1.55.61v.52H84Z"/><path d="M102.6,57.22c-.62-.07-1.2,0-1.48-.47a3.66,3.66,0,0,1-.23-1.36,43,43,0,0,1,0-4.68c.6-.76,2.32-.54,3,0,.34-.87.68-1.76,1-2.63a2.18,2.18,0,0,0-1.22-.31A3.48,3.48,0,0,0,100.87,50c0-.75.06-1.44,0-2.21-1.44.28-2.89.55-4.32.85V49c.33.06.81.07,1,.28A2.77,2.77,0,0,1,98,50.9c0,1.17,0,2.65,0,3.85a5.92,5.92,0,0,1-.16,1.81c-.19.49-.68.63-1.25.66v.52h6Z"/><path d="M93.35,55.25a3,3,0,0,1-.89,1.85,1.33,1.33,0,0,1-1.11.21c-.64-.14-1-.86-1.27-1.55a12.26,12.26,0,0,1-.23-5.12h0c.16-.94.5-2.1,1.55-2.18s1.52.87,1.79,1.78a12.86,12.86,0,0,1,.16,5m2,1.1a5.21,5.21,0,0,0,1.15-3.8c-.18-3-2-5-5.29-4.73h0a5.12,5.12,0,0,0-2,.53c-1.65.83-2.66,2.45-2.56,5a4.47,4.47,0,0,0,3.08,4.42,5.38,5.38,0,0,0,5.61-1.39"/><path d="M120.19,48.48c.72-.07,1,.67,1.21,1.34h0a8.48,8.48,0,0,1,.16,1.88c-1,0-2,.06-3,0,.14-1.31.44-3.15,1.67-3.27m-1.7,9.16a5.55,5.55,0,0,0,5.38-.82,1.68,1.68,0,0,0,.51-.66c-.11,0-.14-.24-.21-.26s-.41.23-.47.26a3.54,3.54,0,0,1-1.86.43c-2.32-.07-3.3-1.69-3.31-4.11h6c0-2.83-1.31-4.86-4.42-4.65a4.48,4.48,0,0,0-3.68,2.12,5.9,5.9,0,0,0-.64,4.67,4.73,4.73,0,0,0,2.71,3"/><path d="M128.75,57.08c-2,.22-2.56-1.43-3.15-2.63l-.42.11c0,.94,0,2,.07,2.87a9.37,9.37,0,0,0,4.84.4,3.15,3.15,0,0,0,2.7-2.87c.13-2-1.34-2.62-2.7-3.17-.75-.29-1.69-.66-2-1.29A1.34,1.34,0,0,1,128,50a1.37,1.37,0,0,1,1.27-1.47c1.63-.1,2.16,1.37,2.63,2.44a3.31,3.31,0,0,0,.42-.12c0-.84,0-1.71-.07-2.54h0a8.58,8.58,0,0,0-3.38-.49c-1.93.13-3.36,1.26-3.46,3s1.06,2.4,2.14,2.84,2.17.65,2.49,1.48a1.49,1.49,0,0,1-1.24,2"/><path class="cls-1" d="M20.43,77H19.27V68.2l-3.51,7.67H14.54L11,68.26V77H9.88V66.91h1.75l3.53,7.62,3.51-7.62h1.76Z"/><path class="cls-1" d="M32.94,73a4.71,4.71,0,0,1-.32,1.8,3.77,3.77,0,0,1-.89,1.27,3.73,3.73,0,0,1-1.33.76,5.34,5.34,0,0,1-3.23,0,3.6,3.6,0,0,1-1.32-.76A3.64,3.64,0,0,1,25,74.84a4.71,4.71,0,0,1-.32-1.8V66.91h1.15v6A3.72,3.72,0,0,0,26,74.32a2.44,2.44,0,0,0,1.57,1.52,4.06,4.06,0,0,0,2.39,0,2.52,2.52,0,0,0,.95-.56,2.61,2.61,0,0,0,.62-1A3.72,3.72,0,0,0,31.78,73v-6h1.16Z"/><path class="cls-1" d="M42.53,73.4A4.38,4.38,0,0,1,42.26,75a3.32,3.32,0,0,1-.73,1.17,3,3,0,0,1-1.11.72,3.94,3.94,0,0,1-1.39.24A4.61,4.61,0,0,1,37.94,77a4.53,4.53,0,0,1-.86-.33,3.43,3.43,0,0,1-.67-.46,5.68,5.68,0,0,1-.49-.5l.78-.8a3.29,3.29,0,0,0,.41.43,2.78,2.78,0,0,0,.52.35,2.94,2.94,0,0,0,.63.24A3.1,3.1,0,0,0,39,76a2.49,2.49,0,0,0,1-.18,1.85,1.85,0,0,0,.75-.52,2.27,2.27,0,0,0,.48-.85,3.88,3.88,0,0,0,.17-1.19V66.91h1.15Z"/><path class="cls-1" d="M53.9,77H46.81V66.91h7V68H48v3.38h5.68v1.08H48V75.9H53.9Z"/><path class="cls-1" d="M61.9,66.91a5.33,5.33,0,0,1,1.51.19,3,3,0,0,1,1.11.55,2.36,2.36,0,0,1,.67.89,2.9,2.9,0,0,1,.24,1.21,2.8,2.8,0,0,1-.25,1.18,2.55,2.55,0,0,1-.7.9,3.15,3.15,0,0,1-1.11.57,4.67,4.67,0,0,1-1.45.2h-.17L65.38,77H63.94L60.39,72.6H59.11V77H58V66.91ZM59.11,68v3.56h2.78a2.81,2.81,0,0,0,1.75-.46,1.59,1.59,0,0,0,.58-1.34,1.57,1.57,0,0,0-.59-1.32A2.94,2.94,0,0,0,61.89,68Z"/><path class="cls-1" d="M76.21,77H69.12V66.91h7V68H70.28v3.38H76v1.08H70.28V75.9h5.93Z"/><path class="cls-1" d="M86.83,68.82a5.48,5.48,0,0,0-1.37-.68,4.92,4.92,0,0,0-1.67-.27,3.87,3.87,0,0,0-1.05.13,2.55,2.55,0,0,0-.82.36,1.72,1.72,0,0,0-.54.57,1.51,1.51,0,0,0-.19.76,1.29,1.29,0,0,0,.57,1.11,3.93,3.93,0,0,0,1.75.53l1,.11a7.38,7.38,0,0,1,1.19.26,3.33,3.33,0,0,1,1,.49,2.49,2.49,0,0,1,.7.78,2.32,2.32,0,0,1,.26,1.12,2.69,2.69,0,0,1-.32,1.32,2.86,2.86,0,0,1-.86.94,3.89,3.89,0,0,1-1.27.58,6,6,0,0,1-1.54.19A7,7,0,0,1,82.52,77a7.46,7.46,0,0,1-1.06-.26,6.12,6.12,0,0,1-1-.41,4.05,4.05,0,0,1-.81-.53l.63-.92a3.13,3.13,0,0,0,.63.42,4.51,4.51,0,0,0,.8.36,8.23,8.23,0,0,0,.92.25,5.23,5.23,0,0,0,1,.09,4.73,4.73,0,0,0,1.09-.12,2.85,2.85,0,0,0,.89-.35,1.82,1.82,0,0,0,.6-.57,1.49,1.49,0,0,0,.21-.8,1.23,1.23,0,0,0-.62-1.12A4.44,4.44,0,0,0,84,72.55l-1-.12a5.79,5.79,0,0,1-1.19-.26,2.94,2.94,0,0,1-.94-.52,2.08,2.08,0,0,1-.62-.79A2.5,2.5,0,0,1,80,69.77a2.66,2.66,0,0,1,.3-1.28,2.71,2.71,0,0,1,.82-.93A3.58,3.58,0,0,1,82.31,67a5.16,5.16,0,0,1,1.49-.2,7.41,7.41,0,0,1,1.08.08,6.74,6.74,0,0,1,1,.23,5.67,5.67,0,0,1,.84.34,7.66,7.66,0,0,1,.74.45Z"/><path class="cls-2" d="M97.87,72.93V77H96.71V66.91h3.81a5.36,5.36,0,0,1,1.51.2,3.16,3.16,0,0,1,1.12.6,2.56,2.56,0,0,1,.7,1,3.59,3.59,0,0,1,0,2.53,2.64,2.64,0,0,1-.7,1,3.31,3.31,0,0,1-1.12.59,5,5,0,0,1-1.51.2Zm0-4.93v3.85h2.61a2.85,2.85,0,0,0,1.79-.48,2,2,0,0,0,0-2.89,2.85,2.85,0,0,0-1.79-.48Z"/><path class="cls-2" d="M112.35,66.76a5.46,5.46,0,0,1,2.08.39,5,5,0,0,1,1.64,1.07,4.86,4.86,0,0,1,1.09,1.64,5.8,5.8,0,0,1,0,4.18,4.72,4.72,0,0,1-1.09,1.63,5,5,0,0,1-1.64,1.08,5.88,5.88,0,0,1-4.16,0,4.92,4.92,0,0,1-1.65-1.08A5,5,0,0,1,107.53,74a5.8,5.8,0,0,1,0-4.18,5.17,5.17,0,0,1,1.09-1.64,4.9,4.9,0,0,1,1.65-1.07A5.46,5.46,0,0,1,112.35,66.76Zm0,1.12a4.12,4.12,0,0,0-1.58.3,3.71,3.71,0,0,0-1.26.82,4,4,0,0,0-.85,1.29,4.74,4.74,0,0,0,0,3.32,3.82,3.82,0,0,0,.85,1.28,3.74,3.74,0,0,0,1.26.83,4.31,4.31,0,0,0,3.16,0,3.78,3.78,0,0,0,1.27-.83,4,4,0,0,0,.84-1.28,4.74,4.74,0,0,0,0-3.32A4.11,4.11,0,0,0,115.2,69a3.76,3.76,0,0,0-1.27-.82A4.15,4.15,0,0,0,112.35,67.88Z"/><path class="cls-2" d="M125.11,66.91a6.82,6.82,0,0,1,2.23.35,4.87,4.87,0,0,1,1.69,1,4.4,4.4,0,0,1,1.08,1.58,5.59,5.59,0,0,1,.37,2.09,5.51,5.51,0,0,1-.37,2.08A4.53,4.53,0,0,1,129,75.62a4.85,4.85,0,0,1-1.69,1,6.56,6.56,0,0,1-2.23.36h-3.8V66.91ZM122.47,68v7.89h2.64a5.23,5.23,0,0,0,1.8-.28,3.62,3.62,0,0,0,1.3-.8,3.38,3.38,0,0,0,.79-1.25,5,5,0,0,0,0-3.23,3.38,3.38,0,0,0-.79-1.25,3.62,3.62,0,0,0-1.3-.8,5.49,5.49,0,0,0-1.8-.28Z"/><path class="cls-2" d="M141.34,77h-7.1V66.91h7V68H135.4v3.38h5.69v1.08H135.4V75.9h5.94Z"/><path class="cls-2" d="M149.34,66.91a5.33,5.33,0,0,1,1.51.19,2.92,2.92,0,0,1,1.1.55,2.28,2.28,0,0,1,.68.89,2.9,2.9,0,0,1,.23,1.21,2.8,2.8,0,0,1-.24,1.18,2.67,2.67,0,0,1-.7.9,3.24,3.24,0,0,1-1.11.57,4.71,4.71,0,0,1-1.45.2h-.17L152.81,77h-1.44l-3.55-4.39h-1.27V77h-1.16V66.91ZM146.55,68v3.56h2.78a2.76,2.76,0,0,0,1.74-.46,1.59,1.59,0,0,0,.59-1.34,1.55,1.55,0,0,0-.6-1.32,2.9,2.9,0,0,0-1.73-.44Z"/><path class="cls-2" d="M161.18,66.76a5.46,5.46,0,0,1,2.08.39,5,5,0,0,1,1.64,1.07A4.86,4.86,0,0,1,166,69.86,5.8,5.8,0,0,1,166,74a4.72,4.72,0,0,1-1.09,1.63,5,5,0,0,1-1.64,1.08,5.88,5.88,0,0,1-4.16,0,4.92,4.92,0,0,1-1.65-1.08A5,5,0,0,1,156.36,74a5.8,5.8,0,0,1,0-4.18,5.17,5.17,0,0,1,1.09-1.64,4.9,4.9,0,0,1,1.65-1.07A5.46,5.46,0,0,1,161.18,66.76Zm0,1.12a4.12,4.12,0,0,0-1.58.3,3.71,3.71,0,0,0-1.26.82,4,4,0,0,0-.85,1.29,4.74,4.74,0,0,0,0,3.32,3.82,3.82,0,0,0,.85,1.28,3.74,3.74,0,0,0,1.26.83,4.31,4.31,0,0,0,3.16,0,3.78,3.78,0,0,0,1.27-.83,4,4,0,0,0,.84-1.28,4.74,4.74,0,0,0,0-3.32A4.11,4.11,0,0,0,164,69a3.76,3.76,0,0,0-1.27-.82A4.15,4.15,0,0,0,161.18,67.88Z"/><path class="cls-2" d="M176.72,68.82a5.48,5.48,0,0,0-1.37-.68,4.9,4.9,0,0,0-1.66-.27,3.87,3.87,0,0,0-1.05.13,2.51,2.51,0,0,0-.83.36,1.72,1.72,0,0,0-.54.57,1.51,1.51,0,0,0-.19.76,1.29,1.29,0,0,0,.57,1.11,4,4,0,0,0,1.75.53l1,.11a7.5,7.5,0,0,1,1.2.26,3.45,3.45,0,0,1,1,.49,2.34,2.34,0,0,1,.69.78,2.32,2.32,0,0,1,.26,1.12,2.69,2.69,0,0,1-.32,1.32,2.86,2.86,0,0,1-.86.94,3.89,3.89,0,0,1-1.27.58,6,6,0,0,1-1.54.19,6.8,6.8,0,0,1-1.1-.09,7.27,7.27,0,0,1-1.07-.26,6.53,6.53,0,0,1-1-.41,4.36,4.36,0,0,1-.81-.53l.63-.92a3.45,3.45,0,0,0,.63.42,4.51,4.51,0,0,0,.8.36,8.23,8.23,0,0,0,.92.25,5.31,5.31,0,0,0,1,.09,4.82,4.82,0,0,0,1.1-.12,3,3,0,0,0,.89-.35,1.7,1.7,0,0,0,.59-.57,1.5,1.5,0,0,0,.22-.8,1.24,1.24,0,0,0-.63-1.12,4.39,4.39,0,0,0-1.82-.52l-1-.12a5.94,5.94,0,0,1-1.19-.26,3,3,0,0,1-.94-.52,2.18,2.18,0,0,1-.62-.79,2.5,2.5,0,0,1-.22-1.09,2.77,2.77,0,0,1,.29-1.28,2.81,2.81,0,0,1,.82-.93,3.63,3.63,0,0,1,1.22-.58,5,5,0,0,1,1.48-.2,7.44,7.44,0,0,1,1.09.08,6.94,6.94,0,0,1,.95.23,5.26,5.26,0,0,1,.84.34,6.61,6.61,0,0,1,.74.45Z"/><path class="cls-2" d="M189.68,77h-1.24l-1.15-2.81h-5L181.17,77H180l4.14-10.08h1.44Zm-6.93-3.9h4.1l-2-5Z"/><path class="cls-2" d="M199.34,68.82a5.65,5.65,0,0,0-1.37-.68,4.92,4.92,0,0,0-1.67-.27,3.87,3.87,0,0,0-1.05.13,2.46,2.46,0,0,0-.82.36,1.72,1.72,0,0,0-.54.57,1.51,1.51,0,0,0-.2.76,1.28,1.28,0,0,0,.58,1.11,3.93,3.93,0,0,0,1.75.53l1,.11a7.62,7.62,0,0,1,1.19.26,3.45,3.45,0,0,1,1,.49,2.34,2.34,0,0,1,.69.78,2.21,2.21,0,0,1,.26,1.12,2.68,2.68,0,0,1-.31,1.32,2.89,2.89,0,0,1-.87.94,3.8,3.8,0,0,1-1.27.58,5.85,5.85,0,0,1-1.54.19A6.89,6.89,0,0,1,195,77a7.59,7.59,0,0,1-1.07-.26,6,6,0,0,1-1-.41,4.45,4.45,0,0,1-.82-.53l.64-.92a3.35,3.35,0,0,0,.62.42,5,5,0,0,0,.81.36,8.06,8.06,0,0,0,.91.25,5.41,5.41,0,0,0,1,.09,4.73,4.73,0,0,0,1.09-.12,2.85,2.85,0,0,0,.89-.35,1.7,1.7,0,0,0,.59-.57,1.41,1.41,0,0,0,.22-.8,1.25,1.25,0,0,0-.62-1.12,4.44,4.44,0,0,0-1.82-.52l-1-.12a5.94,5.94,0,0,1-1.19-.26,3.17,3.17,0,0,1-.94-.52,2.29,2.29,0,0,1-.62-.79,2.5,2.5,0,0,1-.22-1.09,2.66,2.66,0,0,1,.3-1.28,2.71,2.71,0,0,1,.82-.93,3.58,3.58,0,0,1,1.21-.58,5.11,5.11,0,0,1,1.49-.2,7.41,7.41,0,0,1,1.08.08,6.29,6.29,0,0,1,1,.23,5.79,5.79,0,0,1,.85.34,7.66,7.66,0,0,1,.74.45Z"/><path d="M93.66,87.73H90.92V90h-.63v-5h3.52v.6H90.92v1.6h2.74Z"/><path d="M100.13,84.85a2.71,2.71,0,0,1,.71.09,2.51,2.51,0,0,1,.63.25,2.59,2.59,0,0,1,.53.39,2.88,2.88,0,0,1,.4.52,3.18,3.18,0,0,1,.25.63,2.78,2.78,0,0,1,.09.72,2.71,2.71,0,0,1-.09.71,3,3,0,0,1-.25.63,2.57,2.57,0,0,1-.4.52,2.27,2.27,0,0,1-.53.39,2.18,2.18,0,0,1-.63.25,2.71,2.71,0,0,1-.71.09,2.76,2.76,0,0,1-1-.19,2.59,2.59,0,0,1-.83-.54,2.44,2.44,0,0,1-.54-.82,3,3,0,0,1,0-2.09,2.54,2.54,0,0,1,.54-.82,2.59,2.59,0,0,1,.83-.54A2.76,2.76,0,0,1,100.13,84.85Zm0,.61a2.21,2.21,0,0,0-.78.14,1.82,1.82,0,0,0-.61.41,1.6,1.6,0,0,0-.41.63,2.09,2.09,0,0,0-.15.81,2.16,2.16,0,0,0,.15.81,1.64,1.64,0,0,0,.41.62,1.82,1.82,0,0,0,.61.41,2.22,2.22,0,0,0,1.55,0,2,2,0,0,0,.62-.41,1.92,1.92,0,0,0,.41-.62,2.38,2.38,0,0,0,.14-.81,2.29,2.29,0,0,0-.14-.81,1.86,1.86,0,0,0-.41-.63,2,2,0,0,0-.62-.41A2.19,2.19,0,0,0,100.13,85.46Z"/><path d="M108.77,84.93a2,2,0,0,1,1.31.37,1.29,1.29,0,0,1,.45,1.06,1.45,1.45,0,0,1-.12.59,1.13,1.13,0,0,1-.36.45,1.52,1.52,0,0,1-.55.29,2.39,2.39,0,0,1-.73.1h0L110.5,90h-.78L108,87.79h-.59V90h-.64v-5Zm-1.37.59v1.7h1.35a1.4,1.4,0,0,0,.84-.22.76.76,0,0,0,.28-.64.72.72,0,0,0-.28-.63,1.41,1.41,0,0,0-.84-.21Z"/><path d="M116.85,84.85a2.71,2.71,0,0,1,.71.09,2.75,2.75,0,0,1,.64.25,2.83,2.83,0,0,1,.52.39,2.49,2.49,0,0,1,.4.52,2.67,2.67,0,0,1,.25.63,2.78,2.78,0,0,1,.09.72,2.71,2.71,0,0,1-.09.71,2.51,2.51,0,0,1-.25.63,2.25,2.25,0,0,1-.4.52,2.44,2.44,0,0,1-.52.39,2.37,2.37,0,0,1-.64.25,2.71,2.71,0,0,1-.71.09,2.76,2.76,0,0,1-1-.19,2.44,2.44,0,0,1-.82-.54,2.32,2.32,0,0,1-.55-.82,3,3,0,0,1,0-2.09A2.49,2.49,0,0,1,115.8,85,2.76,2.76,0,0,1,116.85,84.85Zm0,.61a2.21,2.21,0,0,0-.78.14,1.82,1.82,0,0,0-.61.41,1.72,1.72,0,0,0-.41.63,2.09,2.09,0,0,0-.15.81,2.16,2.16,0,0,0,.15.81,1.77,1.77,0,0,0,.41.62,1.82,1.82,0,0,0,.61.41,2.22,2.22,0,0,0,1.55,0,2,2,0,0,0,.62-.41,1.92,1.92,0,0,0,.41-.62,2.16,2.16,0,0,0,.14-.81,2.09,2.09,0,0,0-.14-.81,1.86,1.86,0,0,0-.41-.63,2,2,0,0,0-.62-.41A2.19,2.19,0,0,0,116.85,85.46Z"/><rect class="cls-3" x="102.18" y="98.81" width="5.1" height="5.1"/><path class="cls-3" d="M80.09,120.07H79.3v-5.42l-2.11,4.74h-.84l-2.11-4.7v5.38h-.79v-6.3h1.21l2.11,4.7,2.11-4.7h1.21Z"/><path class="cls-3" d="M89.06,120.07h-.85l-.69-1.72H84.46l-.69,1.72H83l2.56-6.3h1Zm-4.3-2.47h2.45l-1.22-3Z"/><path class="cls-3" d="M94.41,113.77c1.43,0,2.21.64,2.21,1.79s-.85,1.79-2.2,1.79h0l2.22,2.72h-1l-2.17-2.72H92.7v2.72h-.79v-6.3Zm-1.71.74v2.12h1.7c.92,0,1.4-.37,1.4-1.07s-.49-1-1.4-1Z"/><path class="cls-3" d="M104.19,114.52H102v5.55h-.79v-5.55H99.09v-.75h5.1Z"/><path class="cls-3" d="M111.52,120.07h-4.47v-6.3h4.43v.74h-3.64v2h3.52v.74h-3.52v2.06h3.68Z"/><path class="cls-3" d="M119,115a3.34,3.34,0,0,0-1.87-.58c-.92,0-1.58.42-1.58,1.1s.49.86,1.43,1l.56.07c1.06.13,2,.56,2,1.67,0,1.26-1.14,1.91-2.51,1.91a4.08,4.08,0,0,1-2.48-.82l.43-.63a3.36,3.36,0,0,0,2,.7c.94,0,1.68-.38,1.68-1.09s-.52-.87-1.51-1l-.58-.07c-1-.13-1.87-.61-1.87-1.68s1.08-1.9,2.41-1.9a3.87,3.87,0,0,1,2.27.69Z"/><path class="cls-3" d="M129.09,120.07h-1.22v-4.69l-1.51.61v-1.22l2.73-1.1Z"/><path class="cls-3" d="M134.38,117.88l-.28,0a2.08,2.08,0,0,1-2.19-2.09,2.38,2.38,0,0,1,4.74,0,3,3,0,0,1-.6,1.68l-1.75,2.61h-1.47Zm1-2.08a1.1,1.1,0,1,0-1.1,1A1,1,0,0,0,135.38,115.8Z"/><path d="M57.77,134H56.25L54.9,129.5,53.54,134H52l-1.88-6.31h1.31l1.35,4.84,1.41-4.84H55.6L57,132.54l1.36-4.84h1.28Z"/><path d="M67,134H62.31V127.7H67v1.16H63.57v1.39h3.26v1.15H63.57v1.45H67Z"/><path d="M74.37,129.29a3.46,3.46,0,0,0-1.79-.53c-.71,0-1.21.28-1.21.75s.55.61,1.3.73l.36.06c1.12.19,2,.67,2,1.77,0,1.39-1.23,2.05-2.58,2.05a4.36,4.36,0,0,1-2.66-.83l.65-1a3.31,3.31,0,0,0,2,.68c.7,0,1.24-.27,1.24-.76s-.46-.6-1.34-.74l-.4-.06c-1.11-.18-1.92-.67-1.92-1.81,0-1.31,1.17-2,2.51-2a4.35,4.35,0,0,1,2.41.67Z"/><path d="M82.53,128.88h-2V134H79.32v-5.13H77.37V127.7h5.16Z"/><path d="M86.44,134H85.18V127.7h1.26Z"/><path d="M95.3,134H94.12l-3.2-4.21V134H89.66V127.7h1.18l3.2,4.21V127.7H95.3Z"/><path d="M106.82,129.29a3.43,3.43,0,0,0-1.79-.53c-.7,0-1.2.28-1.2.75s.54.61,1.3.73l.35.06c1.13.19,2,.67,2,1.77,0,1.39-1.22,2.05-2.58,2.05a4.33,4.33,0,0,1-2.65-.83l.65-1a3.29,3.29,0,0,0,2,.68c.69,0,1.23-.27,1.23-.76s-.46-.6-1.33-.74l-.4-.06c-1.11-.18-1.93-.67-1.93-1.81,0-1.31,1.18-2,2.52-2a4.34,4.34,0,0,1,2.4.67Z"/><path d="M116.1,134h-1.35l-.55-1.47h-2.68L111,134h-1.31l2.45-6.31h1.53ZM112,131.38h1.82l-.91-2.43Z"/><path d="M124.33,134h-1.18L120,129.8V134h-1.26V127.7h1.18l3.2,4.21V127.7h1.26Z"/><path d="M132.15,128.88h-2V134h-1.26v-5.13h-2V127.7h5.16Z"/><path d="M140.06,134h-1.34l-.55-1.47h-2.69l-.55,1.47h-1.31l2.45-6.31h1.53Zm-4.15-2.63h1.82l-.9-2.43Z"/><path d="M151,131.45h-3.16V134h-1.25V127.7h4.63v1.16h-3.38v1.44H151Z"/><path d="M158.84,134h-4.71V127.7h4.67v1.16h-3.42v1.39h3.26v1.15h-3.26v1.45h3.46Z"/><path d="M91.67,24.87a2.24,2.24,0,0,1-2.38,2.55,2.92,2.92,0,0,1-2-.7l.83-1.33a1.54,1.54,0,0,0,1,.39c.52,0,.83-.28.83-1.05V21h1.71Z"/><path d="M99.87,24.73a2.79,2.79,0,0,1-5.58,0V21H96v3.68a1.08,1.08,0,1,0,2.15,0V21h1.71Z"/><path d="M108.5,27.3h-1.67l-2.59-3.54V27.3h-1.71V21h1.66l2.6,3.54V21h1.71Z"/><path d="M112.9,27.3h-1.71V21h1.71Z"/><path d="M122,24.15a3.34,3.34,0,1,1-3.33-3.27A3.19,3.19,0,0,1,122,24.15Zm-4.89,0a1.56,1.56,0,1,0,1.56-1.63A1.53,1.53,0,0,0,117.14,24.15Z"/><rect class="cls-4" width="210" height="155"/></g></g></svg>