<?xml version="1.0" encoding="utf-8"?>
<!-- Generator: Adobe Illustrator 22.1.0, SVG Export Plug-In . SVG Version: 6.00 Build 0)  -->
<svg version="1.1" id="Capa_1" xmlns="http://www.w3.org/2000/svg" xmlns:xlink="http://www.w3.org/1999/xlink" x="0px" y="0px"
	 viewBox="0 0 210 155" style="enable-background:new 0 0 210 155;" xml:space="preserve">
<style type="text/css">
	.st0{fill:#575756;}
	.st1{fill:none;stroke:#575756;}
	.st2{fill:none;}
</style>
<title>gamechangers</title>
<path d="M108.8,49.2c0.6-0.3,1.4-0.3,2,0.1c1.7,1.2,1.5,6,0,7.5c-0.5,0.5-1.2,0.7-1.9,0.5C108.8,54.6,108.8,51.9,108.8,49.2 M106,48
	c0,3.2,0.1,6.7,0,9.7c1.9,0.5,3.9,0.6,5.8,0.1c1.6-0.5,2.8-1.9,3.1-3.5c0.8-3.1-0.7-5.9-3.3-6.2c-0.9-0.1-1.9,0.1-2.7,0.5
	c0-1.5,0-3.2,0-4.5l0,0c-0.7,0.2-1.4,0.3-2.2,0.4c-0.7,0.1-1.4,0.2-2.1,0.4v0.3c0.3,0,0.5,0.1,0.8,0.2C106.1,45.7,106,47,106,48"/>
<path d="M84.3,57.3c-0.9-0.1-1.5-0.2-1.8-0.9c-0.5-1.1-0.3-3.5-0.4-5c1,0.1,1.9-0.1,2.5,0.4c0.4,0.4,0.6,0.9,0.7,1.5
	c0.2,0,0.4,0,0.6,0v-4.6h-0.6c-0.2,0.8-0.4,1.5-1,1.8c-0.7,0.1-1.4,0.2-2.1,0.2c0-1.9,0-3.7,0.1-5.5c1.5,0,2.9-0.2,3.8,0.4
	c0.8,0.6,1.4,1.6,1.7,2.6c0.2,0,0.4-0.1,0.7-0.2c0-1.3,0-2.5-0.1-3.8H77c0,0,0,0,0,0.1v0.5c0.4,0,0.8,0.1,1.2,0.3
	c0.7,0.5,0.7,1.8,0.8,3c0.1,1.9,0,4.1,0,6c0.1,0.9-0.1,1.8-0.4,2.6c-0.3,0.5-1,0.5-1.6,0.6v0.5h7.3V57.3z"/>
<path d="M102.9,57.3c-0.6-0.1-1.2,0-1.5-0.5c-0.2-0.4-0.2-0.9-0.2-1.4c-0.1-1.6-0.1-3.1,0-4.7c0.6-0.8,2.3-0.5,3,0
	c0.3-0.9,0.7-1.8,1-2.6c-0.4-0.2-0.8-0.3-1.2-0.3c-1.3,0.2-2.4,1-2.8,2.3c0-0.8,0.1-1.4,0-2.2c-1.4,0.3-2.9,0.5-4.3,0.8v0.4
	c0.3,0.1,0.8,0.1,1,0.3c0.3,0.5,0.4,1,0.4,1.6c0,1.2,0,2.7,0,3.8c0,0.6,0,1.2-0.2,1.8c-0.2,0.5-0.7,0.6-1.2,0.7v0.5h6L102.9,57.3z"
	/>
<path d="M93.7,55.3c-0.1,0.7-0.4,1.4-0.9,1.8c-0.3,0.2-0.7,0.3-1.1,0.2c-0.6-0.1-1-0.9-1.3-1.5c-0.4-1.7-0.5-3.4-0.2-5.1l0,0
	c0.2-0.9,0.5-2.1,1.6-2.2s1.5,0.9,1.8,1.8C93.9,51.9,93.9,53.6,93.7,55.3 M95.7,56.4c0.9-1.1,1.3-2.4,1.2-3.8c-0.2-3-2-5-5.3-4.7
	l0,0c-0.7,0-1.4,0.2-2,0.5c-1.7,0.8-2.7,2.5-2.6,5c-0.1,2,1.2,3.8,3.1,4.4C92,58.5,94.2,58,95.7,56.4"/>
<path d="M120.5,48.5c0.7-0.1,1,0.7,1.2,1.3l0,0c0.1,0.6,0.2,1.2,0.2,1.9c-1,0-2,0.1-3,0C119,50.5,119.3,48.7,120.5,48.5 M118.8,57.7
	c1.8,0.7,3.9,0.4,5.4-0.8c0.2-0.2,0.4-0.4,0.5-0.7c-0.1,0-0.1-0.2-0.2-0.3s-0.4,0.2-0.5,0.3c-0.6,0.3-1.2,0.5-1.9,0.4
	c-2.3-0.1-3.3-1.7-3.3-4.1h6c0-2.8-1.3-4.9-4.4-4.7c-1.5,0-2.9,0.8-3.7,2.1c-0.9,1.4-1.1,3.1-0.6,4.7
	C116.5,56,117.5,57.1,118.8,57.7"/>
<path d="M129.1,57.1c-2,0.2-2.6-1.4-3.2-2.6l-0.4,0.1c0,0.9,0,2,0.1,2.9c1.6,0.6,3.2,0.7,4.8,0.4c1.5-0.2,2.6-1.4,2.7-2.9
	c0.1-2-1.3-2.6-2.7-3.2c-0.8-0.3-1.7-0.7-2-1.3c-0.1-0.2-0.1-0.3-0.1-0.5c-0.1-0.8,0.5-1.4,1.3-1.5l0,0c1.6-0.1,2.2,1.4,2.6,2.4
	l0.4-0.1c0-0.8,0-1.7-0.1-2.5l0,0c-1.1-0.4-2.2-0.6-3.4-0.5c-1.9,0.1-3.4,1.3-3.5,3c-0.1,1.3,0.8,2.5,2.1,2.8c1,0.4,2.2,0.6,2.5,1.5
	c0.3,0.8-0.1,1.6-0.9,1.9C129.3,57.1,129.2,57.2,129.1,57.1"/>
<path d="M38.3,66.8c0.8,0,1.5,0.1,2.2,0.4c0.6,0.3,1.2,0.7,1.7,1.2l-0.8,0.8c-0.4-0.4-0.8-0.8-1.3-1c-1-0.5-2.2-0.5-3.3-0.1
	c-0.5,0.2-0.9,0.5-1.3,0.8c-0.4,0.4-0.6,0.8-0.8,1.3c-0.4,1.1-0.4,2.2,0,3.3c0.2,0.5,0.5,0.9,0.8,1.3c0.4,0.4,0.8,0.6,1.2,0.8
	c0.5,0.2,1,0.3,1.5,0.3s1-0.1,1.4-0.2s0.8-0.4,1.1-0.7c0.3-0.3,0.6-0.7,0.7-1.1c0.2-0.4,0.3-0.9,0.3-1.4h-3.1v-1.1H43
	c0,0,0,0.1,0,0.2V72c0,0.7-0.1,1.4-0.3,2s-0.6,1.2-1,1.7s-1,0.8-1.5,1.1c-0.6,0.3-1.3,0.4-2,0.4s-1.3-0.1-1.9-0.3
	c-0.6-0.2-1.2-0.6-1.7-1c-0.5-0.5-0.9-1-1.2-1.6c-0.3-0.7-0.5-1.4-0.5-2.2c0-0.5,0.1-1,0.2-1.4c0.1-0.4,0.3-0.9,0.5-1.2
	c0.2-0.4,0.5-0.7,0.8-1s0.6-0.6,1-0.8c0.4-0.2,0.8-0.4,1.3-0.5C37.3,66.9,37.8,66.8,38.3,66.8z"/>
<path d="M55.2,77H54l-1.1-2.8h-5L46.7,77h-1.2l4.1-10H51L55.2,77z M48.2,73.1h4.1l-2-5L48.2,73.1z"/>
<path d="M68.9,77h-1.2v-8.7L64.2,76H63l-3.5-7.6V77h-1.2V67h1.8l3.5,7.6l3.5-7.6h1.8V77z"/>
<path d="M80.3,77h-7.1V67h7v1.1h-5.8v3.4h5.7v1h-5.7V76h5.9V77z"/>
<path class="st0" d="M89,66.8c0.4,0,0.9,0,1.3,0.1s0.8,0.2,1.2,0.4c0.4,0.2,0.7,0.4,1,0.7c0.3,0.3,0.5,0.6,0.7,0.9l-1,0.6
	c-0.2-0.2-0.4-0.5-0.6-0.7s-0.5-0.4-0.7-0.5C90.6,68.2,90.3,68,90,68c-0.3-0.1-0.7-0.1-1-0.1c-0.5,0-1.1,0.1-1.6,0.3
	c-1,0.4-1.7,1.1-2.1,2.1c-0.4,1.1-0.4,2.3,0,3.3s1.1,1.7,2.1,2.1c0.5,0.2,1,0.3,1.6,0.3s1.3-0.1,1.8-0.4s1-0.7,1.3-1.2l0.9,0.7
	c-0.2,0.3-0.5,0.6-0.8,0.8c-0.3,0.3-0.6,0.5-1,0.6c-0.4,0.2-0.7,0.3-1.1,0.4S89.3,77,88.9,77c-0.7,0-1.4-0.1-2.1-0.4
	c-0.6-0.2-1.2-0.6-1.7-1.1s-0.8-1-1.1-1.6c-0.5-1.3-0.5-2.8,0-4.2c0.2-0.6,0.6-1.2,1.1-1.6c0.5-0.5,1-0.8,1.7-1.1
	C87.5,66.9,88.3,66.8,89,66.8z"/>
<path class="st0" d="M98,71.4h6.1V67h1.2v10h-1.2v-4.5H98V77h-1.2V67H98V71.4z"/>
<path class="st0" d="M118.1,77h-1.2l-1.1-2.8h-5l-1.1,2.8h-1.2l4.1-10h1.4L118.1,77z M111.2,73.1h4.1l-2-5L111.2,73.1z"/>
<path class="st0" d="M129.7,77h-1l-6.3-8v8h-1.2V67h1l6.2,8.1V67h1.2L129.7,77z"/>
<path class="st0" d="M138.6,66.8c0.8,0,1.5,0.1,2.2,0.4s1.2,0.7,1.7,1.2l-0.9,0.8c-0.4-0.4-0.8-0.8-1.3-1c-1-0.5-2.2-0.5-3.3-0.1
	c-0.5,0.2-0.9,0.5-1.3,0.8c-0.4,0.4-0.6,0.8-0.8,1.3c-0.4,1.1-0.4,2.3,0,3.3c0.2,0.5,0.5,0.9,0.8,1.3c0.4,0.4,0.8,0.6,1.2,0.8
	c0.5,0.2,1,0.3,1.6,0.3c0.5,0,1-0.1,1.4-0.2s0.8-0.4,1.1-0.7c0.3-0.3,0.6-0.7,0.7-1.1c0.2-0.4,0.3-0.9,0.3-1.4h-3.1v-1.1h4.4
	c0,0,0,0.1,0,0.2V72c0,0.7-0.1,1.4-0.3,2.1c-0.2,0.6-0.6,1.2-1,1.7s-1,0.8-1.5,1.1c-0.6,0.3-1.3,0.4-2.1,0.4c-0.7,0-1.3-0.1-1.9-0.3
	c-0.6-0.2-1.2-0.6-1.6-1c-0.5-0.5-0.9-1-1.1-1.6c-0.3-0.7-0.4-1.4-0.4-2.2c0-0.5,0.1-1,0.2-1.4c0.1-0.4,0.3-0.9,0.5-1.2
	c0.2-0.4,0.5-0.7,0.8-1s0.6-0.6,1-0.8c0.4-0.2,0.8-0.4,1.2-0.5C137.6,66.9,138.1,66.8,138.6,66.8z"/>
<path class="st0" d="M154.3,77h-7.1V67h7v1.1h-5.9v3.4h5.7v1h-5.7V76h5.9L154.3,77z"/>
<path class="st0" d="M162.3,67c0.5,0,1,0.1,1.5,0.2c0.4,0.1,0.8,0.3,1.1,0.6c0.3,0.2,0.5,0.5,0.7,0.9s0.2,0.8,0.2,1.2
	c0,0.4-0.1,0.8-0.2,1.2c-0.2,0.3-0.4,0.6-0.7,0.9s-0.7,0.5-1.1,0.6c-0.5,0.1-1,0.2-1.4,0.2h-0.2l3.6,4.3h-1.4l-3.6-4.4h-1.3V77h-1.2
	V67H162.3z M159.5,68.1v3.6h2.8c0.6,0,1.2-0.1,1.7-0.5c0.4-0.3,0.6-0.8,0.6-1.3s-0.2-1-0.6-1.3c-0.5-0.3-1.1-0.5-1.7-0.4L159.5,68.1
	L159.5,68.1z"/>
<path class="st0" d="M176.1,68.9c-0.4-0.3-0.9-0.5-1.4-0.7s-1.1-0.3-1.7-0.3c-0.4,0-0.7,0-1.1,0.1c-0.3,0.1-0.6,0.2-0.8,0.4
	c-0.2,0.1-0.4,0.3-0.5,0.6c-0.1,0.2-0.2,0.5-0.2,0.8c0,0.4,0.2,0.9,0.6,1.1c0.5,0.3,1.1,0.5,1.8,0.5l0.9,0.1c0.4,0,0.8,0.1,1.2,0.2
	s0.7,0.3,1,0.5c0.6,0.4,1,1.2,0.9,1.9c0,0.5-0.1,0.9-0.3,1.3s-0.5,0.7-0.9,1s-0.8,0.5-1.3,0.6c-0.9,0.2-1.8,0.3-2.6,0.1
	c-0.4-0.1-0.7-0.1-1.1-0.3c-0.3-0.1-0.7-0.2-1-0.4c-0.3-0.1-0.6-0.3-0.8-0.5l0.6-0.9c0.2,0.2,0.4,0.3,0.6,0.4
	c0.3,0.1,0.5,0.3,0.8,0.4s0.6,0.2,0.9,0.2c0.3,0.1,0.7,0.1,1,0.1c0.4,0,0.8,0,1.1-0.1s0.6-0.2,0.9-0.3c0.2-0.1,0.4-0.3,0.6-0.6
	c0.2-0.2,0.2-0.5,0.2-0.8c0-0.5-0.2-0.9-0.6-1.1c-0.6-0.3-1.2-0.5-1.8-0.5l-1-0.1c-0.4,0-0.8-0.1-1.2-0.3c-0.3-0.1-0.7-0.3-0.9-0.5
	c-0.3-0.2-0.5-0.5-0.6-0.8c-0.2-0.3-0.2-0.7-0.2-1.1s0.1-0.9,0.3-1.3s0.5-0.7,0.8-0.9c0.4-0.3,0.8-0.5,1.2-0.6
	c0.5-0.1,1-0.2,1.5-0.2c0.4,0,0.7,0,1.1,0.1c0.3,0.1,0.6,0.1,0.9,0.2c0.3,0.1,0.6,0.2,0.8,0.3c0.3,0.1,0.5,0.3,0.8,0.4L176.1,68.9z"
	/>
<path d="M94,87.8h-2.8V90h-0.6v-5h3.5v0.6h-2.9v1.6H94V87.8z"/>
<path d="M100.4,84.9c0.2,0,0.5,0,0.7,0.1s0.4,0.1,0.6,0.2s0.4,0.2,0.5,0.4c0.1,0.2,0.3,0.3,0.4,0.5s0.2,0.4,0.3,0.6
	c0.1,0.2,0.1,0.5,0.1,0.7s0,0.5-0.1,0.7c-0.1,0.4-0.3,0.8-0.7,1.2c-0.2,0.2-0.3,0.3-0.5,0.4s-0.4,0.2-0.6,0.2
	c-0.6,0.1-1.2,0.1-1.8-0.1c-0.3-0.1-0.6-0.3-0.8-0.5c-0.2-0.2-0.4-0.5-0.5-0.8c-0.3-0.7-0.3-1.4,0-2.1c0.1-0.3,0.3-0.6,0.5-0.8
	c0.2-0.2,0.5-0.4,0.8-0.5C99.7,85,100.1,84.9,100.4,84.9z M100.4,85.5c-0.3,0-0.5,0-0.8,0.1c-0.2,0.1-0.4,0.2-0.6,0.4
	c-0.2,0.2-0.3,0.4-0.4,0.6c-0.1,0.3-0.1,0.5-0.1,0.8s0,0.6,0.1,0.8c0.1,0.2,0.2,0.5,0.4,0.7c0.2,0.2,0.4,0.3,0.6,0.4
	c0.5,0.2,1.1,0.2,1.6,0c0.2-0.1,0.4-0.2,0.6-0.4c0.2-0.2,0.3-0.4,0.4-0.6c0.1-0.3,0.2-0.5,0.2-0.8s0-0.6-0.2-0.8
	c-0.1-0.2-0.2-0.5-0.4-0.6c-0.2-0.2-0.4-0.3-0.6-0.4C100.9,85.6,100.7,85.5,100.4,85.5z"/>
<path d="M109.1,85c0.5,0,0.9,0.1,1.3,0.4c0.3,0.3,0.5,0.7,0.5,1.1c0,0.2,0,0.4-0.1,0.6s-0.2,0.3-0.4,0.4c-0.2,0.1-0.3,0.2-0.6,0.3
	c-0.2,0.1-0.5,0.1-0.7,0.1l0,0l1.7,2.1H110l-1.7-2.2h-0.6V90H107v-5H109.1z M107.7,85.6v1.7h1.3c0.3,0,0.6-0.1,0.8-0.2
	c0.4-0.3,0.4-0.9,0.1-1.2c0,0,0,0-0.1-0.1c-0.3-0.2-0.5-0.2-0.8-0.2C109,85.6,107.7,85.6,107.7,85.6z"/>
<path d="M117.2,84.9c0.2,0,0.5,0,0.7,0.1s0.4,0.1,0.6,0.2s0.4,0.2,0.5,0.4c0.3,0.3,0.5,0.7,0.7,1.2c0.1,0.2,0.1,0.5,0.1,0.7
	s0,0.5-0.1,0.7s-0.1,0.4-0.2,0.6s-0.2,0.4-0.4,0.5c-0.2,0.2-0.3,0.3-0.5,0.4s-0.4,0.2-0.6,0.2c-0.2,0.1-0.5,0.1-0.7,0.1
	c-0.3,0-0.7-0.1-1-0.2s-0.6-0.3-0.8-0.5c-0.2-0.2-0.4-0.5-0.5-0.8c-0.3-0.7-0.3-1.4,0-2.1c0.1-0.3,0.3-0.6,0.5-0.8
	c0.2-0.2,0.5-0.4,0.8-0.5C116.5,85,116.8,84.9,117.2,84.9z M117.2,85.5c-0.3,0-0.5,0-0.8,0.1c-0.2,0.1-0.4,0.2-0.6,0.4
	c-0.2,0.2-0.3,0.4-0.4,0.6c-0.1,0.3-0.2,0.5-0.2,0.8s0,0.6,0.2,0.8c0.1,0.2,0.2,0.4,0.4,0.6c0.2,0.2,0.4,0.3,0.6,0.4
	c0.5,0.2,1.1,0.2,1.6,0c0.2-0.1,0.4-0.2,0.6-0.4c0.2-0.2,0.3-0.4,0.4-0.6c0.1-0.3,0.1-0.5,0.1-0.8s0-0.6-0.1-0.8
	c-0.1-0.2-0.2-0.5-0.4-0.6c-0.2-0.2-0.4-0.3-0.6-0.4C117.7,85.6,117.4,85.5,117.2,85.5z"/>
<rect x="102.5" y="98.9" class="st0" width="5.1" height="5.1"/>
<rect x="102.5" y="98.9" class="st1" width="5.1" height="5.1"/>
<rect class="st2" width="210" height="155"/>
<g>
	<path class="st0" d="M78.4,120.2h-0.8v-5.6l-2.2,4.9h-0.9l-2.2-4.9v5.6h-0.8v-6.6h1.3l2.2,4.9l2.2-4.9h1.3V120.2z"/>
	<path class="st0" d="M87.7,120.2h-0.9l-0.7-1.8h-3.2l-0.7,1.8h-0.9l2.7-6.6h1L87.7,120.2z M83.2,117.7h2.6l-1.3-3.2L83.2,117.7z"/>
	<path class="st0" d="M93.3,113.7c1.5,0,2.3,0.7,2.3,1.9c0,1.1-0.9,1.9-2.3,1.9h-0.1l2.3,2.8h-1l-2.3-2.8h-0.8v2.8h-0.8v-6.6H93.3z
		 M91.5,114.5v2.2h1.8c1,0,1.5-0.4,1.5-1.1c0-0.7-0.5-1.1-1.5-1.1H91.5z"/>
	<path class="st0" d="M103.5,114.5h-2.2v5.8h-0.8v-5.8h-2.2v-0.8h5.3V114.5z"/>
	<path class="st0" d="M111.1,120.2h-4.7v-6.6h4.6v0.8h-3.8v2.1h3.7v0.8h-3.7v2.1h3.8V120.2z"/>
	<path class="st0" d="M119,115c-0.5-0.4-1.2-0.6-1.9-0.6c-1,0-1.6,0.4-1.6,1.1c0,0.6,0.5,0.9,1.5,1l0.6,0.1c1.1,0.1,2.1,0.6,2.1,1.7
		c0,1.3-1.2,2-2.6,2c-0.9,0-2-0.3-2.6-0.9l0.5-0.7c0.5,0.4,1.3,0.7,2.1,0.7c1,0,1.7-0.4,1.7-1.1c0-0.6-0.5-0.9-1.6-1l-0.6-0.1
		c-1.1-0.1-1.9-0.6-1.9-1.8c0-1.3,1.1-2,2.5-2c1,0,1.7,0.3,2.4,0.7L119,115z"/>
	<path class="st0" d="M129.3,120.2h-0.8v-5.5l-1.9,0.8v-0.8l2.7-1.1V120.2z"/>
	<path class="st0" d="M134.2,116.2c0.2-0.1,0.4-0.2,0.7-0.2c1.2,0,2.2,0.9,2.2,2.1s-1,2.1-2.3,2.1c-1.3,0-2.3-0.9-2.3-2.1
		c0-0.5,0.2-1,0.5-1.5l1.9-3h1L134.2,116.2z M133.3,118.2c0,0.8,0.7,1.4,1.5,1.4s1.5-0.6,1.5-1.4c0-0.8-0.6-1.4-1.5-1.4
		S133.3,117.4,133.3,118.2z"/>
</g>
<g>
	<path d="M76.3,134.5h-4.8v-6.6h1.3v5.3h3.5V134.5z"/>
	<path d="M80.4,134.5h-1.3v-6.6h1.3V134.5z"/>
	<path d="M87.2,134.5h-1.6l-2.5-6.6h1.4l1.9,5.2l1.9-5.2h1.4L87.2,134.5z"/>
	<path d="M97.2,134.5h-4.9v-6.6h4.9v1.2h-3.6v1.5H97v1.2h-3.4v1.5h3.6V134.5z"/>
	<path d="M110.6,134.5h-1.4l-0.6-1.5h-2.8l-0.6,1.5h-1.4l2.6-6.6h1.6L110.6,134.5z M106.3,131.8h1.9l-0.9-2.5L106.3,131.8z"/>
	<path d="M119.6,131.2c0,0.8-0.2,1.5-0.7,2l0.9,1.2h-1.5l-0.3-0.4c-0.5,0.3-1.2,0.5-1.9,0.5c-2,0-3.4-1.4-3.4-3.4
		c0-2,1.4-3.4,3.4-3.4C118.2,127.8,119.6,129.3,119.6,131.2z M114.1,131.2c0,1.3,0.9,2.1,2.1,2.1c0.4,0,0.8-0.1,1.1-0.3l-1.2-1.6
		h1.6l0.5,0.6c0.1-0.3,0.2-0.6,0.2-0.9c0-1.3-0.9-2.1-2.1-2.1C114.9,129.1,114.1,129.9,114.1,131.2z"/>
	<path d="M128.2,131.9c0,1.8-1.2,2.7-2.8,2.7c-1.7,0-2.8-0.9-2.8-2.7v-3.9h1.3v3.9c0,1.1,0.6,1.5,1.5,1.5s1.5-0.5,1.5-1.5v-3.9h1.3
		V131.9z"/>
	<path d="M137.4,134.5H136l-0.6-1.5h-2.8l-0.6,1.5h-1.4l2.6-6.6h1.6L137.4,134.5z M133,131.8h1.9l-0.9-2.5L133,131.8z"/>
</g>
<g>
	<path d="M83,24c0,2-1.4,3.4-3.5,3.4S76,25.9,76,24c0-2,1.4-3.4,3.5-3.4S83,22,83,24z M77.9,24c0,1,0.7,1.7,1.6,1.7s1.6-0.7,1.6-1.7
		s-0.7-1.7-1.6-1.7S77.9,23,77.9,24z"/>
	<path d="M91.8,22.2l-1.6,0.9c-0.3-0.5-0.8-0.8-1.4-0.8c-0.9,0-1.6,0.7-1.6,1.7c0,1.1,0.8,1.7,1.6,1.7c0.6,0,1.1-0.3,1.5-0.8l1.5,1
		c-0.6,0.9-1.6,1.5-2.9,1.5c-2,0-3.5-1.4-3.5-3.4s1.4-3.4,3.5-3.4C90,20.6,91.2,21.2,91.8,22.2z"/>
	<path d="M99.5,22.3h-1.9v4.9h-1.8v-4.9H94v-1.6h5.5V22.3z"/>
	<path d="M107.7,24.6c0,1.8-1,2.8-2.9,2.8c-1.9,0-2.9-1-2.9-2.8v-3.9h1.8v3.8c0,0.8,0.4,1.1,1.1,1.1c0.7,0,1.1-0.4,1.1-1.1v-3.8h1.8
		V24.6z"/>
	<path d="M113.4,20.7c1.8,0,2.5,0.7,2.5,1.9c0,0.6-0.4,1.1-0.9,1.4c0.6,0.2,1,0.8,1,1.4c0,1.2-0.8,1.9-2.5,1.9h-3.1v-6.6H113.4z
		 M112.3,22.1v1.1h1.1c0.5,0,0.7-0.2,0.7-0.5c0-0.4-0.2-0.5-0.7-0.5H112.3z M112.3,24.7v1.1l1.2,0c0.5,0,0.8-0.2,0.8-0.6
		c0-0.4-0.3-0.6-0.8-0.6H112.3z"/>
	<path d="M124.2,22.9c0,1-0.6,1.7-1.7,2l1.8,2.4h-2.1l-1.6-2.3h-0.1v2.3h-1.8v-6.6h2.9C123.3,20.7,124.2,21.6,124.2,22.9z
		 M120.5,22.3v1.2h1.1c0.4,0,0.8-0.2,0.8-0.6c0-0.4-0.3-0.6-0.8-0.6H120.5z"/>
	<path d="M132,27.2h-5.1v-6.6h5.1v1.6h-3.3v0.9h3.1v1.6h-3.1v0.9h3.3V27.2z"/>
</g>
</svg>
