<svg xmlns="http://www.w3.org/2000/svg" viewBox="0 0 210 155"><defs><style>.cls-1{fill:#e5007d;}.cls-2{fill:none;}</style></defs><title>30promesas</title><g id="Capa_2" data-name="Capa 2"><g id="Capa_1-2" data-name="Capa 1"><path d="M108.81,48.81a2.1,2.1,0,0,1,2,.09c1.71,1.17,1.54,6,0,7.5a2,2,0,0,1-1.93.47c-.1-2.64-.09-5.35-.07-8.06M106,47.55c0,3.2.07,6.67,0,9.65a11.78,11.78,0,0,0,5.8.12,4.7,4.7,0,0,0,3.1-3.5c.76-3.07-.66-5.94-3.29-6.23a5,5,0,0,0-2.72.54c0-1.47,0-3.21,0-4.56h0c-.69.15-1.45.27-2.19.4a17.85,17.85,0,0,0-2.06.42v.34a4,4,0,0,1,.8.18c.65.36.61,1.63.61,2.64"/><path d="M84.25,56.86c-.9-.1-1.52-.2-1.81-.86-.51-1.14-.3-3.54-.36-5,1,.08,1.94-.08,2.47.42a2.61,2.61,0,0,1,.66,1.5h.59V48.34h-.57c-.19.78-.36,1.47-1,1.77a8.47,8.47,0,0,1-2.14.16c0-1.87,0-3.72.14-5.48,1.5,0,2.94-.14,3.85.42a4.67,4.67,0,0,1,1.67,2.61,5.46,5.46,0,0,0,.66-.19c0-1.26,0-2.55-.07-3.8H77s0,0,0,.07v.52a3,3,0,0,1,1.25.25c.7.46.72,1.8.77,3,.09,1.93,0,4.14,0,6a5.63,5.63,0,0,1-.45,2.63c-.32.47-1,.49-1.55.61v.52h7.29Z"/><path d="M102.9,56.87c-.62-.07-1.2,0-1.48-.47a3.51,3.51,0,0,1-.24-1.37,42.78,42.78,0,0,1,0-4.67c.6-.76,2.32-.54,3,0,.34-.88.68-1.77,1-2.64a2.26,2.26,0,0,0-1.22-.3,3.49,3.49,0,0,0-2.84,2.25c0-.75.06-1.44,0-2.2-1.44.27-2.89.54-4.32.84v.37a2.29,2.29,0,0,1,1,.28,2.89,2.89,0,0,1,.37,1.61c0,1.17,0,2.65,0,3.85a5.92,5.92,0,0,1-.16,1.81c-.19.48-.68.62-1.25.66v.51h6Z"/><path d="M93.64,54.89a3,3,0,0,1-.89,1.86,1.41,1.41,0,0,1-1.11.21c-.64-.14-1-.86-1.26-1.55a12.11,12.11,0,0,1-.24-5.12h0c.16-.94.5-2.1,1.55-2.18s1.52.87,1.79,1.78a12.81,12.81,0,0,1,.16,5m2,1.11a5.22,5.22,0,0,0,1.15-3.81c-.18-3-1.94-5-5.28-4.72h0a5.13,5.13,0,0,0-2,.54c-1.64.82-2.66,2.44-2.56,5a4.46,4.46,0,0,0,3.08,4.41A5.36,5.36,0,0,0,95.66,56"/><path d="M120.48,48.13c.72-.07,1,.67,1.21,1.34h0a9.14,9.14,0,0,1,.17,1.88c-1,0-2,0-3,0,.14-1.3.43-3.15,1.66-3.26m-1.7,9.16a5.52,5.52,0,0,0,5.38-.83,1.65,1.65,0,0,0,.51-.65c-.11-.06-.14-.24-.21-.26s-.41.22-.47.26a3.63,3.63,0,0,1-1.86.42c-2.32-.06-3.29-1.68-3.31-4.11h6c0-2.84-1.31-4.87-4.42-4.65a4.5,4.5,0,0,0-3.68,2.11,5.93,5.93,0,0,0-.64,4.68,4.78,4.78,0,0,0,2.71,3"/><path d="M129,56.72c-2,.23-2.56-1.43-3.15-2.63-.13,0-.28.08-.42.12,0,.94,0,2,.07,2.86a9.27,9.27,0,0,0,4.84.41,3.16,3.16,0,0,0,2.7-2.87c.13-2-1.34-2.62-2.7-3.17-.75-.3-1.69-.66-2-1.29a1.34,1.34,0,0,1-.14-.52,1.38,1.38,0,0,1,1.27-1.48c1.63-.09,2.16,1.38,2.63,2.44l.42-.11c0-.85,0-1.71-.07-2.54h0a8.37,8.37,0,0,0-3.38-.49c-1.93.13-3.36,1.26-3.45,3s1,2.4,2.13,2.84,2.17.64,2.49,1.48a1.48,1.48,0,0,1-1.24,2"/><path d="M49.26,66.43a4.45,4.45,0,0,1,1.35.2,2.91,2.91,0,0,1,1.06.57,2.51,2.51,0,0,1,.68.87,2.56,2.56,0,0,1,.24,1.12,2.39,2.39,0,0,1-.43,1.47,2.72,2.72,0,0,1-1.14.89,3.06,3.06,0,0,1,.72.37,2.85,2.85,0,0,1,.57.52,2.36,2.36,0,0,1,.37.68,2.39,2.39,0,0,1,.13.82,2.48,2.48,0,0,1-.29,1.25,2.52,2.52,0,0,1-.77.88,3.36,3.36,0,0,1-1.11.53,5,5,0,0,1-1.29.17,4.85,4.85,0,0,1-1.88-.35,3.69,3.69,0,0,1-1.39-1l.72-.74a3.17,3.17,0,0,0,1.13.76,3.6,3.6,0,0,0,1.4.27,3.68,3.68,0,0,0,.89-.11,2.4,2.4,0,0,0,.74-.34,1.75,1.75,0,0,0,.51-.57,1.8,1.8,0,0,0,.19-.82,1.56,1.56,0,0,0-.2-.78,1.58,1.58,0,0,0-.52-.57,2.38,2.38,0,0,0-.77-.36,3.64,3.64,0,0,0-1-.12H47.9V71h1.31a3.05,3.05,0,0,0,.87-.11,1.87,1.87,0,0,0,.71-.34,1.7,1.7,0,0,0,.47-.56,1.8,1.8,0,0,0,.17-.79,1.57,1.57,0,0,0-.17-.73,1.7,1.7,0,0,0-.47-.56,2.26,2.26,0,0,0-.71-.36,3.14,3.14,0,0,0-.89-.12,2.71,2.71,0,0,0-.71.09,2.52,2.52,0,0,0-.61.25,2.34,2.34,0,0,0-.51.36,3.16,3.16,0,0,0-.39.44l-.8-.68a3,3,0,0,1,.52-.6,3.43,3.43,0,0,1,.7-.47,4.28,4.28,0,0,1,.85-.32A4.69,4.69,0,0,1,49.26,66.43Z"/><path d="M59.67,66.43a3.4,3.4,0,0,1,1.45.31,3.36,3.36,0,0,1,1.19,1,4.82,4.82,0,0,1,.81,1.62,8.18,8.18,0,0,1,.29,2.29A8.42,8.42,0,0,1,63.12,74a4.67,4.67,0,0,1-.81,1.61,3.17,3.17,0,0,1-1.19.92,3.72,3.72,0,0,1-1.45.29,3.82,3.82,0,0,1-1.47-.29A3.23,3.23,0,0,1,57,75.56,4.67,4.67,0,0,1,56.18,74a8,8,0,0,1-.31-2.35,8.14,8.14,0,0,1,.31-2.36,4.71,4.71,0,0,1,.81-1.6,3.13,3.13,0,0,1,1.21-.92A3.82,3.82,0,0,1,59.67,66.43Zm0,1.06a2.38,2.38,0,0,0-1,.23,2.19,2.19,0,0,0-.85.71,3.64,3.64,0,0,0-.56,1.27A7.39,7.39,0,0,0,57,71.6a7.5,7.5,0,0,0,.21,1.9,3.64,3.64,0,0,0,.56,1.27,2.28,2.28,0,0,0,.85.71,2.37,2.37,0,0,0,1,.22,2.28,2.28,0,0,0,1-.22,2.23,2.23,0,0,0,.83-.71,4,4,0,0,0,.56-1.27,8,8,0,0,0,.2-1.9,7.56,7.56,0,0,0-.2-1.84,4.22,4.22,0,0,0-.56-1.28,2.23,2.23,0,0,0-.83-.74A2.06,2.06,0,0,0,59.67,67.49Z"/><path class="cls-1" d="M73.31,72.58v4.06H72.15V66.56H76a5.36,5.36,0,0,1,1.51.2,3.25,3.25,0,0,1,1.12.6,2.53,2.53,0,0,1,.69,1,3.45,3.45,0,0,1,0,2.53,2.62,2.62,0,0,1-.69,1,3.41,3.41,0,0,1-1.12.59,5,5,0,0,1-1.51.2Zm0-4.93V71.5h2.61A2.82,2.82,0,0,0,77.7,71a2,2,0,0,0,0-2.89,2.82,2.82,0,0,0-1.78-.48Z"/><path class="cls-1" d="M87.1,66.56a5.21,5.21,0,0,1,1.5.19,2.89,2.89,0,0,1,1.11.55,2.28,2.28,0,0,1,.68.89,3.07,3.07,0,0,1,.23,1.21,2.8,2.8,0,0,1-.24,1.18,2.58,2.58,0,0,1-.71.9,3.1,3.1,0,0,1-1.1.57,4.73,4.73,0,0,1-1.46.2H87l3.62,4.39H89.13l-3.55-4.39H84.31v4.39H83.15V66.56Zm-2.79,1.09V71.2h2.78a2.83,2.83,0,0,0,1.74-.45,1.63,1.63,0,0,0,.59-1.35,1.55,1.55,0,0,0-.6-1.32,2.93,2.93,0,0,0-1.73-.43Z"/><path class="cls-1" d="M98.94,66.41a5.46,5.46,0,0,1,2.08.39,5,5,0,0,1,1.64,1.07,4.86,4.86,0,0,1,1.09,1.64,5.8,5.8,0,0,1,0,4.18,4.72,4.72,0,0,1-1.09,1.63A5,5,0,0,1,101,76.4a5.88,5.88,0,0,1-4.16,0,4.92,4.92,0,0,1-1.65-1.08,5,5,0,0,1-1.09-1.63,5.8,5.8,0,0,1,0-4.18,5.17,5.17,0,0,1,1.09-1.64,4.9,4.9,0,0,1,1.65-1.07A5.46,5.46,0,0,1,98.94,66.41Zm0,1.12a4.12,4.12,0,0,0-1.58.3,3.71,3.71,0,0,0-1.26.82,4,4,0,0,0-.85,1.29,4.74,4.74,0,0,0,0,3.32,3.82,3.82,0,0,0,.85,1.28,3.74,3.74,0,0,0,1.26.83,4.31,4.31,0,0,0,3.16,0,3.78,3.78,0,0,0,1.27-.83,4,4,0,0,0,.84-1.28,4.74,4.74,0,0,0,0-3.32,4.11,4.11,0,0,0-.84-1.29,3.76,3.76,0,0,0-1.27-.82A4.15,4.15,0,0,0,98.94,67.53Z"/><path class="cls-1" d="M118.46,76.64H117.3V67.85l-3.52,7.67h-1.21l-3.51-7.61v8.73H107.9V66.56h1.76l3.52,7.62,3.51-7.62h1.77Z"/><path class="cls-1" d="M129.88,76.64h-7.09V66.56h7v1.09H124V71h5.69V72.1H124v3.45h5.93Z"/><path class="cls-1" d="M140.52,68.47a5.65,5.65,0,0,0-1.37-.68,4.92,4.92,0,0,0-1.67-.27,3.87,3.87,0,0,0-1,.13,2.46,2.46,0,0,0-.82.36,1.83,1.83,0,0,0-.54.57,1.51,1.51,0,0,0-.2.76,1.29,1.29,0,0,0,.57,1.11,4,4,0,0,0,1.76.53l1,.11a7.62,7.62,0,0,1,1.19.26,3.45,3.45,0,0,1,1,.49,2.34,2.34,0,0,1,.69.78,2.21,2.21,0,0,1,.26,1.12,2.58,2.58,0,0,1-.32,1.32,2.76,2.76,0,0,1-.86.94,3.8,3.8,0,0,1-1.27.58,5.85,5.85,0,0,1-1.54.19,6.89,6.89,0,0,1-1.1-.09,7.59,7.59,0,0,1-1.07-.26,6,6,0,0,1-1-.41,4.45,4.45,0,0,1-.82-.53l.64-.92a3.35,3.35,0,0,0,.62.42,5,5,0,0,0,.81.36,8.06,8.06,0,0,0,.91.25,5.41,5.41,0,0,0,1,.09,4.79,4.79,0,0,0,1.09-.12,2.85,2.85,0,0,0,.89-.35,1.7,1.7,0,0,0,.59-.57,1.41,1.41,0,0,0,.22-.8,1.25,1.25,0,0,0-.62-1.12,4.44,4.44,0,0,0-1.82-.52l-1-.12a5.94,5.94,0,0,1-1.19-.26,3.17,3.17,0,0,1-.94-.52,2.29,2.29,0,0,1-.62-.79,2.5,2.5,0,0,1-.22-1.09,2.66,2.66,0,0,1,.3-1.28,2.71,2.71,0,0,1,.82-.93,3.58,3.58,0,0,1,1.21-.58,5.11,5.11,0,0,1,1.49-.2,7.41,7.41,0,0,1,1.08.08,6.29,6.29,0,0,1,1,.23,5.79,5.79,0,0,1,.85.34,7.66,7.66,0,0,1,.74.45Z"/><path class="cls-1" d="M153.47,76.64h-1.24l-1.14-2.81h-5L145,76.64h-1.2l4.14-10.08h1.43Zm-6.93-3.9h4.11l-2.05-5Z"/><path class="cls-1" d="M163.13,68.47a5.48,5.48,0,0,0-1.37-.68,4.92,4.92,0,0,0-1.67-.27,3.8,3.8,0,0,0-1,.13,2.51,2.51,0,0,0-.83.36,1.83,1.83,0,0,0-.54.57,1.51,1.51,0,0,0-.19.76,1.29,1.29,0,0,0,.57,1.11,4,4,0,0,0,1.75.53l1,.11a7.5,7.5,0,0,1,1.2.26,3.45,3.45,0,0,1,1,.49,2.59,2.59,0,0,1,.69.78,2.32,2.32,0,0,1,.26,1.12,2.69,2.69,0,0,1-.32,1.32,2.86,2.86,0,0,1-.86.94,3.89,3.89,0,0,1-1.27.58,6,6,0,0,1-1.54.19,6.8,6.8,0,0,1-1.1-.09,7.27,7.27,0,0,1-1.07-.26,6.12,6.12,0,0,1-1-.41,4.36,4.36,0,0,1-.81-.53l.63-.92a3.13,3.13,0,0,0,.63.42,4.51,4.51,0,0,0,.8.36,8.23,8.23,0,0,0,.92.25,5.23,5.23,0,0,0,1,.09,4.88,4.88,0,0,0,1.1-.12,2.79,2.79,0,0,0,.88-.35,1.73,1.73,0,0,0,.6-.57,1.49,1.49,0,0,0,.21-.8,1.23,1.23,0,0,0-.62-1.12,4.39,4.39,0,0,0-1.82-.52l-1-.12a5.94,5.94,0,0,1-1.19-.26,2.94,2.94,0,0,1-.94-.52,2.18,2.18,0,0,1-.62-.79,2.5,2.5,0,0,1-.22-1.09,2.66,2.66,0,0,1,.29-1.28,2.81,2.81,0,0,1,.82-.93,3.67,3.67,0,0,1,1.21-.58,5.16,5.16,0,0,1,1.49-.2,7.55,7.55,0,0,1,1.09.08,6.94,6.94,0,0,1,.95.23,5.26,5.26,0,0,1,.84.34,7.66,7.66,0,0,1,.74.45Z"/><path d="M94,87.37H91.21v2.24h-.63v-5H94.1v.6H91.21v1.6H94Z"/><path d="M100.42,84.49a2.71,2.71,0,0,1,.71.09,2.75,2.75,0,0,1,.64.25,2.49,2.49,0,0,1,.52.4,2.32,2.32,0,0,1,.4.52,2.6,2.6,0,0,1,.25.62,2.92,2.92,0,0,1,0,1.44,2.6,2.6,0,0,1-.25.62,2.57,2.57,0,0,1-.4.52,2.49,2.49,0,0,1-.52.4,3.27,3.27,0,0,1-.64.25,2.71,2.71,0,0,1-.71.09,2.77,2.77,0,0,1-1-.2,2.59,2.59,0,0,1-.83-.54,2.44,2.44,0,0,1-.54-.82,2.94,2.94,0,0,1,0-2.08,2.59,2.59,0,0,1,.54-.83,2.41,2.41,0,0,1,.83-.53A2.77,2.77,0,0,1,100.42,84.49Zm0,.61a2,2,0,0,0-.78.15,1.8,1.8,0,0,0-1,1,2.09,2.09,0,0,0-.15.81,2.16,2.16,0,0,0,.15.81,1.91,1.91,0,0,0,.41.63,1.8,1.8,0,0,0,.61.4,2.08,2.08,0,0,0,1.55,0,1.94,1.94,0,0,0,.62-.4,2.08,2.08,0,0,0,.41-.63,2.38,2.38,0,0,0,.14-.81,2.29,2.29,0,0,0-.14-.81,2,2,0,0,0-.41-.63,1.94,1.94,0,0,0-.62-.4A2,2,0,0,0,100.42,85.1Z"/><path d="M109.06,84.57a2,2,0,0,1,1.31.37,1.29,1.29,0,0,1,.45,1.06,1.38,1.38,0,0,1-.12.59,1.31,1.31,0,0,1-.35.46,1.64,1.64,0,0,1-.56.28,2.38,2.38,0,0,1-.73.11h0l1.78,2.17H110l-1.73-2.17h-.59v2.17h-.63v-5Zm-1.37.59v1.7H109a1.34,1.34,0,0,0,.84-.22.75.75,0,0,0,.28-.64.73.73,0,0,0-.28-.63,1.41,1.41,0,0,0-.84-.21Z"/><path d="M117.14,84.49a2.78,2.78,0,0,1,1.35.34,2.49,2.49,0,0,1,.52.4,2.06,2.06,0,0,1,.4.52,2.6,2.6,0,0,1,.25.62,2.92,2.92,0,0,1,0,1.44,2.6,2.6,0,0,1-.25.62,2.25,2.25,0,0,1-.4.52,2.49,2.49,0,0,1-.52.4,3.45,3.45,0,0,1-.63.25,2.84,2.84,0,0,1-.72.09,2.77,2.77,0,0,1-1-.2,2.44,2.44,0,0,1-.82-.54,2.32,2.32,0,0,1-.55-.82,2.94,2.94,0,0,1,0-2.08,2.46,2.46,0,0,1,.55-.83,2.28,2.28,0,0,1,.82-.53A2.77,2.77,0,0,1,117.14,84.49Zm0,.61a1.92,1.92,0,0,0-.77.15,1.74,1.74,0,0,0-.62.4,1.81,1.81,0,0,0-.41.63,2.09,2.09,0,0,0-.15.81,2.16,2.16,0,0,0,.15.81,1.91,1.91,0,0,0,.41.63,1.74,1.74,0,0,0,.62.4,1.92,1.92,0,0,0,.77.15,2,2,0,0,0,.77-.15,1.84,1.84,0,0,0,.62-.4,2.08,2.08,0,0,0,.41-.63,2.16,2.16,0,0,0,.15-.81,2.09,2.09,0,0,0-.15-.81,2,2,0,0,0-.41-.63,1.84,1.84,0,0,0-.62-.4A2,2,0,0,0,117.14,85.1Z"/><rect class="cls-1" x="102.47" y="98.46" width="5.1" height="5.1"/><path class="cls-1" d="M80.46,119.72h-.79v-5.43L77.56,119h-.84l-2.11-4.71v5.39h-.79v-6.31H75l2.11,4.71,2.11-4.71h1.21Z"/><path class="cls-1" d="M89.43,119.72h-.85L87.89,118H84.83l-.69,1.72h-.82l2.56-6.3h1Zm-4.3-2.47h2.46l-1.23-3Z"/><path class="cls-1" d="M94.79,113.42c1.42,0,2.2.64,2.2,1.78s-.85,1.8-2.2,1.8h-.05L97,119.72H96L93.81,117h-.73v2.72h-.8v-6.3Zm-1.71.74v2.12h1.69c.93,0,1.4-.37,1.4-1.08s-.49-1-1.4-1Z"/><path class="cls-1" d="M104.56,114.17h-2.15v5.55h-.79v-5.55H99.47v-.75h5.09Z"/><path class="cls-1" d="M111.9,119.72h-4.48v-6.3h4.43v.74h-3.64v2h3.52v.75h-3.52V119h3.69Z"/><path class="cls-1" d="M119.41,114.66a3.24,3.24,0,0,0-1.86-.58c-.93,0-1.58.41-1.58,1.09s.48.87,1.42,1l.56.07c1.06.13,2,.56,2,1.67,0,1.26-1.14,1.92-2.5,1.92a4.09,4.09,0,0,1-2.49-.82l.43-.63a3.37,3.37,0,0,0,2.06.7c.94,0,1.67-.39,1.67-1.1s-.52-.86-1.5-1l-.59-.08c-1-.12-1.87-.6-1.87-1.68s1.08-1.89,2.41-1.89a3.85,3.85,0,0,1,2.27.68Z"/><path class="cls-1" d="M129.46,119.72h-1.22V115l-1.5.61v-1.22l2.72-1.1Z"/><path class="cls-1" d="M136.6,115.11a1.5,1.5,0,0,1-.94,1.43,1.54,1.54,0,0,1,1.08,1.45c0,1.24-1.13,1.84-2.32,1.84a2.81,2.81,0,0,1-2.2-.91l.73-.8a2,2,0,0,0,1.43.6c.61,0,1.1-.26,1.1-.82s-.55-.82-1.23-.82h-.74V116h.74c.61,0,1.1-.27,1.1-.8s-.45-.79-1-.79a1.55,1.55,0,0,0-1.27.64l-.77-.77a2.49,2.49,0,0,1,2.1-1C135.7,113.3,136.6,114,136.6,115.11Z"/><path d="M58.06,134.36H56.54l-1.35-4.5-1.35,4.5H52.31l-1.88-6.3h1.31l1.35,4.83,1.41-4.83h1.39l1.41,4.83,1.36-4.83h1.28Z"/><path d="M67.31,134.36h-4.7v-6.3h4.67v1.15H63.86v1.4h3.26v1.15H63.86v1.45h3.45Z"/><path d="M74.66,129.65a3.38,3.38,0,0,0-1.79-.54c-.71,0-1.21.28-1.21.76s.55.6,1.31.73l.35.06c1.13.18,2,.66,2,1.76,0,1.39-1.23,2.05-2.58,2.05a4.42,4.42,0,0,1-2.66-.82l.66-1a3.32,3.32,0,0,0,2,.68c.7,0,1.24-.28,1.24-.76s-.46-.6-1.34-.74l-.4-.07c-1.11-.17-1.92-.66-1.92-1.8,0-1.31,1.17-2,2.51-2a4.44,4.44,0,0,1,2.41.67Z"/><path d="M82.82,129.23H80.87v5.13H79.62v-5.13h-2v-1.17h5.16Z"/><path d="M86.73,134.36H85.47v-6.3h1.26Z"/><path d="M95.59,134.36H94.41l-3.2-4.21v4.21H90v-6.3h1.18l3.2,4.21v-4.21h1.26Z"/><path d="M107.11,129.65a3.35,3.35,0,0,0-1.79-.54c-.7,0-1.2.28-1.2.76s.54.6,1.3.73l.35.06c1.13.18,2,.66,2,1.76,0,1.39-1.22,2.05-2.58,2.05a4.39,4.39,0,0,1-2.65-.82l.65-1a3.35,3.35,0,0,0,2,.68c.69,0,1.24-.28,1.24-.76s-.46-.6-1.34-.74l-.4-.07c-1.11-.17-1.92-.66-1.92-1.8,0-1.31,1.17-2,2.51-2a4.49,4.49,0,0,1,2.41.67Z"/><path d="M116.39,134.36h-1.34l-.55-1.47h-2.69l-.55,1.47H110l2.45-6.3h1.53Zm-4.15-2.62h1.82l-.91-2.44Z"/><path d="M124.62,134.36h-1.18l-3.19-4.21v4.21H119v-6.3h1.17l3.2,4.21v-4.21h1.26Z"/><path d="M132.44,129.23h-1.95v5.13h-1.26v-5.13h-1.95v-1.17h5.16Z"/><path d="M140.35,134.36H139l-.55-1.47h-2.69l-.55,1.47h-1.31l2.45-6.3h1.54Zm-4.15-2.62H138l-.91-2.44Z"/><path d="M151.27,131.81H148.1v2.55h-1.25v-6.3h4.63v1.16H148.1v1.43h3.17Z"/><path d="M159.13,134.36h-4.71v-6.3h4.67v1.15h-3.42v1.4h3.26v1.15h-3.26v1.45h3.46Z"/><path d="M92.34,27H90.63V23l-1,3.36H87.79l-1-3.36V27H85.07V20.64h2.37l1.26,3.79L90,20.64h2.38Z"/><path d="M101.38,27H99.57l-.42-1.21H96.8L96.38,27H94.6L97,20.64h2Zm-4-2.73h1.29L98,22.35Z"/><path d="M108.91,22.74a1.84,1.84,0,0,1-1.63,1.89L109,27h-2l-1.52-2.24h-.09V27h-1.72V20.64h2.81C108.07,20.64,108.91,21.47,108.91,22.74Zm-3.54-.56V23.3h1.08c.42,0,.73-.18.73-.56s-.31-.56-.73-.56Z"/><path d="M116.51,22l-3,3.43h3V27h-5.22V25.6l2.95-3.43h-2.95V20.64h5.22Z"/><path d="M125.19,23.79a3.34,3.34,0,1,1-3.34-3.26A3.19,3.19,0,0,1,125.19,23.79Zm-4.89,0a1.56,1.56,0,1,0,1.55-1.62A1.52,1.52,0,0,0,120.3,23.79Z"/><rect class="cls-2" width="210" height="155"/></g></g></svg>