<?xml version="1.0" encoding="UTF-8"?><svg xmlns="http://www.w3.org/2000/svg" width="276.31" height="429.13" xmlns:xlink="http://www.w3.org/1999/xlink" viewBox="0 0 276.31 429.13"><defs><style>.j{clip-path:url(#h);}.k{clip-path:url(#d);}.l{fill:none;}.m{clip-path:url(#f);}.n{fill:#175556;}</style><clipPath id="d"><polyline class="l" points="1015.11 3170.2 1615.11 3170.2 1615.11 3769.31 1015.11 3769.31"/></clipPath><clipPath id="f"><polyline class="l" points="1079.97 1920.86 1679.97 1920.86 1679.97 2519.97 1079.97 2519.97"/></clipPath><clipPath id="h"><polyline class="l" points="1015.11 4322.2 1615.11 4322.2 1615.11 4921.31 1015.11 4921.31"/></clipPath><image id="i" transform="translate(148.89 -4127.8)" xlink:href="../../../forbesmedia.lat_2019_eventos.html.png"/></defs><g id="a"/><g id="b"><g id="c"><g class="k"><use xlink:href="#i"/></g></g><g id="e"><g class="m"><use xlink:href="#i"/></g></g><g id="g"><g class="j"><use xlink:href="#i"/></g></g><g><g><path class="n" d="M2.15,403.56H10.3c5.71,0,9.63,3.32,9.63,8.61s-3.92,8.61-9.63,8.61H2.15v-17.23h0Zm7.95,13.34c2.93,0,4.9-1.75,4.9-4.73s-1.97-4.73-4.9-4.73h-3.08v9.45h3.08Z"/><path class="n" d="M21.73,403.49c0-1.4,1.13-2.49,2.86-2.49s2.86,1.01,2.86,2.41c0,1.48-1.13,2.56-2.86,2.56s-2.86-1.09-2.86-2.49Zm.51,3.96h4.68v13.34h-4.68v-13.34Z"/><path class="n" d="M28.89,419.63l1.4-3.2c1.23,.76,3.02,1.23,4.65,1.23s2.09-.35,2.09-.91c0-1.79-7.87,.25-7.87-5.1,0-2.51,2.32-4.43,6.5-4.43,1.87,0,3.94,.39,5.27,1.13l-1.4,3.18c-1.33-.74-2.66-.98-3.84-.98-1.58,0-2.14,.44-2.14,.93,0,1.85,7.85-.14,7.85,5.15,0,2.46-2.27,4.38-6.59,4.38-2.27,0-4.6-.56-5.91-1.38h0Z"/><path class="n" d="M52.34,407.23v4.21c-.42-.05-.72-.07-1.06-.07-1.9,0-3.2,.96-3.2,3.3v6.13h-4.68v-13.34h4.46v1.6c.96-1.21,2.51-1.82,4.48-1.82h0Z"/><path class="n" d="M68.34,407.45v13.34h-4.46v-1.43c-1.01,1.11-2.44,1.65-3.96,1.65-3.27,0-5.66-1.87-5.66-6.1v-7.46h4.67v6.69c0,2.07,.81,2.88,2.21,2.88s2.51-.91,2.51-3.15v-6.43h4.69Z"/><path class="n" d="M86.28,414.12c0,4.23-2.93,6.89-6.55,6.89-1.55,0-2.81-.47-3.72-1.4v5.96h-4.68v-18.11h4.46v1.33c.88-1.06,2.19-1.55,3.94-1.55,3.62,0,6.55,2.65,6.55,6.89h0Zm-4.73,0c0-2.02-1.23-3.18-2.81-3.18s-2.81,1.16-2.81,3.18,1.23,3.18,2.81,3.18,2.81-1.16,2.81-3.18Z"/><path class="n" d="M97.65,420.25c-.81,.51-2.02,.76-3.25,.76-3.42,0-5.41-1.67-5.41-5.1v-4.48h-1.95v-3.5h1.95v-3.47h4.67v3.47h3.05v3.5h-3.05v4.43c0,.98,.56,1.53,1.4,1.53,.51,0,1.03-.14,1.42-.42l1.16,3.27h0Z"/><path class="n" d="M98.21,414.1c0-4.01,3.18-6.87,7.54-6.87s7.54,2.86,7.54,6.87-3.13,6.92-7.54,6.92-7.54-2.88-7.54-6.92Zm10.33,0c0-2.02-1.21-3.15-2.81-3.15s-2.81,1.13-2.81,3.15,1.23,3.2,2.81,3.2,2.81-1.16,2.81-3.2Z"/><path class="n" d="M124.36,407.23v4.21c-.42-.05-.72-.07-1.05-.07-1.9,0-3.2,.96-3.2,3.3v6.13h-4.67v-13.34h4.46v1.6c.96-1.21,2.51-1.82,4.48-1.82h0Z"/><path class="n" d="M139.73,415.3h-9.7c.39,1.35,1.55,2.14,3.27,2.14,1.3,0,2.16-.37,3.07-1.16l2.46,2.56c-1.28,1.43-3.15,2.16-5.69,2.16-4.75,0-7.83-2.93-7.83-6.92s3.13-6.87,7.33-6.87c3.94,0,7.14,2.51,7.14,6.92,0,.35-.05,.79-.07,1.16h0Zm-9.77-2.45h5.46c-.25-1.4-1.28-2.29-2.73-2.29s-2.46,.88-2.73,2.29h0Z"/><path class="n" d="M140.9,419.63l1.4-3.2c1.23,.76,3.02,1.23,4.65,1.23s2.09-.35,2.09-.91c0-1.79-7.87,.25-7.87-5.1,0-2.51,2.32-4.43,6.5-4.43,1.87,0,3.94,.39,5.27,1.13l-1.4,3.18c-1.33-.74-2.65-.98-3.84-.98-1.58,0-2.14,.44-2.14,.93,0,1.85,7.85-.14,7.85,5.15,0,2.46-2.27,4.38-6.59,4.38-2.27,0-4.6-.56-5.91-1.38h0Z"/><path class="n" d="M176.75,402.52v18.26h-4.46v-1.33c-.88,1.06-2.19,1.55-3.92,1.55-3.64,0-6.57-2.66-6.57-6.92s2.93-6.87,6.57-6.87c1.55,0,2.81,.44,3.69,1.38v-6.08h4.68Zm-4.6,11.57c0-2.02-1.21-3.15-2.78-3.15s-2.81,1.13-2.81,3.15,1.21,3.2,2.81,3.2,2.78-1.16,2.78-3.2Z"/><path class="n" d="M179.24,403.49c0-1.4,1.13-2.49,2.86-2.49s2.86,1.01,2.86,2.41c0,1.48-1.13,2.56-2.86,2.56s-2.86-1.09-2.86-2.49Zm.51,3.96h4.67v13.34h-4.67v-13.34Z"/><path class="n" d="M201.81,407.45v10.91c0,5.04-2.86,7.43-7.83,7.43-2.56,0-4.99-.59-6.62-1.75l1.7-3.27c1.11,.88,2.93,1.43,4.5,1.43,2.51,0,3.57-1.13,3.57-3.23v-.44c-.91,1.06-2.27,1.58-3.96,1.58-3.55,0-6.55-2.51-6.55-6.45s3-6.43,6.55-6.43c1.85,0,3.27,.59,4.18,1.84v-1.62h4.46Zm-4.62,6.2c0-1.62-1.23-2.71-2.9-2.71s-2.93,1.09-2.93,2.71,1.25,2.73,2.93,2.73,2.9-1.11,2.9-2.73Z"/><path class="n" d="M204.28,403.49c0-1.4,1.13-2.49,2.86-2.49s2.86,1.01,2.86,2.41c0,1.48-1.13,2.56-2.86,2.56s-2.86-1.09-2.86-2.49Zm.51,3.96h4.67v13.34h-4.67v-13.34Z"/><path class="n" d="M221.7,420.25c-.81,.51-2.02,.76-3.25,.76-3.42,0-5.41-1.67-5.41-5.1v-4.48h-1.95v-3.5h1.95v-3.47h4.67v3.47h3.06v3.5h-3.06v4.43c0,.98,.57,1.53,1.4,1.53,.51,0,1.04-.14,1.43-.42l1.16,3.27h0Z"/><path class="n" d="M236,413.38v7.41h-4.36v-1.72c-.66,1.28-1.99,1.95-3.94,1.95-3.2,0-4.97-1.79-4.97-4.11,0-2.46,1.79-3.99,5.94-3.99h2.65c-.07-1.35-.99-2.12-2.83-2.12-1.28,0-2.71,.44-3.62,1.16l-1.58-3.18c1.53-1.01,3.79-1.55,5.89-1.55,4.33,0,6.82,1.92,6.82,6.15h0Zm-4.67,3.13v-1.16h-2.02c-1.5,0-2.04,.54-2.04,1.35s.64,1.35,1.75,1.35c1.03,0,1.95-.49,2.32-1.55h0Z"/><path class="n" d="M238.95,402.52h4.67v18.26h-4.67v-18.26h0Z"/><path class="n" d="M260.22,415.3h-9.7c.39,1.35,1.55,2.14,3.27,2.14,1.3,0,2.16-.37,3.07-1.16l2.46,2.56c-1.28,1.43-3.15,2.16-5.69,2.16-4.75,0-7.83-2.93-7.83-6.92s3.13-6.87,7.33-6.87c3.94,0,7.14,2.51,7.14,6.92,0,.35-.05,.79-.07,1.16h0Zm-9.77-2.45h5.46c-.25-1.4-1.28-2.29-2.73-2.29s-2.46,.88-2.73,2.29h0Z"/><path class="n" d="M261.39,419.63l1.4-3.2c1.23,.76,3.02,1.23,4.65,1.23s2.09-.35,2.09-.91c0-1.79-7.87,.25-7.87-5.1,0-2.51,2.32-4.43,6.5-4.43,1.87,0,3.94,.39,5.27,1.13l-1.4,3.18c-1.33-.74-2.65-.98-3.84-.98-1.58,0-2.14,.44-2.14,.93,0,1.85,7.85-.14,7.85,5.15,0,2.46-2.27,4.38-6.59,4.38-2.27,0-4.6-.56-5.91-1.38h0Z"/></g><g><path class="n" d="M171.09,89.03c-2.31,0-3.6,3.73-3.65,6.84l6.36-.14c.03-2.76-.42-6.71-2.71-6.71h0Z"/><path class="n" d="M173.05,63.06c0-3.72-2.78-6.45-6.51-6.45s-6.56,2.73-6.56,6.45,2.8,6.45,6.56,6.45,6.51-2.73,6.51-6.45Z"/><path class="n" d="M148.44,90.15c-.72,0-1.29,.06-2.12,.34,0,6.89,.08,14.77,.22,16.69,.37,.06,1.03,.14,1.54,.14,2.95,0,5.01-4.12,5.01-9.54,0-4.26-1.68-7.64-4.66-7.64h0Z"/><path class="n" d="M110.59,88.99c-3,0-3.84,3.98-3.84,9.22s1.33,9.22,4.1,9.22c3,0,3.84-3.98,3.84-9.22s-1.33-9.22-4.1-9.22Z"/><path class="n" d="M154.19,60.62c0-2.49-1.65-3.92-4.76-3.92h-4.13v7.81h4.13c3.11,0,4.76-1.45,4.76-3.89Z"/><path class="n" d="M184.73,3.34H91.74L45.25,83.87l46.49,80.53h92.99l46.49-80.53L184.73,3.34Zm8.27,77.43c.33-.33,.74-.5,1.21-.5s.88,.17,1.21,.5c.33,.33,.5,.73,.5,1.21s-.17,.88-.5,1.21c-.33,.33-.73,.5-1.21,.5s-.88-.17-1.21-.5c-.33-.33-.5-.73-.5-1.21s.17-.88,.5-1.21Zm-3.51,0c.33-.33,.74-.5,1.21-.5,.31,0,.6,.07,.85,.22,.26,.14,.46,.34,.61,.59l-.36,.22c-.12-.19-.27-.34-.46-.45-.19-.11-.4-.16-.64-.16-.36,0-.66,.13-.91,.38-.24,.25-.36,.56-.36,.92s.12,.67,.36,.92c.24,.25,.55,.38,.91,.38,.23,0,.45-.06,.64-.16,.19-.11,.35-.26,.46-.45l.36,.22c-.15,.25-.35,.44-.61,.59-.26,.14-.54,.22-.85,.22-.47,0-.88-.17-1.21-.5-.33-.33-.5-.73-.5-1.21s.17-.88,.5-1.21Zm-1.58-.44h.43v3.31h-.43v-3.31Zm-3.49,0h.51l.97,1.29,.97-1.29h.51l-1.22,1.63,1.27,1.67h-.52l-1.01-1.32-1.01,1.32h-.53l1.28-1.67-1.22-1.63h0Zm-1.03-1.01h.51l-.53,.73h-.34l.36-.73Zm-1.2,1.01h1.93v.41h-1.5v1.01h1.21v.41h-1.21v1.08h1.5v.41h-1.93v-3.31h0Zm-38.54-25.05h5.82c3.96,0,6.36,2,6.36,5.34,0,2.44-1.29,4.16-3.55,4.89l3.8,5.34h-1.8l-3.55-5c-.4,.04-.8,.06-1.25,.06h-4.18v4.94h-1.65v-15.57Zm-11.85-.14c4.67,0,8.16,3.36,8.16,7.91s-3.49,7.91-8.16,7.91-8.19-3.38-8.19-7.91,3.47-7.91,8.19-7.91h0Zm-20.69,.14h10.67v1.42h-9.03v6.11h8.05v1.42h-8.05v6.6h-1.65v-15.57h0Zm-21.05,38.27l3.17-.1c2.11-.06,2.98-1.61,3.49-3.88h1.19v9.47h-1.19c-.51-2.28-1.39-3.8-3.49-3.88l-3.16-.1c.03,3.39,.13,6.29,.27,8.01,.22,2.53,.91,3.64,2.73,3.89l1.62,.17v1.13h-15.34v-1.13l1.27-.17c1.82-.26,2.51-1.37,2.73-3.89,.35-4.15,.4-12.8,0-17.61-.22-2.53-.91-3.64-2.73-3.89l-1.27-.17v-1.13h23.85l.13,7.9-1.42,.39c-1.23-4.05-3.2-6.34-6.87-6.34h-4.7c-.22,2.58-.3,6.88-.27,11.35h0Zm20.45,15.19c-6.78,0-10.15-4.51-10.15-10.46s3.8-10.57,10.59-10.57,10.14,4.51,10.14,10.46-3.8,10.57-10.58,10.57Zm26.06-14.98c-2.74-1.81-5.7-1.02-6.31-.03-.21,3.26-.16,8.24,.07,10.76,.15,1.66,.64,2.39,1.9,2.56l1.64,.11v1.13h-12.59v-1.13l.88-.11c1.27-.17,1.75-.89,1.9-2.56,.24-2.73,.29-8.4,0-11.58-.15-1.66-.64-2.39-1.9-2.56l-.88-.11v-.8l9.03-1.72-.1,4.64c2.11-4.78,6.28-5.4,8.57-4.06l-2.21,5.48h0Zm11.36,14.97c-2.65,0-5.29-.41-7.74-.95,.24-2.73,.29-19.77,0-22.95-.15-1.66-.64-2.39-1.9-2.56l-.88-.11v-.8l9.07-1.72c-.1,1.42-.16,5.2-.17,9.54,1.55-.75,3.06-1.25,4.92-1.25,4.71,0,8.23,3.98,8.23,9.51,0,6.92-4.33,11.28-11.52,11.28h0Zm10.41-45.65c0-4.54,3.47-7.91,8.19-7.91s8.16,3.36,8.16,7.91-3.49,7.91-8.16,7.91-8.19-3.38-8.19-7.91Zm16.29,42.73c2.13,0,3.28-.52,4.58-1.48l.6,.7c-1.41,1.91-4.34,3.73-8.24,3.73-6.12,0-10.43-4.26-10.44-10.34,0-5.51,3.54-10.68,10.52-10.68,5.68,0,8.4,4.14,8.42,9.55h-12.68c-.14,4.91,2.4,8.52,7.24,8.52h0Zm6.68-22.16h-.43v-2.57l-1.19,1.6-1.19-1.6v2.57h-.43v-3.31h.39l1.22,1.65,1.23-1.65h.39v3.31h0Zm7.38,25.12c-2.59,0-5.48-.56-7.16-1.23l-.18-5.81,1.04-.27c1.49,4.07,3.43,5.56,5.97,5.56,2.16,0,3.38-1.51,3.38-3.14s-.91-2.51-4.37-3.73c-3.22-1.13-5.54-2.51-5.54-6.04s3.09-6.36,8.2-6.36c2.37,0,4.62,.41,6.13,1.09l.22,5.1-1.04,.27c-1.11-3.52-2.79-5.01-5.24-5.01-1.63,0-2.82,1.21-2.82,2.97s1.33,2.66,5.16,4.12c3.54,1.34,4.95,2.9,4.95,5.71,0,4.21-3.28,6.79-8.68,6.79h0Z"/><path class="n" d="M194.21,83.28c.36,0,.67-.13,.91-.38s.36-.56,.36-.92-.12-.67-.36-.92c-.24-.25-.55-.38-.91-.38s-.66,.13-.91,.38c-.24,.25-.36,.56-.36,.92s.12,.67,.36,.92c.24,.25,.55,.38,.91,.38Z"/><path class="n" d="M131.8,69.51c3.74,0,6.51-2.73,6.51-6.45s-2.78-6.45-6.51-6.45-6.56,2.73-6.56,6.45,2.8,6.45,6.56,6.45Z"/></g><g><path class="n" d="M20.24,201.17c1.42,0,2.26,.77,2.26,2.2v1.87c0,1.42-.84,2.26-2.26,2.26H10.51v13.87h7.29c1.42,0,2.26,.77,2.26,2.2v1.87c0,1.42-.84,2.26-2.26,2.26h-7.29v13.87h9.74c1.42,0,2.26,.77,2.26,2.2v1.87c0,1.42-.84,2.26-2.26,2.26H4.57c-1.42,0-2.26-.84-2.26-2.26v-42.26c0-1.42,.84-2.2,2.26-2.2h15.67Z"/><path class="n" d="M37.47,226.39c1.42,0,2.2,.84,2.2,2.26v1.87c0,1.42-.77,2.2-2.2,2.2h-10.77c-1.42,0-2.25-.77-2.25-2.2v-1.87c0-1.42,.84-2.26,2.25-2.26h10.77Z"/><path class="n" d="M67.21,217.68c0,1.42-.84,2.26-2.26,2.26h-3.68c-1.42,0-2.26-.84-2.26-2.26v-6.84c0-2.2-1.03-3.68-3.68-3.68s-3.61,1.48-3.61,3.68v27.35c0,2.2,.97,3.68,3.61,3.68s3.68-1.48,3.68-3.68v-6.9c0-1.42,.84-2.2,2.26-2.2h3.68c1.42,0,2.26,.77,2.26,2.2v6.9c0,6.71-3.74,10-11.87,10s-11.81-3.29-11.81-10v-27.35c0-6.71,3.68-10,11.81-10s11.87,3.29,11.87,10v6.84Z"/><path class="n" d="M96.05,210.84v27.35c0,6.71-3.74,10-11.87,10s-11.81-3.29-11.81-10v-27.35c0-6.71,3.68-10,11.81-10s11.87,3.29,11.87,10Zm-15.48,0v27.35c0,2.2,.97,3.68,3.61,3.68s3.68-1.48,3.68-3.68v-27.35c0-2.2-1.03-3.68-3.68-3.68s-3.61,1.48-3.61,3.68Z"/><path class="n" d="M114.43,239.03c-1.35,0-2.06-.71-2.25-1.75l-3.8-23.03h-.51l.58,9.1v22.25c0,1.42-.84,2.26-2.26,2.26h-2.71c-1.42,0-2.26-.84-2.26-2.26v-42.26c0-1.42,.84-2.2,2.26-2.2h6.32c1.42,0,2.07,.71,2.32,2.13l2.65,13.87,1.55,11.03h.58l1.48-11.03,2.71-13.87c.19-1.42,.9-2.13,2.32-2.13h6.32c1.35,0,2.26,.77,2.26,2.2v42.26c0,1.42-.84,2.26-2.26,2.26h-2.71c-1.42,0-2.26-.84-2.26-2.26v-22.25l.58-9.1h-.51l-3.87,23.03c-.13,1.03-.84,1.75-2.2,1.75h-4.33Z"/><path class="n" d="M150.37,239.03c-1.36,0-2.07-.71-2.26-1.75l-3.8-23.03h-.51l.58,9.1v22.25c0,1.42-.84,2.26-2.26,2.26h-2.71c-1.42,0-2.26-.84-2.26-2.26v-42.26c0-1.42,.84-2.2,2.26-2.2h6.32c1.42,0,2.07,.71,2.32,2.13l2.65,13.87,1.54,11.03h.58l1.49-11.03,2.71-13.87c.19-1.42,.9-2.13,2.32-2.13h6.32c1.35,0,2.26,.77,2.26,2.2v42.26c0,1.42-.84,2.26-2.26,2.26h-2.71c-1.42,0-2.26-.84-2.26-2.26v-22.25l.58-9.1h-.51l-3.87,23.03c-.13,1.03-.84,1.75-2.2,1.75h-4.32Z"/><path class="n" d="M191,201.17c1.42,0,2.26,.77,2.26,2.2v1.87c0,1.42-.84,2.26-2.26,2.26h-9.74v13.87h7.29c1.42,0,2.26,.77,2.26,2.2v1.87c0,1.42-.84,2.26-2.26,2.26h-7.29v13.87h9.74c1.42,0,2.26,.77,2.26,2.2v1.87c0,1.42-.84,2.26-2.26,2.26h-15.67c-1.42,0-2.26-.84-2.26-2.26v-42.26c0-1.42,.84-2.2,2.26-2.2h15.67Z"/><path class="n" d="M214.87,227.81l6.39,16.91c.45,1.16,.13,3.16-2,3.16h-3.93c-1.16,0-1.87-.51-2.2-1.48l-6.32-17.29h-2.13v16.51c0,1.42-.84,2.26-2.26,2.26h-3.68c-1.42,0-2.26-.84-2.26-2.26v-42.26c0-1.42,.84-2.2,2.26-2.2h9.16c8.32,0,12.06,3.35,12.06,10.25v7.35c0,4.58-1.48,7.61-5.09,9.03h0Zm-6.96-5.03c2.84,0,3.93-1.62,3.93-4v-7.35c0-2.32-1.09-3.93-3.93-3.93h-3.23v15.29h3.23Z"/><path class="n" d="M248.81,217.68c0,1.42-.84,2.26-2.26,2.26h-3.68c-1.42,0-2.26-.84-2.26-2.26v-6.84c0-2.2-1.03-3.68-3.68-3.68s-3.61,1.48-3.61,3.68v27.35c0,2.2,.97,3.68,3.61,3.68s3.68-1.48,3.68-3.68v-6.9c0-1.42,.84-2.2,2.26-2.2h3.68c1.42,0,2.26,.77,2.26,2.2v6.9c0,6.71-3.74,10-11.87,10s-11.81-3.29-11.81-10v-27.35c0-6.71,3.68-10,11.81-10s11.87,3.29,11.87,10v6.84Z"/><path class="n" d="M271.9,201.17c1.42,0,2.26,.77,2.26,2.2v1.87c0,1.42-.84,2.26-2.26,2.26h-9.74v13.87h7.29c1.42,0,2.26,.77,2.26,2.2v1.87c0,1.42-.84,2.26-2.26,2.26h-7.29v13.87h9.74c1.42,0,2.26,.77,2.26,2.2v1.87c0,1.42-.84,2.26-2.26,2.26h-15.67c-1.42,0-2.26-.84-2.26-2.26v-42.26c0-1.42,.84-2.2,2.26-2.2h15.67Z"/><path class="n" d="M20.24,261.38c1.42,0,2.26,.77,2.26,2.2v1.87c0,1.42-.84,2.26-2.26,2.26H10.51v13.87h7.29c1.42,0,2.26,.77,2.26,2.2v1.87c0,1.42-.84,2.26-2.26,2.26h-7.29v17.93c0,1.42-.84,2.26-2.26,2.26h-3.68c-1.42,0-2.26-.84-2.26-2.26v-42.26c0-1.42,.84-2.2,2.26-2.2h15.67Z"/><path class="n" d="M33.6,305.83c0,1.42-.84,2.26-2.26,2.26h-3.68c-1.42,0-2.26-.84-2.26-2.26v-42.26c0-1.42,.84-2.2,2.26-2.2h3.68c1.42,0,2.26,.77,2.26,2.2v42.26Z"/><path class="n" d="M55.21,263.57c0-1.42,.84-2.2,2.26-2.2h3.23c1.42,0,2.2,.77,2.2,2.2v42.26c0,1.42-.77,2.26-2.2,2.26h-4.06c-1.35,0-1.87-.71-2.26-1.67l-5.36-17.36-2.84-10.64-.58,.06,.84,10.97v16.38c0,1.42-.77,2.26-2.2,2.26h-3.23c-1.42,0-2.26-.84-2.26-2.26v-42.26c0-1.42,.84-2.2,2.26-2.2h4c1.36,0,1.94,.71,2.26,1.68l5.36,17.36,2.84,10.65,.58-.06-.84-10.97v-16.46Z"/><path class="n" d="M82.43,267.7v38.12c0,1.42-.84,2.26-2.26,2.26h-3.68c-1.42,0-2.26-.84-2.26-2.26v-38.12h-6.51c-1.42,0-2.26-.84-2.26-2.26v-1.87c0-1.42,.84-2.2,2.26-2.2h21.22c1.42,0,2.26,.77,2.26,2.2v1.87c0,1.42-.84,2.26-2.26,2.26h-6.51Z"/><path class="n" d="M111.72,261.38c1.42,0,2.26,.77,2.26,2.2v1.87c0,1.42-.84,2.26-2.26,2.26h-9.74v13.87h7.29c1.42,0,2.26,.77,2.26,2.2v1.87c0,1.42-.84,2.26-2.26,2.26h-7.29v13.87h9.74c1.42,0,2.26,.77,2.26,2.2v1.87c0,1.42-.84,2.26-2.26,2.26h-15.67c-1.42,0-2.26-.84-2.26-2.26v-42.26c0-1.42,.84-2.2,2.26-2.2h15.67Z"/><path class="n" d="M140.88,277.89c0,1.42-.84,2.26-2.26,2.26h-3.68c-1.42,0-2.26-.84-2.26-2.26v-6.84c0-2.2-1.03-3.68-3.68-3.68s-3.61,1.48-3.61,3.68v27.35c0,2.2,.97,3.68,3.61,3.68s3.68-1.48,3.68-3.68v-6.9c0-1.42,.84-2.2,2.26-2.2h3.68c1.42,0,2.26,.77,2.26,2.2v6.9c0,6.71-3.74,10-11.87,10s-11.81-3.29-11.81-10v-27.35c0-6.71,3.68-10,11.81-10s11.87,3.29,11.87,10v6.84Z"/><path class="n" d="M154.23,281.57h7.29v-18c0-1.42,.84-2.2,2.26-2.2h3.68c1.42,0,2.26,.77,2.26,2.2v42.26c0,1.42-.84,2.26-2.26,2.26h-3.68c-1.42,0-2.26-.84-2.26-2.26v-17.93h-7.29v17.93c0,1.42-.84,2.26-2.26,2.26h-3.68c-1.42,0-2.26-.84-2.26-2.26v-42.26c0-1.42,.84-2.2,2.26-2.2h3.68c1.42,0,2.26,.77,2.26,2.2v18Z"/><path class="n" d="M25.99,358.62c0,6.71-3.74,10-11.87,10s-11.81-3.29-11.81-10v-4.13c0-4.77,1.81-7.93,5.87-9.35v-.58c-4.06-1.35-5.87-4.52-5.87-9.35v-3.93c0-6.71,3.68-10,11.81-10s11.87,3.29,11.87,10v2.65c0,1.42-.84,2.26-2.25,2.26h-3.68c-1.42,0-2.26-.84-2.26-2.26v-2.65c0-2.2-1.03-3.68-3.68-3.68s-3.61,1.48-3.61,3.68v6.45c0,2.39,1.03,3.93,3.93,3.93h14.71c1.42,0,2.2,.84,2.2,2.26v1.87c0,1.42-.77,2.2-2.2,2.2h-3.16v10.64h0Zm-8.2-10.65h-3.35c-2.9,0-3.93,1.62-3.93,4v6.64c0,2.2,.97,3.68,3.61,3.68s3.68-1.48,3.68-3.68v-10.64Z"/><path class="n" d="M56.18,361.97h9.74c1.42,0,2.25,.77,2.25,2.2v1.87c0,1.42-.84,2.26-2.25,2.26h-15.67c-1.42,0-2.26-.84-2.26-2.26v-42.26c0-1.42,.84-2.2,2.26-2.2h3.68c1.42,0,2.26,.77,2.26,2.2v38.19Z"/><path class="n" d="M94.75,331.26v27.35c0,6.71-3.74,10-11.87,10s-11.81-3.29-11.81-10v-27.35c0-6.71,3.68-10,11.81-10s11.87,3.29,11.87,10Zm-15.48,0v27.35c0,2.2,.97,3.68,3.61,3.68s3.68-1.48,3.68-3.68v-27.35c0-2.2-1.03-3.68-3.68-3.68s-3.61,1.48-3.61,3.68Z"/><path class="n" d="M121.33,343.84c1.42,0,2.25,.77,2.25,2.2v12.58c0,6.71-3.74,10-11.87,10s-11.81-3.29-11.81-10v-27.35c0-6.71,3.68-10,11.81-10s11.87,3.29,11.87,10v4.25c0,1.42-.84,2.26-2.25,2.26h-3.68c-1.42,0-2.26-.84-2.26-2.26v-4.25c0-2.2-1.03-3.68-3.68-3.68s-3.61,1.48-3.61,3.68v27.35c0,2.2,.97,3.68,3.61,3.68s3.68-1.48,3.68-3.68v-8.45h-1.54c-1.42,0-2.2-.84-2.2-2.26v-1.87c0-1.42,.77-2.2,2.2-2.2h7.48Z"/><path class="n" d="M130.56,319.07c-1.03,.45-1.81,.32-2.32-.71l-.51-1.16c-.45-.9-.13-1.67,.84-2.26l10.13-5.94c.97-.58,1.74-.26,2.26,.77l1.29,2.65c.51,1.03,.19,1.94-.77,2.32l-10.91,4.32h0Zm6.39,46.96c0,1.42-.84,2.26-2.26,2.26h-3.68c-1.42,0-2.26-.84-2.26-2.26v-42.26c0-1.42,.84-2.2,2.26-2.2h3.68c1.42,0,2.26,.77,2.26,2.2v42.26Z"/><path class="n" d="M153.07,339.13l7.22,6.58c4.06,3.61,4.97,6.64,4.97,12.9,0,6.71-3.68,10-11.81,10s-11.81-3.29-11.81-10v-5.1c0-1.42,.77-2.26,2.2-2.26h3.74c1.42,0,2.2,.84,2.2,2.26v5.1c0,2.2,1.03,3.68,3.68,3.68s3.68-1.48,3.68-3.68c0-3.61-.51-5.36-3.29-7.87l-7.29-6.58c-4.06-3.61-4.9-6.64-4.9-12.9,0-6.71,3.68-10,11.81-10s11.81,3.29,11.81,10v5.1c0,1.42-.77,2.2-2.2,2.2h-3.74c-1.42,0-2.2-.77-2.2-2.2v-5.1c0-2.2-1.03-3.68-3.68-3.68s-3.68,1.48-3.68,3.68c0,3.61,.51,5.36,3.29,7.87h0Z"/><path class="n" d="M184.36,327.91v38.12c0,1.42-.84,2.26-2.26,2.26h-3.68c-1.42,0-2.26-.84-2.26-2.26v-38.12h-6.51c-1.42,0-2.26-.84-2.26-2.26v-1.87c0-1.42,.84-2.2,2.26-2.2h21.22c1.42,0,2.26,.77,2.26,2.2v1.87c0,1.42-.84,2.26-2.26,2.26h-6.51Z"/><path class="n" d="M203.9,366.03c0,1.42-.84,2.26-2.26,2.26h-3.68c-1.42,0-2.26-.84-2.26-2.26v-42.26c0-1.42,.84-2.2,2.26-2.2h3.68c1.42,0,2.26,.77,2.26,2.2v42.26Z"/><path class="n" d="M232.74,338.1c0,1.42-.84,2.26-2.26,2.26h-3.68c-1.42,0-2.26-.84-2.26-2.26v-6.84c0-2.2-1.03-3.68-3.68-3.68s-3.61,1.48-3.61,3.68v27.35c0,2.2,.97,3.68,3.61,3.68s3.68-1.48,3.68-3.68v-6.9c0-1.42,.84-2.2,2.26-2.2h3.68c1.42,0,2.26,.77,2.26,2.2v6.9c0,6.71-3.74,10-11.87,10s-11.81-3.29-11.81-10v-27.35c0-6.71,3.68-10,11.81-10s11.87,3.29,11.87,10v6.84Z"/><path class="n" d="M253.97,366.29l-.97-7.22h-8.2l-.9,7.22c-.19,1.49-1.16,2-2.26,2h-3.48c-1.62,0-2.39-1.16-2.13-2.71l6.39-41.87c.19-1.55,1.03-2.13,2.32-2.13h8.39c1.29,0,2.07,.58,2.26,2.13l6.39,41.87c.26,1.62-.51,2.71-2.13,2.71h-3.48c-1.03,0-2.07-.51-2.2-2h0Zm-8.39-13.54h6.58l-1.29-9.93-1.67-15.61h-.58l-1.68,15.61-1.35,9.93h0Z"/></g></g></g></svg>