<?xml version="1.0" encoding="utf-8"?>
<!-- Generator: Adobe Illustrator 22.0.1, SVG Export Plug-In . SVG Version: 6.00 Build 0)  -->
<svg version="1.1" id="Capa_1" xmlns="http://www.w3.org/2000/svg" xmlns:xlink="http://www.w3.org/1999/xlink" x="0px" y="0px"
	 viewBox="0 0 210 155" style="enable-background:new 0 0 210 155;" xml:space="preserve">
<style type="text/css">
	.st0{fill:#DB9E36;}
	.st1{fill:none;}
</style>
<title>energia</title>
<path d="M108.5,49.1c0.6-0.3,1.4-0.3,2,0.1c1.7,1.2,1.5,6,0,7.5c-0.5,0.5-1.2,0.7-1.9,0.5C108.5,54.5,108.5,51.8,108.5,49.1
	 M105.7,47.8c0,3.2,0.1,6.7,0,9.6c1.9,0.5,3.9,0.6,5.8,0.1c1.6-0.5,2.8-1.9,3.1-3.5c0.8-3.1-0.7-5.9-3.3-6.2
	c-0.9-0.1-1.9,0.1-2.7,0.5c0-1.5,0-3.2,0-4.6l0,0c-0.7,0.2-1.4,0.3-2.2,0.4c-0.7,0.1-1.4,0.2-2.1,0.4V45c0.3,0,0.5,0.1,0.8,0.2
	C105.8,45.5,105.8,46.8,105.7,47.8"/>
<path d="M84,57.2c-0.9-0.1-1.5-0.2-1.8-0.9c-0.5-1.1-0.3-3.5-0.4-5c1,0.1,1.9-0.1,2.5,0.4c0.4,0.4,0.6,0.9,0.7,1.5
	c0.2,0,0.4,0,0.6,0v-4.6H85c-0.2,0.8-0.4,1.5-1,1.8c-0.7,0.1-1.4,0.2-2.1,0.2c0-1.9,0-3.7,0.1-5.5c1.5,0,2.9-0.1,3.8,0.4
	c0.8,0.6,1.4,1.6,1.7,2.6c0.2,0,0.4-0.1,0.7-0.2c0-1.3,0-2.5-0.1-3.8H76.7c0,0,0,0,0,0.1v0.5c0.4,0,0.8,0.1,1.2,0.2
	c0.7,0.5,0.7,1.8,0.8,3c0.1,1.9,0,4.1,0,6c0.1,0.9-0.1,1.8-0.4,2.6c-0.3,0.5-1,0.5-1.6,0.6v0.5H84V57.2z"/>
<path d="M102.6,57.2c-0.6-0.1-1.2,0-1.5-0.5c-0.2-0.4-0.2-0.9-0.2-1.4c-0.1-1.6-0.1-3.1,0-4.7c0.6-0.8,2.3-0.5,3,0
	c0.3-0.9,0.7-1.8,1-2.6c-0.4-0.2-0.8-0.3-1.2-0.3c-1.3,0.2-2.4,1-2.8,2.2c0-0.8,0.1-1.4,0-2.2c-1.4,0.3-2.9,0.5-4.3,0.8V49
	c0.3,0.1,0.8,0.1,1,0.3c0.3,0.5,0.5,1,0.5,1.6c0,1.2,0,2.7,0,3.8c0,0.6,0,1.2-0.2,1.8c-0.2,0.5-0.7,0.6-1.2,0.7v0.5h6L102.6,57.2z"
	/>
<path d="M93.4,55.2c-0.1,0.7-0.4,1.4-0.9,1.9c-0.3,0.2-0.7,0.3-1.1,0.2c-0.6-0.1-1-0.9-1.3-1.5c-0.4-1.7-0.5-3.4-0.2-5.1l0,0
	c0.2-0.9,0.5-2.1,1.6-2.2s1.5,0.9,1.8,1.8C93.6,51.8,93.6,53.5,93.4,55.2 M95.4,56.3c0.9-1.1,1.3-2.4,1.2-3.8c-0.2-3-2-5-5.3-4.7
	l0,0c-0.7,0-1.4,0.2-2,0.5c-1.7,0.8-2.7,2.4-2.6,5c-0.1,2,1.2,3.8,3.1,4.4C91.7,58.4,93.9,57.8,95.4,56.3"/>
<path d="M120.2,48.4c0.7-0.1,1,0.7,1.2,1.3l0,0c0.1,0.6,0.2,1.2,0.2,1.9c-1,0-2,0-3,0C118.7,50.3,119,48.5,120.2,48.4 M118.5,57.5
	c1.8,0.7,3.9,0.4,5.4-0.8c0.2-0.2,0.4-0.4,0.5-0.7c-0.1-0.1-0.1-0.2-0.2-0.3s-0.4,0.2-0.5,0.3c-0.6,0.3-1.2,0.4-1.9,0.4
	c-2.3-0.1-3.3-1.7-3.3-4.1h6c0-2.8-1.3-4.9-4.4-4.7c-1.5,0-2.9,0.8-3.7,2.1c-0.8,1.4-1.1,3.1-0.6,4.7
	C116.2,55.9,117.2,57,118.5,57.5"/>
<path d="M128.8,57c-2,0.2-2.6-1.4-3.1-2.6c-0.1,0-0.3,0.1-0.4,0.1c0,0.9,0,2,0.1,2.9c1.5,0.6,3.2,0.7,4.8,0.4
	c1.5-0.2,2.6-1.4,2.7-2.9c0.1-2-1.3-2.6-2.7-3.2c-0.7-0.3-1.7-0.7-2-1.3c-0.1-0.2-0.1-0.3-0.2-0.5c-0.1-0.8,0.5-1.4,1.3-1.5
	c1.6-0.1,2.2,1.4,2.6,2.4l0.4-0.1c0-0.8,0-1.7-0.1-2.5l0,0c-1.1-0.4-2.2-0.6-3.4-0.5c-1.9,0.1-3.4,1.3-3.5,3s1.1,2.4,2.1,2.8
	c1.1,0.4,2.2,0.6,2.5,1.5c0.3,0.8-0.1,1.6-0.9,1.9C129,57,128.9,57,128.8,57"/>
<g>
	<path class="st0" d="M75.3,76.9h-7.1V66.8h7v1.1h-5.8v3.4h5.7v1.1h-5.7v3.4h5.9C75.4,75.8,75.4,76.9,75.3,76.9z"/>
	<path class="st0" d="M87.8,76.9h-1l-6.2-8.1v8.1h-1.2V66.8h1l6.2,8.1v-8.1h1.2V76.9z"/>
	<path class="st0" d="M99.2,76.9h-7.1V66.8h7v1.1h-5.8v3.4h5.7v1.1h-5.7v3.4h5.9V76.9z"/>
	<path class="st0" d="M107.2,66.8c0.5,0,1,0.1,1.5,0.2c0.4,0.1,0.8,0.3,1.1,0.6c0.3,0.2,0.5,0.5,0.7,0.9s0.2,0.8,0.2,1.2
		c0,0.4-0.1,0.8-0.2,1.2c-0.2,0.3-0.4,0.7-0.7,0.9c-0.3,0.3-0.7,0.5-1.1,0.6c-0.5,0.1-1,0.2-1.5,0.2h-0.2l3.6,4.4h-1.4l-3.6-4.4
		h-1.3V77h-1.2V66.8H107.2z M104.4,67.9v3.6h2.8c0.6,0,1.2-0.1,1.8-0.5c0.4-0.3,0.6-0.8,0.6-1.3s-0.2-1-0.6-1.3
		c-0.5-0.3-1.1-0.5-1.8-0.4L104.4,67.9z"/>
	<path class="st0" d="M119.2,66.7c0.8,0,1.5,0.1,2.2,0.4s1.2,0.7,1.7,1.2l-0.8,0.8c-0.4-0.4-0.8-0.8-1.3-1c-1-0.5-2.2-0.5-3.3-0.1
		c-0.5,0.2-0.9,0.5-1.3,0.8c-0.4,0.4-0.6,0.8-0.8,1.3c-0.4,1.1-0.4,2.2,0,3.3c0.2,0.5,0.5,0.9,0.8,1.3c0.4,0.4,0.8,0.6,1.2,0.8
		c0.5,0.2,1,0.3,1.5,0.3s1-0.1,1.4-0.2s0.8-0.4,1.1-0.7c0.3-0.3,0.6-0.6,0.7-1c0.2-0.4,0.3-0.9,0.3-1.4h-3.1v-1.1h4.4
		c0,0,0,0.1,0,0.2v0.1c0,0.7-0.1,1.4-0.3,2.1c-0.2,0.6-0.6,1.2-1,1.7s-1,0.8-1.5,1.1c-0.6,0.3-1.3,0.4-2,0.4s-1.3-0.1-1.9-0.3
		c-0.6-0.2-1.2-0.6-1.7-1c-0.5-0.5-0.9-1-1.2-1.6c-0.3-0.7-0.4-1.4-0.4-2.2c0-0.5,0.1-1,0.2-1.4s0.3-0.9,0.5-1.2
		c0.2-0.4,0.5-0.7,0.8-1s0.6-0.6,1-0.8c0.4-0.2,0.8-0.4,1.3-0.5C118.2,66.8,118.7,66.7,119.2,66.7z"/>
	<path class="st0" d="M127.2,66.1l1.5-2.2h1.4l-1.8,2.2H127.2z M128.9,76.9h-1.1V66.8h1.2L128.9,76.9z"/>
	<path class="st0" d="M141.8,76.9h-1.2l-1.1-2.8h-5l-1.1,2.8h-1.2l4.1-10.1h1.4L141.8,76.9z M134.9,73h4.1l-2.1-5L134.9,73z"/>
</g>
<path d="M93.7,87.7H91v2.2h-0.6v-5h3.5v0.6H91v1.6h2.7V87.7z"/>
<path d="M100.1,84.8c0.2,0,0.5,0,0.7,0.1s0.4,0.1,0.6,0.2c0.4,0.2,0.7,0.5,0.9,0.9c0.1,0.2,0.2,0.4,0.2,0.6c0.1,0.5,0.1,1,0,1.4
	c-0.1,0.2-0.1,0.4-0.2,0.6s-0.2,0.4-0.4,0.5c-0.2,0.2-0.3,0.3-0.5,0.4s-0.4,0.2-0.6,0.2c-0.2,0.1-0.5,0.1-0.7,0.1
	c-0.3,0-0.7-0.1-1-0.2s-0.6-0.3-0.8-0.5c-0.2-0.2-0.4-0.5-0.5-0.8c-0.3-0.7-0.3-1.4,0-2.1c0.1-0.3,0.3-0.6,0.5-0.8
	c0.2-0.2,0.5-0.4,0.8-0.5C99.5,84.9,99.8,84.8,100.1,84.8z M100.1,85.4c-0.3,0-0.5,0-0.8,0.2c-0.2,0.1-0.4,0.2-0.6,0.4
	c-0.2,0.2-0.3,0.4-0.4,0.6c-0.1,0.3-0.2,0.5-0.2,0.8s0,0.6,0.2,0.8c0.1,0.2,0.2,0.5,0.4,0.6c0.2,0.2,0.4,0.3,0.6,0.4
	c0.5,0.2,1.1,0.2,1.6,0c0.2-0.1,0.4-0.2,0.6-0.4c0.2-0.2,0.3-0.4,0.4-0.6c0.1-0.3,0.1-0.5,0.1-0.8s0-0.6-0.1-0.8
	c-0.1-0.2-0.2-0.4-0.4-0.6c-0.2-0.2-0.4-0.3-0.6-0.4C100.7,85.4,100.4,85.4,100.1,85.4z"/>
<path d="M108.8,84.9c0.5,0,0.9,0.1,1.3,0.4c0.3,0.3,0.5,0.7,0.4,1.1c0,0.2,0,0.4-0.1,0.6s-0.2,0.3-0.4,0.5c-0.2,0.1-0.3,0.2-0.6,0.3
	c-0.2,0.1-0.5,0.1-0.7,0.1l0,0l1.8,2.2h-0.8l-1.8-2.2h-0.6v2.2h-0.6v-5L108.8,84.9z M107.4,85.4v1.7h1.3c0.3,0,0.6-0.1,0.8-0.2
	c0.2-0.2,0.3-0.4,0.3-0.6s-0.1-0.5-0.3-0.6c-0.3-0.2-0.5-0.2-0.8-0.2h-1.3V85.4z"/>
<path d="M116.9,84.8c0.5,0,0.9,0.1,1.3,0.3c0.2,0.1,0.4,0.2,0.5,0.4c0.2,0.2,0.3,0.3,0.4,0.5s0.2,0.4,0.2,0.6c0.1,0.5,0.1,1,0,1.4
	c-0.1,0.2-0.1,0.4-0.2,0.6s-0.2,0.4-0.4,0.5c-0.2,0.2-0.3,0.3-0.5,0.4s-0.4,0.2-0.6,0.2c-0.2,0.1-0.5,0.1-0.7,0.1
	c-0.3,0-0.7-0.1-1-0.2s-0.6-0.3-0.8-0.5c-0.2-0.2-0.4-0.5-0.6-0.8c-0.3-0.7-0.3-1.4,0-2.1c0.1-0.3,0.3-0.6,0.6-0.8
	c0.2-0.2,0.5-0.4,0.8-0.5C116.2,84.9,116.5,84.8,116.9,84.8z M116.9,85.4c-0.3,0-0.5,0-0.8,0.2c-0.2,0.1-0.4,0.2-0.6,0.4
	c-0.2,0.2-0.3,0.4-0.4,0.6c-0.1,0.3-0.2,0.5-0.2,0.8s0,0.6,0.2,0.8c0.1,0.2,0.2,0.4,0.4,0.6c0.2,0.2,0.4,0.3,0.6,0.4
	s0.5,0.2,0.8,0.2s0.5,0,0.8-0.2c0.2-0.1,0.4-0.2,0.6-0.4c0.2-0.2,0.3-0.4,0.4-0.6c0.1-0.3,0.2-0.5,0.2-0.8s0-0.6-0.2-0.8
	c-0.1-0.2-0.2-0.4-0.4-0.6c-0.2-0.2-0.4-0.3-0.6-0.4C117.4,85.4,117.1,85.4,116.9,85.4z"/>
<rect x="102.2" y="98.8" class="st0" width="5.1" height="5.1"/>
<path d="M52.5,133.9h-4.7v-6.3h4.7v1.1H49v1.4h3.2v1.1H49v1.4h3.5V133.9z"/>
<path d="M59.8,129.2c-0.5-0.3-1.2-0.5-1.8-0.5c-0.7,0-1.2,0.3-1.2,0.8s0.5,0.6,1.3,0.7h0.3c1.1,0.2,2,0.7,2,1.8
	c0,1.4-1.2,2.1-2.6,2.1c-0.9,0-1.9-0.3-2.7-0.8l0.7-1c0.6,0.4,1.3,0.7,2,0.7s1.2-0.3,1.2-0.8s-0.5-0.6-1.3-0.7l-0.4-0.1
	c-1.1-0.2-1.9-0.7-1.9-1.8c0-1.3,1.2-2,2.5-2c0.9,0,1.7,0.2,2.4,0.7L59.8,129.2z"/>
<path d="M64.7,131.6v2.3h-1.3v-6.3H66c1.5,0,2.3,0.8,2.3,2s-0.8,2-2.3,2H64.7z M64.7,128.8v1.7H66c0.7,0,1-0.3,1-0.9s-0.3-0.9-1-0.9
	L64.7,128.8z"/>
<path d="M76.4,133.9h-1.3l-0.5-1.5h-2.7l-0.6,1.5H70l2.4-6.3H74L76.4,133.9z M72.3,131.3h1.8l-0.9-2.4L72.3,131.3z"/>
<path d="M84.4,128.9l-1.1,0.7c-0.4-0.6-1-0.9-1.6-0.9c-1.1,0-2.1,0.9-2.1,2s0.9,2.1,2,2.1c0.7,0,1.3-0.3,1.7-0.8l1,0.7
	c-0.6,0.9-1.6,1.4-2.7,1.3c-1.8,0-3.3-1.5-3.3-3.3s1.5-3.3,3.3-3.3C82.8,127.5,83.8,128,84.4,128.9z"/>
<path d="M88.6,133.9h-1.3v-6.3h1.3V133.9z"/>
<path d="M98.1,130.8c0,1.8-1.4,3.3-3.3,3.3c-1.8,0-3.3-1.4-3.3-3.3s1.4-3.3,3.3-3.3l0,0c1.8-0.1,3.2,1.3,3.3,3
	C98.1,130.6,98.1,130.7,98.1,130.8z M92.8,130.8c0,1.1,1,2,2.1,1.9s2-1,1.9-2.1c0-1.1-0.9-1.9-2-1.9s-2,0.8-2,1.9
	C92.8,130.7,92.8,130.7,92.8,130.8z"/>
<path d="M108.2,133.9h-1.5l-2.4-6.3h1.3l1.8,5l1.8-5h1.3L108.2,133.9z"/>
<path d="M114.5,133.9h-1.2v-6.3h1.2V133.9z"/>
<path d="M120.3,127.6c1.5,0,2.3,0.7,2.3,1.9c0,1-0.8,1.9-1.9,1.9c0,0,0,0-0.1,0l1.9,2.5H121l-1.8-2.5h-0.4v2.5h-1.3v-6.3
	C117.5,127.6,120.3,127.6,120.3,127.6z M118.9,128.8v1.6h1.4c0.7,0,1-0.2,1-0.8s-0.4-0.8-1-0.8H118.9z"/>
<path d="M128.3,127.6c1.5,0,2.3,0.7,2.3,1.9c0,1-0.8,1.9-1.9,1.9c0,0,0,0-0.1,0l1.9,2.5H129l-1.8-2.5h-0.4v2.5h-1.3v-6.3
	C125.5,127.6,128.3,127.6,128.3,127.6z M126.9,128.8v1.6h1.4c0.7,0,1-0.2,1-0.8s-0.4-0.8-1-0.8H126.9z"/>
<path d="M138.2,133.9h-4.7v-6.3h4.7v1.1h-3.4v1.4h3.2v1.1h-3.3v1.4h3.4L138.2,133.9z"/>
<path d="M144.3,131.5v2.5h-1.2v-2.5l-2.4-3.8h1.5l1.6,2.7l1.6-2.7h1.4L144.3,131.5z"/>
<path d="M153.9,133.9h-4.7v-6.3h4.7v1.1h-3.4v1.4h3.3v1.1h-3.3v1.4h3.5v1.3H153.9z"/>
<path d="M161.3,129.2c-0.5-0.3-1.2-0.5-1.8-0.5c-0.7,0-1.2,0.3-1.2,0.8s0.5,0.6,1.3,0.7h0.4c1.1,0.2,2,0.7,2,1.8
	c0,1.4-1.2,2.1-2.6,2.1c-0.9,0-1.9-0.3-2.6-0.8l0.6-1c0.6,0.4,1.3,0.7,2,0.7s1.2-0.3,1.2-0.8s-0.5-0.6-1.3-0.7l-0.4-0.1
	c-1.1-0.2-1.9-0.7-1.9-1.8c0-1.3,1.2-2,2.5-2c0.8,0,1.7,0.2,2.4,0.7L161.3,129.2z"/>
<rect class="st1" width="210" height="155"/>
<g>
	<path d="M85,20.1c1.9,0,3.5,1.6,3.5,3.5s-1.6,3.5-3.5,3.5s-3.5-1.6-3.5-3.5S83,20.1,85,20.1z M85,25.7c1.1,0,2.1-0.9,2.1-2.1
		s-0.9-2.1-2.1-2.1s-2.1,0.9-2.1,2.1S83.8,25.7,85,25.7z"/>
	<path d="M94.5,21.9c-0.3-0.2-0.8-0.4-1.2-0.4c-1.1,0-2.1,0.9-2.1,2.1s0.9,2.1,2.1,2.1c0.5,0,1-0.2,1.4-0.5l1.2,0.8
		c-0.6,0.7-1.5,1.1-2.6,1.1c-1.9,0-3.5-1.6-3.5-3.5s1.6-3.5,3.5-3.5c0.9,0,1.7,0.3,2.3,0.9L94.5,21.9z"/>
	<path d="M96.5,20.2h5.1v1.4h-1.9V27h-1.4v-5.3h-1.9v-1.5H96.5z"/>
	<path d="M104.4,20.2v4c0,0.8,0.6,1.4,1.4,1.4s1.4-0.6,1.4-1.4v-4h1.4v4c0,1.6-1.3,2.9-2.9,2.9s-2.9-1.3-2.9-2.9v-4H104.4z"/>
	<path d="M110.5,20.2h2.9c1.1,0,2.1,0.9,2.1,2c0,0.4-0.1,0.8-0.4,1.1c0.4,0.4,0.6,1,0.6,1.6c0,1.1-0.9,2.1-2.1,2.1h-3.2L110.5,20.2
		L110.5,20.2z M111.9,21.7v1.1h1.5c0.4,0,0.6-0.2,0.6-0.5s-0.3-0.6-0.6-0.6H111.9z M113.7,24.2h-1.8v1.3h1.8c0.4,0,0.6-0.3,0.6-0.6
		C114.4,24.5,114.1,24.2,113.7,24.2z"/>
	<path d="M119.2,24.4h-0.6V27h-1.4v-6.7h2.9c1.1,0,2.1,0.9,2.1,2.1c0,0.9-0.6,1.7-1.4,1.9l1.5,2.7h-1.6L119.2,24.4z M118.6,21.7V23
		h1.5c0.4,0,0.6-0.3,0.6-0.6c0-0.4-0.3-0.6-0.6-0.6L118.6,21.7L118.6,21.7z"/>
	<path d="M123.8,20.2h4.6v1.4h-3.1v1.1h3v1.4h-3v1.3h3.3V27h-4.7v-6.8H123.8z"/>
</g>
<g>
	<path class="st0" d="M97,119.7v-6.1h-2.2v-0.8h5.2v0.8h-2.2v6.1H97z"/>
	<path class="st0" d="M101.6,119.7v-6.8h3c1.2,0,1.9,0.7,1.9,1.7c0,0.9-0.6,1.4-1.2,1.6c0.7,0.1,1.3,0.9,1.3,1.7
		c0,1.1-0.7,1.8-2,1.8C104.6,119.7,101.6,119.7,101.6,119.7z M105.7,114.7c0-0.6-0.4-1.1-1.2-1.1h-2v2.2h2
		C105.3,115.8,105.7,115.3,105.7,114.7z M105.9,117.7c0-0.6-0.4-1.2-1.3-1.2h-2.1v2.4h2.1C105.4,118.9,105.9,118.5,105.9,117.7z"/>
	<path class="st0" d="M108.6,119.7v-6.8h2.3c2.1,0,3.5,1.5,3.5,3.4s-1.4,3.4-3.5,3.4H108.6z M113.6,116.3c0-1.5-0.9-2.7-2.6-2.7
		h-1.5v5.3h1.5C112.6,118.9,113.6,117.7,113.6,116.3z"/>
</g>
</svg>
